G75*
%MOIN*%
%OFA0B0*%
%FSLAX25Y25*%
%IPPOS*%
%LPD*%
%AMOC8*
5,1,8,0,0,1.08239X$1,22.5*
%
%ADD10C,0.00000*%
%ADD11C,0.00400*%
%ADD12C,0.00394*%
D10*
X0044973Y0021869D02*
X0044975Y0022009D01*
X0044981Y0022149D01*
X0044991Y0022288D01*
X0045005Y0022427D01*
X0045023Y0022566D01*
X0045044Y0022704D01*
X0045070Y0022842D01*
X0045100Y0022979D01*
X0045133Y0023114D01*
X0045171Y0023249D01*
X0045212Y0023383D01*
X0045257Y0023516D01*
X0045305Y0023647D01*
X0045358Y0023776D01*
X0045414Y0023905D01*
X0045473Y0024031D01*
X0045537Y0024156D01*
X0045603Y0024279D01*
X0045674Y0024400D01*
X0045747Y0024519D01*
X0045824Y0024636D01*
X0045905Y0024750D01*
X0045988Y0024862D01*
X0046075Y0024972D01*
X0046165Y0025080D01*
X0046257Y0025184D01*
X0046353Y0025286D01*
X0046452Y0025386D01*
X0046553Y0025482D01*
X0046657Y0025576D01*
X0046764Y0025666D01*
X0046873Y0025753D01*
X0046985Y0025838D01*
X0047099Y0025919D01*
X0047215Y0025997D01*
X0047333Y0026071D01*
X0047454Y0026142D01*
X0047576Y0026210D01*
X0047701Y0026274D01*
X0047827Y0026335D01*
X0047954Y0026392D01*
X0048084Y0026445D01*
X0048215Y0026495D01*
X0048347Y0026540D01*
X0048480Y0026583D01*
X0048615Y0026621D01*
X0048750Y0026655D01*
X0048887Y0026686D01*
X0049024Y0026713D01*
X0049162Y0026735D01*
X0049301Y0026754D01*
X0049440Y0026769D01*
X0049579Y0026780D01*
X0049719Y0026787D01*
X0049859Y0026790D01*
X0049999Y0026789D01*
X0050139Y0026784D01*
X0050278Y0026775D01*
X0050418Y0026762D01*
X0050557Y0026745D01*
X0050695Y0026724D01*
X0050833Y0026700D01*
X0050970Y0026671D01*
X0051106Y0026639D01*
X0051241Y0026602D01*
X0051375Y0026562D01*
X0051508Y0026518D01*
X0051639Y0026470D01*
X0051769Y0026419D01*
X0051898Y0026364D01*
X0052025Y0026305D01*
X0052150Y0026242D01*
X0052273Y0026177D01*
X0052395Y0026107D01*
X0052514Y0026034D01*
X0052632Y0025958D01*
X0052747Y0025879D01*
X0052860Y0025796D01*
X0052970Y0025710D01*
X0053078Y0025621D01*
X0053183Y0025529D01*
X0053286Y0025434D01*
X0053386Y0025336D01*
X0053483Y0025236D01*
X0053577Y0025132D01*
X0053669Y0025026D01*
X0053757Y0024918D01*
X0053842Y0024807D01*
X0053924Y0024693D01*
X0054003Y0024577D01*
X0054078Y0024460D01*
X0054150Y0024340D01*
X0054218Y0024218D01*
X0054283Y0024094D01*
X0054345Y0023968D01*
X0054403Y0023841D01*
X0054457Y0023712D01*
X0054508Y0023581D01*
X0054554Y0023449D01*
X0054597Y0023316D01*
X0054637Y0023182D01*
X0054672Y0023047D01*
X0054704Y0022910D01*
X0054731Y0022773D01*
X0054755Y0022635D01*
X0054775Y0022497D01*
X0054791Y0022358D01*
X0054803Y0022218D01*
X0054811Y0022079D01*
X0054815Y0021939D01*
X0054815Y0021799D01*
X0054811Y0021659D01*
X0054803Y0021520D01*
X0054791Y0021380D01*
X0054775Y0021241D01*
X0054755Y0021103D01*
X0054731Y0020965D01*
X0054704Y0020828D01*
X0054672Y0020691D01*
X0054637Y0020556D01*
X0054597Y0020422D01*
X0054554Y0020289D01*
X0054508Y0020157D01*
X0054457Y0020026D01*
X0054403Y0019897D01*
X0054345Y0019770D01*
X0054283Y0019644D01*
X0054218Y0019520D01*
X0054150Y0019398D01*
X0054078Y0019278D01*
X0054003Y0019161D01*
X0053924Y0019045D01*
X0053842Y0018931D01*
X0053757Y0018820D01*
X0053669Y0018712D01*
X0053577Y0018606D01*
X0053483Y0018502D01*
X0053386Y0018402D01*
X0053286Y0018304D01*
X0053183Y0018209D01*
X0053078Y0018117D01*
X0052970Y0018028D01*
X0052860Y0017942D01*
X0052747Y0017859D01*
X0052632Y0017780D01*
X0052514Y0017704D01*
X0052395Y0017631D01*
X0052273Y0017561D01*
X0052150Y0017496D01*
X0052025Y0017433D01*
X0051898Y0017374D01*
X0051769Y0017319D01*
X0051639Y0017268D01*
X0051508Y0017220D01*
X0051375Y0017176D01*
X0051241Y0017136D01*
X0051106Y0017099D01*
X0050970Y0017067D01*
X0050833Y0017038D01*
X0050695Y0017014D01*
X0050557Y0016993D01*
X0050418Y0016976D01*
X0050278Y0016963D01*
X0050139Y0016954D01*
X0049999Y0016949D01*
X0049859Y0016948D01*
X0049719Y0016951D01*
X0049579Y0016958D01*
X0049440Y0016969D01*
X0049301Y0016984D01*
X0049162Y0017003D01*
X0049024Y0017025D01*
X0048887Y0017052D01*
X0048750Y0017083D01*
X0048615Y0017117D01*
X0048480Y0017155D01*
X0048347Y0017198D01*
X0048215Y0017243D01*
X0048084Y0017293D01*
X0047954Y0017346D01*
X0047827Y0017403D01*
X0047701Y0017464D01*
X0047576Y0017528D01*
X0047454Y0017596D01*
X0047333Y0017667D01*
X0047215Y0017741D01*
X0047099Y0017819D01*
X0046985Y0017900D01*
X0046873Y0017985D01*
X0046764Y0018072D01*
X0046657Y0018162D01*
X0046553Y0018256D01*
X0046452Y0018352D01*
X0046353Y0018452D01*
X0046257Y0018554D01*
X0046165Y0018658D01*
X0046075Y0018766D01*
X0045988Y0018876D01*
X0045905Y0018988D01*
X0045824Y0019102D01*
X0045747Y0019219D01*
X0045674Y0019338D01*
X0045603Y0019459D01*
X0045537Y0019582D01*
X0045473Y0019707D01*
X0045414Y0019833D01*
X0045358Y0019962D01*
X0045305Y0020091D01*
X0045257Y0020222D01*
X0045212Y0020355D01*
X0045171Y0020489D01*
X0045133Y0020624D01*
X0045100Y0020759D01*
X0045070Y0020896D01*
X0045044Y0021034D01*
X0045023Y0021172D01*
X0045005Y0021311D01*
X0044991Y0021450D01*
X0044981Y0021589D01*
X0044975Y0021729D01*
X0044973Y0021869D01*
X0005437Y0117342D02*
X0005439Y0117495D01*
X0005445Y0117649D01*
X0005455Y0117802D01*
X0005469Y0117954D01*
X0005487Y0118107D01*
X0005509Y0118258D01*
X0005534Y0118409D01*
X0005564Y0118560D01*
X0005598Y0118710D01*
X0005635Y0118858D01*
X0005676Y0119006D01*
X0005721Y0119152D01*
X0005770Y0119298D01*
X0005823Y0119442D01*
X0005879Y0119584D01*
X0005939Y0119725D01*
X0006003Y0119865D01*
X0006070Y0120003D01*
X0006141Y0120139D01*
X0006216Y0120273D01*
X0006293Y0120405D01*
X0006375Y0120535D01*
X0006459Y0120663D01*
X0006547Y0120789D01*
X0006638Y0120912D01*
X0006732Y0121033D01*
X0006830Y0121151D01*
X0006930Y0121267D01*
X0007034Y0121380D01*
X0007140Y0121491D01*
X0007249Y0121599D01*
X0007361Y0121704D01*
X0007475Y0121805D01*
X0007593Y0121904D01*
X0007712Y0122000D01*
X0007834Y0122093D01*
X0007959Y0122182D01*
X0008086Y0122269D01*
X0008215Y0122351D01*
X0008346Y0122431D01*
X0008479Y0122507D01*
X0008614Y0122580D01*
X0008751Y0122649D01*
X0008890Y0122714D01*
X0009030Y0122776D01*
X0009172Y0122834D01*
X0009315Y0122889D01*
X0009460Y0122940D01*
X0009606Y0122987D01*
X0009753Y0123030D01*
X0009901Y0123069D01*
X0010050Y0123105D01*
X0010200Y0123136D01*
X0010351Y0123164D01*
X0010502Y0123188D01*
X0010655Y0123208D01*
X0010807Y0123224D01*
X0010960Y0123236D01*
X0011113Y0123244D01*
X0011266Y0123248D01*
X0011420Y0123248D01*
X0011573Y0123244D01*
X0011726Y0123236D01*
X0011879Y0123224D01*
X0012031Y0123208D01*
X0012184Y0123188D01*
X0012335Y0123164D01*
X0012486Y0123136D01*
X0012636Y0123105D01*
X0012785Y0123069D01*
X0012933Y0123030D01*
X0013080Y0122987D01*
X0013226Y0122940D01*
X0013371Y0122889D01*
X0013514Y0122834D01*
X0013656Y0122776D01*
X0013796Y0122714D01*
X0013935Y0122649D01*
X0014072Y0122580D01*
X0014207Y0122507D01*
X0014340Y0122431D01*
X0014471Y0122351D01*
X0014600Y0122269D01*
X0014727Y0122182D01*
X0014852Y0122093D01*
X0014974Y0122000D01*
X0015093Y0121904D01*
X0015211Y0121805D01*
X0015325Y0121704D01*
X0015437Y0121599D01*
X0015546Y0121491D01*
X0015652Y0121380D01*
X0015756Y0121267D01*
X0015856Y0121151D01*
X0015954Y0121033D01*
X0016048Y0120912D01*
X0016139Y0120789D01*
X0016227Y0120663D01*
X0016311Y0120535D01*
X0016393Y0120405D01*
X0016470Y0120273D01*
X0016545Y0120139D01*
X0016616Y0120003D01*
X0016683Y0119865D01*
X0016747Y0119725D01*
X0016807Y0119584D01*
X0016863Y0119442D01*
X0016916Y0119298D01*
X0016965Y0119152D01*
X0017010Y0119006D01*
X0017051Y0118858D01*
X0017088Y0118710D01*
X0017122Y0118560D01*
X0017152Y0118409D01*
X0017177Y0118258D01*
X0017199Y0118107D01*
X0017217Y0117954D01*
X0017231Y0117802D01*
X0017241Y0117649D01*
X0017247Y0117495D01*
X0017249Y0117342D01*
X0017247Y0117189D01*
X0017241Y0117035D01*
X0017231Y0116882D01*
X0017217Y0116730D01*
X0017199Y0116577D01*
X0017177Y0116426D01*
X0017152Y0116275D01*
X0017122Y0116124D01*
X0017088Y0115974D01*
X0017051Y0115826D01*
X0017010Y0115678D01*
X0016965Y0115532D01*
X0016916Y0115386D01*
X0016863Y0115242D01*
X0016807Y0115100D01*
X0016747Y0114959D01*
X0016683Y0114819D01*
X0016616Y0114681D01*
X0016545Y0114545D01*
X0016470Y0114411D01*
X0016393Y0114279D01*
X0016311Y0114149D01*
X0016227Y0114021D01*
X0016139Y0113895D01*
X0016048Y0113772D01*
X0015954Y0113651D01*
X0015856Y0113533D01*
X0015756Y0113417D01*
X0015652Y0113304D01*
X0015546Y0113193D01*
X0015437Y0113085D01*
X0015325Y0112980D01*
X0015211Y0112879D01*
X0015093Y0112780D01*
X0014974Y0112684D01*
X0014852Y0112591D01*
X0014727Y0112502D01*
X0014600Y0112415D01*
X0014471Y0112333D01*
X0014340Y0112253D01*
X0014207Y0112177D01*
X0014072Y0112104D01*
X0013935Y0112035D01*
X0013796Y0111970D01*
X0013656Y0111908D01*
X0013514Y0111850D01*
X0013371Y0111795D01*
X0013226Y0111744D01*
X0013080Y0111697D01*
X0012933Y0111654D01*
X0012785Y0111615D01*
X0012636Y0111579D01*
X0012486Y0111548D01*
X0012335Y0111520D01*
X0012184Y0111496D01*
X0012031Y0111476D01*
X0011879Y0111460D01*
X0011726Y0111448D01*
X0011573Y0111440D01*
X0011420Y0111436D01*
X0011266Y0111436D01*
X0011113Y0111440D01*
X0010960Y0111448D01*
X0010807Y0111460D01*
X0010655Y0111476D01*
X0010502Y0111496D01*
X0010351Y0111520D01*
X0010200Y0111548D01*
X0010050Y0111579D01*
X0009901Y0111615D01*
X0009753Y0111654D01*
X0009606Y0111697D01*
X0009460Y0111744D01*
X0009315Y0111795D01*
X0009172Y0111850D01*
X0009030Y0111908D01*
X0008890Y0111970D01*
X0008751Y0112035D01*
X0008614Y0112104D01*
X0008479Y0112177D01*
X0008346Y0112253D01*
X0008215Y0112333D01*
X0008086Y0112415D01*
X0007959Y0112502D01*
X0007834Y0112591D01*
X0007712Y0112684D01*
X0007593Y0112780D01*
X0007475Y0112879D01*
X0007361Y0112980D01*
X0007249Y0113085D01*
X0007140Y0113193D01*
X0007034Y0113304D01*
X0006930Y0113417D01*
X0006830Y0113533D01*
X0006732Y0113651D01*
X0006638Y0113772D01*
X0006547Y0113895D01*
X0006459Y0114021D01*
X0006375Y0114149D01*
X0006293Y0114279D01*
X0006216Y0114411D01*
X0006141Y0114545D01*
X0006070Y0114681D01*
X0006003Y0114819D01*
X0005939Y0114959D01*
X0005879Y0115100D01*
X0005823Y0115242D01*
X0005770Y0115386D01*
X0005721Y0115532D01*
X0005676Y0115678D01*
X0005635Y0115826D01*
X0005598Y0115974D01*
X0005564Y0116124D01*
X0005534Y0116275D01*
X0005509Y0116426D01*
X0005487Y0116577D01*
X0005469Y0116730D01*
X0005455Y0116882D01*
X0005445Y0117035D01*
X0005439Y0117189D01*
X0005437Y0117342D01*
X0246145Y0081751D02*
X0246147Y0081904D01*
X0246153Y0082058D01*
X0246163Y0082211D01*
X0246177Y0082363D01*
X0246195Y0082516D01*
X0246217Y0082667D01*
X0246242Y0082818D01*
X0246272Y0082969D01*
X0246306Y0083119D01*
X0246343Y0083267D01*
X0246384Y0083415D01*
X0246429Y0083561D01*
X0246478Y0083707D01*
X0246531Y0083851D01*
X0246587Y0083993D01*
X0246647Y0084134D01*
X0246711Y0084274D01*
X0246778Y0084412D01*
X0246849Y0084548D01*
X0246924Y0084682D01*
X0247001Y0084814D01*
X0247083Y0084944D01*
X0247167Y0085072D01*
X0247255Y0085198D01*
X0247346Y0085321D01*
X0247440Y0085442D01*
X0247538Y0085560D01*
X0247638Y0085676D01*
X0247742Y0085789D01*
X0247848Y0085900D01*
X0247957Y0086008D01*
X0248069Y0086113D01*
X0248183Y0086214D01*
X0248301Y0086313D01*
X0248420Y0086409D01*
X0248542Y0086502D01*
X0248667Y0086591D01*
X0248794Y0086678D01*
X0248923Y0086760D01*
X0249054Y0086840D01*
X0249187Y0086916D01*
X0249322Y0086989D01*
X0249459Y0087058D01*
X0249598Y0087123D01*
X0249738Y0087185D01*
X0249880Y0087243D01*
X0250023Y0087298D01*
X0250168Y0087349D01*
X0250314Y0087396D01*
X0250461Y0087439D01*
X0250609Y0087478D01*
X0250758Y0087514D01*
X0250908Y0087545D01*
X0251059Y0087573D01*
X0251210Y0087597D01*
X0251363Y0087617D01*
X0251515Y0087633D01*
X0251668Y0087645D01*
X0251821Y0087653D01*
X0251974Y0087657D01*
X0252128Y0087657D01*
X0252281Y0087653D01*
X0252434Y0087645D01*
X0252587Y0087633D01*
X0252739Y0087617D01*
X0252892Y0087597D01*
X0253043Y0087573D01*
X0253194Y0087545D01*
X0253344Y0087514D01*
X0253493Y0087478D01*
X0253641Y0087439D01*
X0253788Y0087396D01*
X0253934Y0087349D01*
X0254079Y0087298D01*
X0254222Y0087243D01*
X0254364Y0087185D01*
X0254504Y0087123D01*
X0254643Y0087058D01*
X0254780Y0086989D01*
X0254915Y0086916D01*
X0255048Y0086840D01*
X0255179Y0086760D01*
X0255308Y0086678D01*
X0255435Y0086591D01*
X0255560Y0086502D01*
X0255682Y0086409D01*
X0255801Y0086313D01*
X0255919Y0086214D01*
X0256033Y0086113D01*
X0256145Y0086008D01*
X0256254Y0085900D01*
X0256360Y0085789D01*
X0256464Y0085676D01*
X0256564Y0085560D01*
X0256662Y0085442D01*
X0256756Y0085321D01*
X0256847Y0085198D01*
X0256935Y0085072D01*
X0257019Y0084944D01*
X0257101Y0084814D01*
X0257178Y0084682D01*
X0257253Y0084548D01*
X0257324Y0084412D01*
X0257391Y0084274D01*
X0257455Y0084134D01*
X0257515Y0083993D01*
X0257571Y0083851D01*
X0257624Y0083707D01*
X0257673Y0083561D01*
X0257718Y0083415D01*
X0257759Y0083267D01*
X0257796Y0083119D01*
X0257830Y0082969D01*
X0257860Y0082818D01*
X0257885Y0082667D01*
X0257907Y0082516D01*
X0257925Y0082363D01*
X0257939Y0082211D01*
X0257949Y0082058D01*
X0257955Y0081904D01*
X0257957Y0081751D01*
X0257955Y0081598D01*
X0257949Y0081444D01*
X0257939Y0081291D01*
X0257925Y0081139D01*
X0257907Y0080986D01*
X0257885Y0080835D01*
X0257860Y0080684D01*
X0257830Y0080533D01*
X0257796Y0080383D01*
X0257759Y0080235D01*
X0257718Y0080087D01*
X0257673Y0079941D01*
X0257624Y0079795D01*
X0257571Y0079651D01*
X0257515Y0079509D01*
X0257455Y0079368D01*
X0257391Y0079228D01*
X0257324Y0079090D01*
X0257253Y0078954D01*
X0257178Y0078820D01*
X0257101Y0078688D01*
X0257019Y0078558D01*
X0256935Y0078430D01*
X0256847Y0078304D01*
X0256756Y0078181D01*
X0256662Y0078060D01*
X0256564Y0077942D01*
X0256464Y0077826D01*
X0256360Y0077713D01*
X0256254Y0077602D01*
X0256145Y0077494D01*
X0256033Y0077389D01*
X0255919Y0077288D01*
X0255801Y0077189D01*
X0255682Y0077093D01*
X0255560Y0077000D01*
X0255435Y0076911D01*
X0255308Y0076824D01*
X0255179Y0076742D01*
X0255048Y0076662D01*
X0254915Y0076586D01*
X0254780Y0076513D01*
X0254643Y0076444D01*
X0254504Y0076379D01*
X0254364Y0076317D01*
X0254222Y0076259D01*
X0254079Y0076204D01*
X0253934Y0076153D01*
X0253788Y0076106D01*
X0253641Y0076063D01*
X0253493Y0076024D01*
X0253344Y0075988D01*
X0253194Y0075957D01*
X0253043Y0075929D01*
X0252892Y0075905D01*
X0252739Y0075885D01*
X0252587Y0075869D01*
X0252434Y0075857D01*
X0252281Y0075849D01*
X0252128Y0075845D01*
X0251974Y0075845D01*
X0251821Y0075849D01*
X0251668Y0075857D01*
X0251515Y0075869D01*
X0251363Y0075885D01*
X0251210Y0075905D01*
X0251059Y0075929D01*
X0250908Y0075957D01*
X0250758Y0075988D01*
X0250609Y0076024D01*
X0250461Y0076063D01*
X0250314Y0076106D01*
X0250168Y0076153D01*
X0250023Y0076204D01*
X0249880Y0076259D01*
X0249738Y0076317D01*
X0249598Y0076379D01*
X0249459Y0076444D01*
X0249322Y0076513D01*
X0249187Y0076586D01*
X0249054Y0076662D01*
X0248923Y0076742D01*
X0248794Y0076824D01*
X0248667Y0076911D01*
X0248542Y0077000D01*
X0248420Y0077093D01*
X0248301Y0077189D01*
X0248183Y0077288D01*
X0248069Y0077389D01*
X0247957Y0077494D01*
X0247848Y0077602D01*
X0247742Y0077713D01*
X0247638Y0077826D01*
X0247538Y0077942D01*
X0247440Y0078060D01*
X0247346Y0078181D01*
X0247255Y0078304D01*
X0247167Y0078430D01*
X0247083Y0078558D01*
X0247001Y0078688D01*
X0246924Y0078820D01*
X0246849Y0078954D01*
X0246778Y0079090D01*
X0246711Y0079228D01*
X0246647Y0079368D01*
X0246587Y0079509D01*
X0246531Y0079651D01*
X0246478Y0079795D01*
X0246429Y0079941D01*
X0246384Y0080087D01*
X0246343Y0080235D01*
X0246306Y0080383D01*
X0246272Y0080533D01*
X0246242Y0080684D01*
X0246217Y0080835D01*
X0246195Y0080986D01*
X0246177Y0081139D01*
X0246163Y0081291D01*
X0246153Y0081444D01*
X0246147Y0081598D01*
X0246145Y0081751D01*
D11*
X0001500Y0001200D02*
X0001500Y0166554D01*
X0001500Y0166712D01*
D12*
X0001500Y0001200D02*
X0261343Y0001200D01*
X0261343Y0166554D01*
X0001500Y0166554D01*
X0233390Y0164980D02*
X0233390Y0156318D01*
X0238902Y0156318D01*
X0238902Y0164980D01*
X0233390Y0164980D01*
X0233390Y0153956D02*
X0238902Y0153956D01*
X0238902Y0135452D01*
X0233390Y0135452D01*
X0233390Y0153956D01*
X0233390Y0133090D02*
X0238902Y0133090D01*
X0238902Y0114586D01*
X0233390Y0114586D01*
X0233390Y0133090D01*
X0233390Y0112224D02*
X0238902Y0112224D01*
X0238902Y0097657D01*
X0233390Y0097657D01*
X0233390Y0112224D01*
X0233390Y0094901D02*
X0245988Y0094901D01*
X0245988Y0090176D01*
X0233390Y0090176D01*
X0233390Y0094901D01*
X0248350Y0094901D02*
X0248350Y0090176D01*
X0259768Y0090176D01*
X0259768Y0094901D01*
X0248350Y0094901D01*
M02*
