G75*
%MOIN*%
%OFA0B0*%
%FSLAX25Y25*%
%IPPOS*%
%LPD*%
%AMOC8*
5,1,8,0,0,1.08239X$1,22.5*
%
%ADD10OC8,0.06300*%
%ADD11C,0.06600*%
%ADD12R,0.06496X0.06496*%
%ADD13C,0.06496*%
%ADD14R,0.05937X0.05937*%
%ADD15R,0.12661X0.12661*%
%ADD16C,0.06000*%
%ADD17OC8,0.07000*%
%ADD18OC8,0.05600*%
%ADD19C,0.05600*%
%ADD20C,0.00600*%
%ADD21C,0.01000*%
%ADD22C,0.01200*%
%ADD23C,0.02978*%
D10*
X0185988Y0124153D03*
X0195988Y0124153D03*
X0217248Y0124153D03*
X0227248Y0124153D03*
D11*
X0216539Y0144632D02*
X0216539Y0151232D01*
X0206539Y0151232D02*
X0206539Y0144632D01*
X0196539Y0144632D02*
X0196539Y0151232D01*
D12*
X0146264Y0150413D03*
X0205594Y0091948D03*
X0068390Y0130964D03*
X0028823Y0130846D03*
D13*
X0028823Y0140846D03*
X0048390Y0140964D03*
X0058390Y0140964D03*
X0068390Y0140964D03*
X0058390Y0130964D03*
X0048390Y0130964D03*
X0116264Y0150413D03*
X0126264Y0150413D03*
X0136264Y0150413D03*
X0195594Y0091948D03*
D14*
X0141579Y0081909D03*
X0121894Y0081909D03*
X0121894Y0138995D03*
X0131736Y0138995D03*
X0141579Y0138995D03*
D15*
X0155752Y0109468D03*
X0107720Y0109468D03*
D16*
X0059531Y0083247D03*
X0049531Y0083247D03*
X0039531Y0083247D03*
X0029531Y0083247D03*
X0019531Y0083247D03*
X0019531Y0073247D03*
X0029531Y0073247D03*
X0039531Y0073247D03*
X0049531Y0073247D03*
X0059531Y0073247D03*
D17*
X0063019Y0021869D03*
X0073644Y0021869D03*
X0031769Y0021869D03*
D18*
X0141469Y0012058D03*
X0220807Y0012082D03*
D19*
X0220807Y0022082D03*
X0220807Y0032082D03*
X0200807Y0032082D03*
X0200807Y0022082D03*
X0200807Y0012082D03*
X0141469Y0022058D03*
X0141469Y0032058D03*
X0121469Y0032058D03*
X0121469Y0022058D03*
X0121469Y0012058D03*
D20*
X0063969Y0021869D02*
X0063673Y0021869D01*
X0030240Y0021869D02*
X0030209Y0021869D01*
X0019531Y0073247D02*
X0019531Y0083247D01*
D21*
X0020201Y0021869D02*
X0030240Y0021869D01*
X0032394Y0021869D01*
X0020201Y0021869D02*
X0008587Y0033483D01*
X0008587Y0097657D01*
X0028823Y0117893D01*
X0028823Y0130846D01*
X0028823Y0140846D02*
X0033114Y0140846D01*
X0038114Y0135846D01*
X0038114Y0122460D01*
X0011736Y0096082D01*
X0011736Y0057893D01*
X0016067Y0053562D01*
X0046382Y0053562D01*
X0063969Y0037550D01*
X0063969Y0021869D01*
X0089689Y0043720D02*
X0105437Y0043720D01*
X0106224Y0035846D02*
X0114098Y0043720D01*
X0158980Y0043720D01*
X0180240Y0022460D01*
X0200429Y0022460D01*
X0200807Y0022082D01*
X0200807Y0032082D02*
X0165547Y0067342D01*
X0098350Y0067342D01*
X0098350Y0074428D02*
X0202287Y0074428D01*
X0236933Y0039783D01*
X0236933Y0019310D01*
X0229705Y0012082D01*
X0220807Y0012082D01*
X0220807Y0032082D02*
X0220807Y0042523D01*
X0205437Y0057893D01*
X0184965Y0031121D02*
X0162130Y0053956D01*
X0092051Y0053956D01*
X0078665Y0067342D01*
X0078665Y0133483D01*
X0071185Y0140964D01*
X0068390Y0140964D01*
X0058390Y0140964D02*
X0058390Y0149428D01*
X0062917Y0153956D01*
X0078665Y0153956D01*
X0087327Y0145294D01*
X0087327Y0069704D01*
X0098350Y0058680D01*
X0090870Y0049231D02*
X0072760Y0067342D01*
X0072760Y0096476D01*
X0058390Y0110846D01*
X0058390Y0130964D01*
X0048390Y0130964D02*
X0048390Y0113365D01*
X0066854Y0094901D01*
X0066854Y0066554D01*
X0089689Y0043720D01*
X0090870Y0049231D02*
X0132209Y0049231D01*
X0106224Y0035846D02*
X0106224Y0020098D01*
X0114264Y0012058D01*
X0121469Y0012058D01*
X0140870Y0081909D02*
X0141579Y0081909D01*
X0140870Y0081909D02*
X0132996Y0089783D01*
X0101106Y0089783D01*
X0095594Y0095294D01*
X0095594Y0147263D01*
X0107012Y0158680D01*
X0117996Y0158680D01*
X0126264Y0150413D01*
X0136264Y0150413D02*
X0137327Y0149350D01*
X0137327Y0144113D01*
X0141579Y0139861D01*
X0141579Y0138995D01*
X0151894Y0129153D02*
X0124728Y0129153D01*
X0121579Y0132302D01*
X0121579Y0138680D01*
X0121894Y0138995D01*
X0146264Y0150413D02*
X0153862Y0150413D01*
X0156224Y0148050D01*
X0156224Y0133483D01*
X0151894Y0129153D01*
D22*
X0028823Y0130846D02*
X0028665Y0130688D01*
D23*
X0098350Y0074428D03*
X0098350Y0067342D03*
X0098350Y0058680D03*
X0105437Y0043720D03*
X0132209Y0049231D03*
X0184965Y0031121D03*
X0205437Y0057893D03*
M02*
