%
M48
M72
T01C0.01378
T02C0.03100
T03C0.03200
T04C0.03937
T05C0.04000
T06C0.04331
T07C0.04400
T08C0.08661
T09C0.09843
T10C0.11811
%
T01
X98350Y58680
X98350Y67342
X98350Y74428
X132209Y49231
X105437Y43720
X184965Y31121
X205437Y57893
T02
X200807Y32082
X200807Y22082
X200807Y12082
X220807Y12082
X220807Y22082
X220807Y32082
X141469Y32058
X141469Y22058
X141469Y12058
X121469Y12058
X121469Y22058
X121469Y32058
T03
X185988Y124153
X195988Y124153
X217248Y124153
X227248Y124153
T04
X141579Y138995
X131736Y138995
X121894Y138995
X121894Y81909
X141579Y81909
T05
X31769Y21869
X63019Y21869
X73644Y21869
X59531Y73247
X49531Y73247
X39531Y73247
X29531Y73247
X19531Y73247
X19531Y83247
X29531Y83247
X39531Y83247
X49531Y83247
X59531Y83247
T06
X58390Y130964
X68390Y130964
X68390Y140964
X58390Y140964
X48390Y140964
X48390Y130964
X28823Y130846
X28823Y140846
X116264Y150413
X126264Y150413
X136264Y150413
X146264Y150413
X195594Y91948
X205594Y91948
T07
X206539Y147932
X196539Y147932
X216539Y147932
T08
X155752Y109468
X107720Y109468
T09
X49894Y21869
T10
X11343Y117342
X252051Y81751
M30
