G75*
%MOIN*%
%OFA0B0*%
%FSLAX25Y25*%
%IPPOS*%
%LPD*%
%AMOC8*
5,1,8,0,0,1.08239X$1,22.5*
%
%ADD10C,0.00400*%
%ADD11C,0.00000*%
D10*
X0001200Y0001591D02*
X0001200Y0507496D01*
X0279940Y0507496D01*
X0279940Y0001591D01*
X0001200Y0001591D01*
X0040089Y0278331D02*
X0243122Y0278331D01*
X0243122Y0278331D01*
X0243122Y0433142D01*
X0040089Y0433142D01*
X0040089Y0278331D01*
D11*
X0040089Y0433142D01*
X0243122Y0433142D01*
X0243122Y0278331D01*
X0040089Y0278331D01*
X0047460Y0229425D02*
X0047464Y0229773D01*
X0047477Y0230120D01*
X0047498Y0230468D01*
X0047528Y0230814D01*
X0047567Y0231160D01*
X0047613Y0231505D01*
X0047669Y0231848D01*
X0047732Y0232190D01*
X0047804Y0232530D01*
X0047885Y0232869D01*
X0047973Y0233205D01*
X0048070Y0233539D01*
X0048175Y0233871D01*
X0048288Y0234200D01*
X0048410Y0234526D01*
X0048539Y0234849D01*
X0048676Y0235168D01*
X0048821Y0235485D01*
X0048973Y0235797D01*
X0049134Y0236106D01*
X0049301Y0236411D01*
X0049476Y0236711D01*
X0049659Y0237008D01*
X0049849Y0237299D01*
X0050045Y0237586D01*
X0050249Y0237868D01*
X0050460Y0238145D01*
X0050677Y0238416D01*
X0050901Y0238682D01*
X0051131Y0238943D01*
X0051368Y0239198D01*
X0051611Y0239447D01*
X0051860Y0239690D01*
X0052115Y0239927D01*
X0052376Y0240157D01*
X0052642Y0240381D01*
X0052913Y0240598D01*
X0053190Y0240809D01*
X0053472Y0241013D01*
X0053759Y0241209D01*
X0054050Y0241399D01*
X0054347Y0241582D01*
X0054647Y0241757D01*
X0054952Y0241924D01*
X0055261Y0242085D01*
X0055573Y0242237D01*
X0055890Y0242382D01*
X0056209Y0242519D01*
X0056532Y0242648D01*
X0056858Y0242770D01*
X0057187Y0242883D01*
X0057519Y0242988D01*
X0057853Y0243085D01*
X0058189Y0243173D01*
X0058528Y0243254D01*
X0058868Y0243326D01*
X0059210Y0243389D01*
X0059553Y0243445D01*
X0059898Y0243491D01*
X0060244Y0243530D01*
X0060590Y0243560D01*
X0060938Y0243581D01*
X0061285Y0243594D01*
X0061633Y0243598D01*
X0061981Y0243594D01*
X0062328Y0243581D01*
X0062676Y0243560D01*
X0063022Y0243530D01*
X0063368Y0243491D01*
X0063713Y0243445D01*
X0064056Y0243389D01*
X0064398Y0243326D01*
X0064738Y0243254D01*
X0065077Y0243173D01*
X0065413Y0243085D01*
X0065747Y0242988D01*
X0066079Y0242883D01*
X0066408Y0242770D01*
X0066734Y0242648D01*
X0067057Y0242519D01*
X0067376Y0242382D01*
X0067693Y0242237D01*
X0068005Y0242085D01*
X0068314Y0241924D01*
X0068619Y0241757D01*
X0068919Y0241582D01*
X0069216Y0241399D01*
X0069507Y0241209D01*
X0069794Y0241013D01*
X0070076Y0240809D01*
X0070353Y0240598D01*
X0070624Y0240381D01*
X0070890Y0240157D01*
X0071151Y0239927D01*
X0071406Y0239690D01*
X0071655Y0239447D01*
X0071898Y0239198D01*
X0072135Y0238943D01*
X0072365Y0238682D01*
X0072589Y0238416D01*
X0072806Y0238145D01*
X0073017Y0237868D01*
X0073221Y0237586D01*
X0073417Y0237299D01*
X0073607Y0237008D01*
X0073790Y0236711D01*
X0073965Y0236411D01*
X0074132Y0236106D01*
X0074293Y0235797D01*
X0074445Y0235485D01*
X0074590Y0235168D01*
X0074727Y0234849D01*
X0074856Y0234526D01*
X0074978Y0234200D01*
X0075091Y0233871D01*
X0075196Y0233539D01*
X0075293Y0233205D01*
X0075381Y0232869D01*
X0075462Y0232530D01*
X0075534Y0232190D01*
X0075597Y0231848D01*
X0075653Y0231505D01*
X0075699Y0231160D01*
X0075738Y0230814D01*
X0075768Y0230468D01*
X0075789Y0230120D01*
X0075802Y0229773D01*
X0075806Y0229425D01*
X0075802Y0229077D01*
X0075789Y0228730D01*
X0075768Y0228382D01*
X0075738Y0228036D01*
X0075699Y0227690D01*
X0075653Y0227345D01*
X0075597Y0227002D01*
X0075534Y0226660D01*
X0075462Y0226320D01*
X0075381Y0225981D01*
X0075293Y0225645D01*
X0075196Y0225311D01*
X0075091Y0224979D01*
X0074978Y0224650D01*
X0074856Y0224324D01*
X0074727Y0224001D01*
X0074590Y0223682D01*
X0074445Y0223365D01*
X0074293Y0223053D01*
X0074132Y0222744D01*
X0073965Y0222439D01*
X0073790Y0222139D01*
X0073607Y0221842D01*
X0073417Y0221551D01*
X0073221Y0221264D01*
X0073017Y0220982D01*
X0072806Y0220705D01*
X0072589Y0220434D01*
X0072365Y0220168D01*
X0072135Y0219907D01*
X0071898Y0219652D01*
X0071655Y0219403D01*
X0071406Y0219160D01*
X0071151Y0218923D01*
X0070890Y0218693D01*
X0070624Y0218469D01*
X0070353Y0218252D01*
X0070076Y0218041D01*
X0069794Y0217837D01*
X0069507Y0217641D01*
X0069216Y0217451D01*
X0068919Y0217268D01*
X0068619Y0217093D01*
X0068314Y0216926D01*
X0068005Y0216765D01*
X0067693Y0216613D01*
X0067376Y0216468D01*
X0067057Y0216331D01*
X0066734Y0216202D01*
X0066408Y0216080D01*
X0066079Y0215967D01*
X0065747Y0215862D01*
X0065413Y0215765D01*
X0065077Y0215677D01*
X0064738Y0215596D01*
X0064398Y0215524D01*
X0064056Y0215461D01*
X0063713Y0215405D01*
X0063368Y0215359D01*
X0063022Y0215320D01*
X0062676Y0215290D01*
X0062328Y0215269D01*
X0061981Y0215256D01*
X0061633Y0215252D01*
X0061285Y0215256D01*
X0060938Y0215269D01*
X0060590Y0215290D01*
X0060244Y0215320D01*
X0059898Y0215359D01*
X0059553Y0215405D01*
X0059210Y0215461D01*
X0058868Y0215524D01*
X0058528Y0215596D01*
X0058189Y0215677D01*
X0057853Y0215765D01*
X0057519Y0215862D01*
X0057187Y0215967D01*
X0056858Y0216080D01*
X0056532Y0216202D01*
X0056209Y0216331D01*
X0055890Y0216468D01*
X0055573Y0216613D01*
X0055261Y0216765D01*
X0054952Y0216926D01*
X0054647Y0217093D01*
X0054347Y0217268D01*
X0054050Y0217451D01*
X0053759Y0217641D01*
X0053472Y0217837D01*
X0053190Y0218041D01*
X0052913Y0218252D01*
X0052642Y0218469D01*
X0052376Y0218693D01*
X0052115Y0218923D01*
X0051860Y0219160D01*
X0051611Y0219403D01*
X0051368Y0219652D01*
X0051131Y0219907D01*
X0050901Y0220168D01*
X0050677Y0220434D01*
X0050460Y0220705D01*
X0050249Y0220982D01*
X0050045Y0221264D01*
X0049849Y0221551D01*
X0049659Y0221842D01*
X0049476Y0222139D01*
X0049301Y0222439D01*
X0049134Y0222744D01*
X0048973Y0223053D01*
X0048821Y0223365D01*
X0048676Y0223682D01*
X0048539Y0224001D01*
X0048410Y0224324D01*
X0048288Y0224650D01*
X0048175Y0224979D01*
X0048070Y0225311D01*
X0047973Y0225645D01*
X0047885Y0225981D01*
X0047804Y0226320D01*
X0047732Y0226660D01*
X0047669Y0227002D01*
X0047613Y0227345D01*
X0047567Y0227690D01*
X0047528Y0228036D01*
X0047498Y0228382D01*
X0047477Y0228730D01*
X0047464Y0229077D01*
X0047460Y0229425D01*
X0100629Y0229445D02*
X0100633Y0229793D01*
X0100646Y0230140D01*
X0100667Y0230488D01*
X0100697Y0230834D01*
X0100736Y0231180D01*
X0100782Y0231525D01*
X0100838Y0231868D01*
X0100901Y0232210D01*
X0100973Y0232550D01*
X0101054Y0232889D01*
X0101142Y0233225D01*
X0101239Y0233559D01*
X0101344Y0233891D01*
X0101457Y0234220D01*
X0101579Y0234546D01*
X0101708Y0234869D01*
X0101845Y0235188D01*
X0101990Y0235505D01*
X0102142Y0235817D01*
X0102303Y0236126D01*
X0102470Y0236431D01*
X0102645Y0236731D01*
X0102828Y0237028D01*
X0103018Y0237319D01*
X0103214Y0237606D01*
X0103418Y0237888D01*
X0103629Y0238165D01*
X0103846Y0238436D01*
X0104070Y0238702D01*
X0104300Y0238963D01*
X0104537Y0239218D01*
X0104780Y0239467D01*
X0105029Y0239710D01*
X0105284Y0239947D01*
X0105545Y0240177D01*
X0105811Y0240401D01*
X0106082Y0240618D01*
X0106359Y0240829D01*
X0106641Y0241033D01*
X0106928Y0241229D01*
X0107219Y0241419D01*
X0107516Y0241602D01*
X0107816Y0241777D01*
X0108121Y0241944D01*
X0108430Y0242105D01*
X0108742Y0242257D01*
X0109059Y0242402D01*
X0109378Y0242539D01*
X0109701Y0242668D01*
X0110027Y0242790D01*
X0110356Y0242903D01*
X0110688Y0243008D01*
X0111022Y0243105D01*
X0111358Y0243193D01*
X0111697Y0243274D01*
X0112037Y0243346D01*
X0112379Y0243409D01*
X0112722Y0243465D01*
X0113067Y0243511D01*
X0113413Y0243550D01*
X0113759Y0243580D01*
X0114107Y0243601D01*
X0114454Y0243614D01*
X0114802Y0243618D01*
X0115150Y0243614D01*
X0115497Y0243601D01*
X0115845Y0243580D01*
X0116191Y0243550D01*
X0116537Y0243511D01*
X0116882Y0243465D01*
X0117225Y0243409D01*
X0117567Y0243346D01*
X0117907Y0243274D01*
X0118246Y0243193D01*
X0118582Y0243105D01*
X0118916Y0243008D01*
X0119248Y0242903D01*
X0119577Y0242790D01*
X0119903Y0242668D01*
X0120226Y0242539D01*
X0120545Y0242402D01*
X0120862Y0242257D01*
X0121174Y0242105D01*
X0121483Y0241944D01*
X0121788Y0241777D01*
X0122088Y0241602D01*
X0122385Y0241419D01*
X0122676Y0241229D01*
X0122963Y0241033D01*
X0123245Y0240829D01*
X0123522Y0240618D01*
X0123793Y0240401D01*
X0124059Y0240177D01*
X0124320Y0239947D01*
X0124575Y0239710D01*
X0124824Y0239467D01*
X0125067Y0239218D01*
X0125304Y0238963D01*
X0125534Y0238702D01*
X0125758Y0238436D01*
X0125975Y0238165D01*
X0126186Y0237888D01*
X0126390Y0237606D01*
X0126586Y0237319D01*
X0126776Y0237028D01*
X0126959Y0236731D01*
X0127134Y0236431D01*
X0127301Y0236126D01*
X0127462Y0235817D01*
X0127614Y0235505D01*
X0127759Y0235188D01*
X0127896Y0234869D01*
X0128025Y0234546D01*
X0128147Y0234220D01*
X0128260Y0233891D01*
X0128365Y0233559D01*
X0128462Y0233225D01*
X0128550Y0232889D01*
X0128631Y0232550D01*
X0128703Y0232210D01*
X0128766Y0231868D01*
X0128822Y0231525D01*
X0128868Y0231180D01*
X0128907Y0230834D01*
X0128937Y0230488D01*
X0128958Y0230140D01*
X0128971Y0229793D01*
X0128975Y0229445D01*
X0128971Y0229097D01*
X0128958Y0228750D01*
X0128937Y0228402D01*
X0128907Y0228056D01*
X0128868Y0227710D01*
X0128822Y0227365D01*
X0128766Y0227022D01*
X0128703Y0226680D01*
X0128631Y0226340D01*
X0128550Y0226001D01*
X0128462Y0225665D01*
X0128365Y0225331D01*
X0128260Y0224999D01*
X0128147Y0224670D01*
X0128025Y0224344D01*
X0127896Y0224021D01*
X0127759Y0223702D01*
X0127614Y0223385D01*
X0127462Y0223073D01*
X0127301Y0222764D01*
X0127134Y0222459D01*
X0126959Y0222159D01*
X0126776Y0221862D01*
X0126586Y0221571D01*
X0126390Y0221284D01*
X0126186Y0221002D01*
X0125975Y0220725D01*
X0125758Y0220454D01*
X0125534Y0220188D01*
X0125304Y0219927D01*
X0125067Y0219672D01*
X0124824Y0219423D01*
X0124575Y0219180D01*
X0124320Y0218943D01*
X0124059Y0218713D01*
X0123793Y0218489D01*
X0123522Y0218272D01*
X0123245Y0218061D01*
X0122963Y0217857D01*
X0122676Y0217661D01*
X0122385Y0217471D01*
X0122088Y0217288D01*
X0121788Y0217113D01*
X0121483Y0216946D01*
X0121174Y0216785D01*
X0120862Y0216633D01*
X0120545Y0216488D01*
X0120226Y0216351D01*
X0119903Y0216222D01*
X0119577Y0216100D01*
X0119248Y0215987D01*
X0118916Y0215882D01*
X0118582Y0215785D01*
X0118246Y0215697D01*
X0117907Y0215616D01*
X0117567Y0215544D01*
X0117225Y0215481D01*
X0116882Y0215425D01*
X0116537Y0215379D01*
X0116191Y0215340D01*
X0115845Y0215310D01*
X0115497Y0215289D01*
X0115150Y0215276D01*
X0114802Y0215272D01*
X0114454Y0215276D01*
X0114107Y0215289D01*
X0113759Y0215310D01*
X0113413Y0215340D01*
X0113067Y0215379D01*
X0112722Y0215425D01*
X0112379Y0215481D01*
X0112037Y0215544D01*
X0111697Y0215616D01*
X0111358Y0215697D01*
X0111022Y0215785D01*
X0110688Y0215882D01*
X0110356Y0215987D01*
X0110027Y0216100D01*
X0109701Y0216222D01*
X0109378Y0216351D01*
X0109059Y0216488D01*
X0108742Y0216633D01*
X0108430Y0216785D01*
X0108121Y0216946D01*
X0107816Y0217113D01*
X0107516Y0217288D01*
X0107219Y0217471D01*
X0106928Y0217661D01*
X0106641Y0217857D01*
X0106359Y0218061D01*
X0106082Y0218272D01*
X0105811Y0218489D01*
X0105545Y0218713D01*
X0105284Y0218943D01*
X0105029Y0219180D01*
X0104780Y0219423D01*
X0104537Y0219672D01*
X0104300Y0219927D01*
X0104070Y0220188D01*
X0103846Y0220454D01*
X0103629Y0220725D01*
X0103418Y0221002D01*
X0103214Y0221284D01*
X0103018Y0221571D01*
X0102828Y0221862D01*
X0102645Y0222159D01*
X0102470Y0222459D01*
X0102303Y0222764D01*
X0102142Y0223073D01*
X0101990Y0223385D01*
X0101845Y0223702D01*
X0101708Y0224021D01*
X0101579Y0224344D01*
X0101457Y0224670D01*
X0101344Y0224999D01*
X0101239Y0225331D01*
X0101142Y0225665D01*
X0101054Y0226001D01*
X0100973Y0226340D01*
X0100901Y0226680D01*
X0100838Y0227022D01*
X0100782Y0227365D01*
X0100736Y0227710D01*
X0100697Y0228056D01*
X0100667Y0228402D01*
X0100646Y0228750D01*
X0100633Y0229097D01*
X0100629Y0229445D01*
X0126062Y0147811D02*
X0126067Y0148197D01*
X0126081Y0148584D01*
X0126105Y0148969D01*
X0126138Y0149355D01*
X0126180Y0149739D01*
X0126232Y0150122D01*
X0126294Y0150503D01*
X0126365Y0150883D01*
X0126445Y0151261D01*
X0126534Y0151637D01*
X0126632Y0152011D01*
X0126740Y0152382D01*
X0126857Y0152751D01*
X0126983Y0153116D01*
X0127117Y0153479D01*
X0127261Y0153837D01*
X0127413Y0154193D01*
X0127574Y0154544D01*
X0127744Y0154891D01*
X0127922Y0155235D01*
X0128108Y0155573D01*
X0128302Y0155907D01*
X0128505Y0156236D01*
X0128716Y0156560D01*
X0128935Y0156879D01*
X0129161Y0157192D01*
X0129395Y0157500D01*
X0129637Y0157801D01*
X0129885Y0158097D01*
X0130142Y0158387D01*
X0130405Y0158670D01*
X0130674Y0158947D01*
X0130951Y0159216D01*
X0131234Y0159479D01*
X0131524Y0159736D01*
X0131820Y0159984D01*
X0132121Y0160226D01*
X0132429Y0160460D01*
X0132742Y0160686D01*
X0133061Y0160905D01*
X0133385Y0161116D01*
X0133714Y0161319D01*
X0134048Y0161513D01*
X0134386Y0161699D01*
X0134730Y0161877D01*
X0135077Y0162047D01*
X0135428Y0162208D01*
X0135784Y0162360D01*
X0136142Y0162504D01*
X0136505Y0162638D01*
X0136870Y0162764D01*
X0137239Y0162881D01*
X0137610Y0162989D01*
X0137984Y0163087D01*
X0138360Y0163176D01*
X0138738Y0163256D01*
X0139118Y0163327D01*
X0139499Y0163389D01*
X0139882Y0163441D01*
X0140266Y0163483D01*
X0140652Y0163516D01*
X0141037Y0163540D01*
X0141424Y0163554D01*
X0141810Y0163559D01*
X0142196Y0163554D01*
X0142583Y0163540D01*
X0142968Y0163516D01*
X0143354Y0163483D01*
X0143738Y0163441D01*
X0144121Y0163389D01*
X0144502Y0163327D01*
X0144882Y0163256D01*
X0145260Y0163176D01*
X0145636Y0163087D01*
X0146010Y0162989D01*
X0146381Y0162881D01*
X0146750Y0162764D01*
X0147115Y0162638D01*
X0147478Y0162504D01*
X0147836Y0162360D01*
X0148192Y0162208D01*
X0148543Y0162047D01*
X0148890Y0161877D01*
X0149234Y0161699D01*
X0149572Y0161513D01*
X0149906Y0161319D01*
X0150235Y0161116D01*
X0150559Y0160905D01*
X0150878Y0160686D01*
X0151191Y0160460D01*
X0151499Y0160226D01*
X0151800Y0159984D01*
X0152096Y0159736D01*
X0152386Y0159479D01*
X0152669Y0159216D01*
X0152946Y0158947D01*
X0153215Y0158670D01*
X0153478Y0158387D01*
X0153735Y0158097D01*
X0153983Y0157801D01*
X0154225Y0157500D01*
X0154459Y0157192D01*
X0154685Y0156879D01*
X0154904Y0156560D01*
X0155115Y0156236D01*
X0155318Y0155907D01*
X0155512Y0155573D01*
X0155698Y0155235D01*
X0155876Y0154891D01*
X0156046Y0154544D01*
X0156207Y0154193D01*
X0156359Y0153837D01*
X0156503Y0153479D01*
X0156637Y0153116D01*
X0156763Y0152751D01*
X0156880Y0152382D01*
X0156988Y0152011D01*
X0157086Y0151637D01*
X0157175Y0151261D01*
X0157255Y0150883D01*
X0157326Y0150503D01*
X0157388Y0150122D01*
X0157440Y0149739D01*
X0157482Y0149355D01*
X0157515Y0148969D01*
X0157539Y0148584D01*
X0157553Y0148197D01*
X0157558Y0147811D01*
X0157553Y0147425D01*
X0157539Y0147038D01*
X0157515Y0146653D01*
X0157482Y0146267D01*
X0157440Y0145883D01*
X0157388Y0145500D01*
X0157326Y0145119D01*
X0157255Y0144739D01*
X0157175Y0144361D01*
X0157086Y0143985D01*
X0156988Y0143611D01*
X0156880Y0143240D01*
X0156763Y0142871D01*
X0156637Y0142506D01*
X0156503Y0142143D01*
X0156359Y0141785D01*
X0156207Y0141429D01*
X0156046Y0141078D01*
X0155876Y0140731D01*
X0155698Y0140387D01*
X0155512Y0140049D01*
X0155318Y0139715D01*
X0155115Y0139386D01*
X0154904Y0139062D01*
X0154685Y0138743D01*
X0154459Y0138430D01*
X0154225Y0138122D01*
X0153983Y0137821D01*
X0153735Y0137525D01*
X0153478Y0137235D01*
X0153215Y0136952D01*
X0152946Y0136675D01*
X0152669Y0136406D01*
X0152386Y0136143D01*
X0152096Y0135886D01*
X0151800Y0135638D01*
X0151499Y0135396D01*
X0151191Y0135162D01*
X0150878Y0134936D01*
X0150559Y0134717D01*
X0150235Y0134506D01*
X0149906Y0134303D01*
X0149572Y0134109D01*
X0149234Y0133923D01*
X0148890Y0133745D01*
X0148543Y0133575D01*
X0148192Y0133414D01*
X0147836Y0133262D01*
X0147478Y0133118D01*
X0147115Y0132984D01*
X0146750Y0132858D01*
X0146381Y0132741D01*
X0146010Y0132633D01*
X0145636Y0132535D01*
X0145260Y0132446D01*
X0144882Y0132366D01*
X0144502Y0132295D01*
X0144121Y0132233D01*
X0143738Y0132181D01*
X0143354Y0132139D01*
X0142968Y0132106D01*
X0142583Y0132082D01*
X0142196Y0132068D01*
X0141810Y0132063D01*
X0141424Y0132068D01*
X0141037Y0132082D01*
X0140652Y0132106D01*
X0140266Y0132139D01*
X0139882Y0132181D01*
X0139499Y0132233D01*
X0139118Y0132295D01*
X0138738Y0132366D01*
X0138360Y0132446D01*
X0137984Y0132535D01*
X0137610Y0132633D01*
X0137239Y0132741D01*
X0136870Y0132858D01*
X0136505Y0132984D01*
X0136142Y0133118D01*
X0135784Y0133262D01*
X0135428Y0133414D01*
X0135077Y0133575D01*
X0134730Y0133745D01*
X0134386Y0133923D01*
X0134048Y0134109D01*
X0133714Y0134303D01*
X0133385Y0134506D01*
X0133061Y0134717D01*
X0132742Y0134936D01*
X0132429Y0135162D01*
X0132121Y0135396D01*
X0131820Y0135638D01*
X0131524Y0135886D01*
X0131234Y0136143D01*
X0130951Y0136406D01*
X0130674Y0136675D01*
X0130405Y0136952D01*
X0130142Y0137235D01*
X0129885Y0137525D01*
X0129637Y0137821D01*
X0129395Y0138122D01*
X0129161Y0138430D01*
X0128935Y0138743D01*
X0128716Y0139062D01*
X0128505Y0139386D01*
X0128302Y0139715D01*
X0128108Y0140049D01*
X0127922Y0140387D01*
X0127744Y0140731D01*
X0127574Y0141078D01*
X0127413Y0141429D01*
X0127261Y0141785D01*
X0127117Y0142143D01*
X0126983Y0142506D01*
X0126857Y0142871D01*
X0126740Y0143240D01*
X0126632Y0143611D01*
X0126534Y0143985D01*
X0126445Y0144361D01*
X0126365Y0144739D01*
X0126294Y0145119D01*
X0126232Y0145500D01*
X0126180Y0145883D01*
X0126138Y0146267D01*
X0126105Y0146653D01*
X0126081Y0147038D01*
X0126067Y0147425D01*
X0126062Y0147811D01*
X0153818Y0229425D02*
X0153822Y0229773D01*
X0153835Y0230120D01*
X0153856Y0230468D01*
X0153886Y0230814D01*
X0153925Y0231160D01*
X0153971Y0231505D01*
X0154027Y0231848D01*
X0154090Y0232190D01*
X0154162Y0232530D01*
X0154243Y0232869D01*
X0154331Y0233205D01*
X0154428Y0233539D01*
X0154533Y0233871D01*
X0154646Y0234200D01*
X0154768Y0234526D01*
X0154897Y0234849D01*
X0155034Y0235168D01*
X0155179Y0235485D01*
X0155331Y0235797D01*
X0155492Y0236106D01*
X0155659Y0236411D01*
X0155834Y0236711D01*
X0156017Y0237008D01*
X0156207Y0237299D01*
X0156403Y0237586D01*
X0156607Y0237868D01*
X0156818Y0238145D01*
X0157035Y0238416D01*
X0157259Y0238682D01*
X0157489Y0238943D01*
X0157726Y0239198D01*
X0157969Y0239447D01*
X0158218Y0239690D01*
X0158473Y0239927D01*
X0158734Y0240157D01*
X0159000Y0240381D01*
X0159271Y0240598D01*
X0159548Y0240809D01*
X0159830Y0241013D01*
X0160117Y0241209D01*
X0160408Y0241399D01*
X0160705Y0241582D01*
X0161005Y0241757D01*
X0161310Y0241924D01*
X0161619Y0242085D01*
X0161931Y0242237D01*
X0162248Y0242382D01*
X0162567Y0242519D01*
X0162890Y0242648D01*
X0163216Y0242770D01*
X0163545Y0242883D01*
X0163877Y0242988D01*
X0164211Y0243085D01*
X0164547Y0243173D01*
X0164886Y0243254D01*
X0165226Y0243326D01*
X0165568Y0243389D01*
X0165911Y0243445D01*
X0166256Y0243491D01*
X0166602Y0243530D01*
X0166948Y0243560D01*
X0167296Y0243581D01*
X0167643Y0243594D01*
X0167991Y0243598D01*
X0168339Y0243594D01*
X0168686Y0243581D01*
X0169034Y0243560D01*
X0169380Y0243530D01*
X0169726Y0243491D01*
X0170071Y0243445D01*
X0170414Y0243389D01*
X0170756Y0243326D01*
X0171096Y0243254D01*
X0171435Y0243173D01*
X0171771Y0243085D01*
X0172105Y0242988D01*
X0172437Y0242883D01*
X0172766Y0242770D01*
X0173092Y0242648D01*
X0173415Y0242519D01*
X0173734Y0242382D01*
X0174051Y0242237D01*
X0174363Y0242085D01*
X0174672Y0241924D01*
X0174977Y0241757D01*
X0175277Y0241582D01*
X0175574Y0241399D01*
X0175865Y0241209D01*
X0176152Y0241013D01*
X0176434Y0240809D01*
X0176711Y0240598D01*
X0176982Y0240381D01*
X0177248Y0240157D01*
X0177509Y0239927D01*
X0177764Y0239690D01*
X0178013Y0239447D01*
X0178256Y0239198D01*
X0178493Y0238943D01*
X0178723Y0238682D01*
X0178947Y0238416D01*
X0179164Y0238145D01*
X0179375Y0237868D01*
X0179579Y0237586D01*
X0179775Y0237299D01*
X0179965Y0237008D01*
X0180148Y0236711D01*
X0180323Y0236411D01*
X0180490Y0236106D01*
X0180651Y0235797D01*
X0180803Y0235485D01*
X0180948Y0235168D01*
X0181085Y0234849D01*
X0181214Y0234526D01*
X0181336Y0234200D01*
X0181449Y0233871D01*
X0181554Y0233539D01*
X0181651Y0233205D01*
X0181739Y0232869D01*
X0181820Y0232530D01*
X0181892Y0232190D01*
X0181955Y0231848D01*
X0182011Y0231505D01*
X0182057Y0231160D01*
X0182096Y0230814D01*
X0182126Y0230468D01*
X0182147Y0230120D01*
X0182160Y0229773D01*
X0182164Y0229425D01*
X0182160Y0229077D01*
X0182147Y0228730D01*
X0182126Y0228382D01*
X0182096Y0228036D01*
X0182057Y0227690D01*
X0182011Y0227345D01*
X0181955Y0227002D01*
X0181892Y0226660D01*
X0181820Y0226320D01*
X0181739Y0225981D01*
X0181651Y0225645D01*
X0181554Y0225311D01*
X0181449Y0224979D01*
X0181336Y0224650D01*
X0181214Y0224324D01*
X0181085Y0224001D01*
X0180948Y0223682D01*
X0180803Y0223365D01*
X0180651Y0223053D01*
X0180490Y0222744D01*
X0180323Y0222439D01*
X0180148Y0222139D01*
X0179965Y0221842D01*
X0179775Y0221551D01*
X0179579Y0221264D01*
X0179375Y0220982D01*
X0179164Y0220705D01*
X0178947Y0220434D01*
X0178723Y0220168D01*
X0178493Y0219907D01*
X0178256Y0219652D01*
X0178013Y0219403D01*
X0177764Y0219160D01*
X0177509Y0218923D01*
X0177248Y0218693D01*
X0176982Y0218469D01*
X0176711Y0218252D01*
X0176434Y0218041D01*
X0176152Y0217837D01*
X0175865Y0217641D01*
X0175574Y0217451D01*
X0175277Y0217268D01*
X0174977Y0217093D01*
X0174672Y0216926D01*
X0174363Y0216765D01*
X0174051Y0216613D01*
X0173734Y0216468D01*
X0173415Y0216331D01*
X0173092Y0216202D01*
X0172766Y0216080D01*
X0172437Y0215967D01*
X0172105Y0215862D01*
X0171771Y0215765D01*
X0171435Y0215677D01*
X0171096Y0215596D01*
X0170756Y0215524D01*
X0170414Y0215461D01*
X0170071Y0215405D01*
X0169726Y0215359D01*
X0169380Y0215320D01*
X0169034Y0215290D01*
X0168686Y0215269D01*
X0168339Y0215256D01*
X0167991Y0215252D01*
X0167643Y0215256D01*
X0167296Y0215269D01*
X0166948Y0215290D01*
X0166602Y0215320D01*
X0166256Y0215359D01*
X0165911Y0215405D01*
X0165568Y0215461D01*
X0165226Y0215524D01*
X0164886Y0215596D01*
X0164547Y0215677D01*
X0164211Y0215765D01*
X0163877Y0215862D01*
X0163545Y0215967D01*
X0163216Y0216080D01*
X0162890Y0216202D01*
X0162567Y0216331D01*
X0162248Y0216468D01*
X0161931Y0216613D01*
X0161619Y0216765D01*
X0161310Y0216926D01*
X0161005Y0217093D01*
X0160705Y0217268D01*
X0160408Y0217451D01*
X0160117Y0217641D01*
X0159830Y0217837D01*
X0159548Y0218041D01*
X0159271Y0218252D01*
X0159000Y0218469D01*
X0158734Y0218693D01*
X0158473Y0218923D01*
X0158218Y0219160D01*
X0157969Y0219403D01*
X0157726Y0219652D01*
X0157489Y0219907D01*
X0157259Y0220168D01*
X0157035Y0220434D01*
X0156818Y0220705D01*
X0156607Y0220982D01*
X0156403Y0221264D01*
X0156207Y0221551D01*
X0156017Y0221842D01*
X0155834Y0222139D01*
X0155659Y0222439D01*
X0155492Y0222744D01*
X0155331Y0223053D01*
X0155179Y0223365D01*
X0155034Y0223682D01*
X0154897Y0224001D01*
X0154768Y0224324D01*
X0154646Y0224650D01*
X0154533Y0224979D01*
X0154428Y0225311D01*
X0154331Y0225645D01*
X0154243Y0225981D01*
X0154162Y0226320D01*
X0154090Y0226660D01*
X0154027Y0227002D01*
X0153971Y0227345D01*
X0153925Y0227690D01*
X0153886Y0228036D01*
X0153856Y0228382D01*
X0153835Y0228730D01*
X0153822Y0229077D01*
X0153818Y0229425D01*
X0206830Y0229425D02*
X0206834Y0229773D01*
X0206847Y0230120D01*
X0206868Y0230468D01*
X0206898Y0230814D01*
X0206937Y0231160D01*
X0206983Y0231505D01*
X0207039Y0231848D01*
X0207102Y0232190D01*
X0207174Y0232530D01*
X0207255Y0232869D01*
X0207343Y0233205D01*
X0207440Y0233539D01*
X0207545Y0233871D01*
X0207658Y0234200D01*
X0207780Y0234526D01*
X0207909Y0234849D01*
X0208046Y0235168D01*
X0208191Y0235485D01*
X0208343Y0235797D01*
X0208504Y0236106D01*
X0208671Y0236411D01*
X0208846Y0236711D01*
X0209029Y0237008D01*
X0209219Y0237299D01*
X0209415Y0237586D01*
X0209619Y0237868D01*
X0209830Y0238145D01*
X0210047Y0238416D01*
X0210271Y0238682D01*
X0210501Y0238943D01*
X0210738Y0239198D01*
X0210981Y0239447D01*
X0211230Y0239690D01*
X0211485Y0239927D01*
X0211746Y0240157D01*
X0212012Y0240381D01*
X0212283Y0240598D01*
X0212560Y0240809D01*
X0212842Y0241013D01*
X0213129Y0241209D01*
X0213420Y0241399D01*
X0213717Y0241582D01*
X0214017Y0241757D01*
X0214322Y0241924D01*
X0214631Y0242085D01*
X0214943Y0242237D01*
X0215260Y0242382D01*
X0215579Y0242519D01*
X0215902Y0242648D01*
X0216228Y0242770D01*
X0216557Y0242883D01*
X0216889Y0242988D01*
X0217223Y0243085D01*
X0217559Y0243173D01*
X0217898Y0243254D01*
X0218238Y0243326D01*
X0218580Y0243389D01*
X0218923Y0243445D01*
X0219268Y0243491D01*
X0219614Y0243530D01*
X0219960Y0243560D01*
X0220308Y0243581D01*
X0220655Y0243594D01*
X0221003Y0243598D01*
X0221351Y0243594D01*
X0221698Y0243581D01*
X0222046Y0243560D01*
X0222392Y0243530D01*
X0222738Y0243491D01*
X0223083Y0243445D01*
X0223426Y0243389D01*
X0223768Y0243326D01*
X0224108Y0243254D01*
X0224447Y0243173D01*
X0224783Y0243085D01*
X0225117Y0242988D01*
X0225449Y0242883D01*
X0225778Y0242770D01*
X0226104Y0242648D01*
X0226427Y0242519D01*
X0226746Y0242382D01*
X0227063Y0242237D01*
X0227375Y0242085D01*
X0227684Y0241924D01*
X0227989Y0241757D01*
X0228289Y0241582D01*
X0228586Y0241399D01*
X0228877Y0241209D01*
X0229164Y0241013D01*
X0229446Y0240809D01*
X0229723Y0240598D01*
X0229994Y0240381D01*
X0230260Y0240157D01*
X0230521Y0239927D01*
X0230776Y0239690D01*
X0231025Y0239447D01*
X0231268Y0239198D01*
X0231505Y0238943D01*
X0231735Y0238682D01*
X0231959Y0238416D01*
X0232176Y0238145D01*
X0232387Y0237868D01*
X0232591Y0237586D01*
X0232787Y0237299D01*
X0232977Y0237008D01*
X0233160Y0236711D01*
X0233335Y0236411D01*
X0233502Y0236106D01*
X0233663Y0235797D01*
X0233815Y0235485D01*
X0233960Y0235168D01*
X0234097Y0234849D01*
X0234226Y0234526D01*
X0234348Y0234200D01*
X0234461Y0233871D01*
X0234566Y0233539D01*
X0234663Y0233205D01*
X0234751Y0232869D01*
X0234832Y0232530D01*
X0234904Y0232190D01*
X0234967Y0231848D01*
X0235023Y0231505D01*
X0235069Y0231160D01*
X0235108Y0230814D01*
X0235138Y0230468D01*
X0235159Y0230120D01*
X0235172Y0229773D01*
X0235176Y0229425D01*
X0235172Y0229077D01*
X0235159Y0228730D01*
X0235138Y0228382D01*
X0235108Y0228036D01*
X0235069Y0227690D01*
X0235023Y0227345D01*
X0234967Y0227002D01*
X0234904Y0226660D01*
X0234832Y0226320D01*
X0234751Y0225981D01*
X0234663Y0225645D01*
X0234566Y0225311D01*
X0234461Y0224979D01*
X0234348Y0224650D01*
X0234226Y0224324D01*
X0234097Y0224001D01*
X0233960Y0223682D01*
X0233815Y0223365D01*
X0233663Y0223053D01*
X0233502Y0222744D01*
X0233335Y0222439D01*
X0233160Y0222139D01*
X0232977Y0221842D01*
X0232787Y0221551D01*
X0232591Y0221264D01*
X0232387Y0220982D01*
X0232176Y0220705D01*
X0231959Y0220434D01*
X0231735Y0220168D01*
X0231505Y0219907D01*
X0231268Y0219652D01*
X0231025Y0219403D01*
X0230776Y0219160D01*
X0230521Y0218923D01*
X0230260Y0218693D01*
X0229994Y0218469D01*
X0229723Y0218252D01*
X0229446Y0218041D01*
X0229164Y0217837D01*
X0228877Y0217641D01*
X0228586Y0217451D01*
X0228289Y0217268D01*
X0227989Y0217093D01*
X0227684Y0216926D01*
X0227375Y0216765D01*
X0227063Y0216613D01*
X0226746Y0216468D01*
X0226427Y0216331D01*
X0226104Y0216202D01*
X0225778Y0216080D01*
X0225449Y0215967D01*
X0225117Y0215862D01*
X0224783Y0215765D01*
X0224447Y0215677D01*
X0224108Y0215596D01*
X0223768Y0215524D01*
X0223426Y0215461D01*
X0223083Y0215405D01*
X0222738Y0215359D01*
X0222392Y0215320D01*
X0222046Y0215290D01*
X0221698Y0215269D01*
X0221351Y0215256D01*
X0221003Y0215252D01*
X0220655Y0215256D01*
X0220308Y0215269D01*
X0219960Y0215290D01*
X0219614Y0215320D01*
X0219268Y0215359D01*
X0218923Y0215405D01*
X0218580Y0215461D01*
X0218238Y0215524D01*
X0217898Y0215596D01*
X0217559Y0215677D01*
X0217223Y0215765D01*
X0216889Y0215862D01*
X0216557Y0215967D01*
X0216228Y0216080D01*
X0215902Y0216202D01*
X0215579Y0216331D01*
X0215260Y0216468D01*
X0214943Y0216613D01*
X0214631Y0216765D01*
X0214322Y0216926D01*
X0214017Y0217093D01*
X0213717Y0217268D01*
X0213420Y0217451D01*
X0213129Y0217641D01*
X0212842Y0217837D01*
X0212560Y0218041D01*
X0212283Y0218252D01*
X0212012Y0218469D01*
X0211746Y0218693D01*
X0211485Y0218923D01*
X0211230Y0219160D01*
X0210981Y0219403D01*
X0210738Y0219652D01*
X0210501Y0219907D01*
X0210271Y0220168D01*
X0210047Y0220434D01*
X0209830Y0220705D01*
X0209619Y0220982D01*
X0209415Y0221264D01*
X0209219Y0221551D01*
X0209029Y0221842D01*
X0208846Y0222139D01*
X0208671Y0222439D01*
X0208504Y0222744D01*
X0208343Y0223053D01*
X0208191Y0223365D01*
X0208046Y0223682D01*
X0207909Y0224001D01*
X0207780Y0224324D01*
X0207658Y0224650D01*
X0207545Y0224979D01*
X0207440Y0225311D01*
X0207343Y0225645D01*
X0207255Y0225981D01*
X0207174Y0226320D01*
X0207102Y0226660D01*
X0207039Y0227002D01*
X0206983Y0227345D01*
X0206937Y0227690D01*
X0206898Y0228036D01*
X0206868Y0228382D01*
X0206847Y0228730D01*
X0206834Y0229077D01*
X0206830Y0229425D01*
X0255472Y0332150D02*
X0255474Y0332308D01*
X0255480Y0332466D01*
X0255490Y0332624D01*
X0255504Y0332782D01*
X0255522Y0332939D01*
X0255543Y0333096D01*
X0255569Y0333252D01*
X0255599Y0333408D01*
X0255632Y0333563D01*
X0255670Y0333716D01*
X0255711Y0333869D01*
X0255756Y0334021D01*
X0255805Y0334172D01*
X0255858Y0334321D01*
X0255914Y0334469D01*
X0255974Y0334615D01*
X0256038Y0334760D01*
X0256106Y0334903D01*
X0256177Y0335045D01*
X0256251Y0335185D01*
X0256329Y0335322D01*
X0256411Y0335458D01*
X0256495Y0335592D01*
X0256584Y0335723D01*
X0256675Y0335852D01*
X0256770Y0335979D01*
X0256867Y0336104D01*
X0256968Y0336226D01*
X0257072Y0336345D01*
X0257179Y0336462D01*
X0257289Y0336576D01*
X0257402Y0336687D01*
X0257517Y0336796D01*
X0257635Y0336901D01*
X0257756Y0337003D01*
X0257879Y0337103D01*
X0258005Y0337199D01*
X0258133Y0337292D01*
X0258263Y0337382D01*
X0258396Y0337468D01*
X0258531Y0337552D01*
X0258667Y0337631D01*
X0258806Y0337708D01*
X0258947Y0337780D01*
X0259089Y0337850D01*
X0259233Y0337915D01*
X0259379Y0337977D01*
X0259526Y0338035D01*
X0259675Y0338090D01*
X0259825Y0338141D01*
X0259976Y0338188D01*
X0260128Y0338231D01*
X0260281Y0338270D01*
X0260436Y0338306D01*
X0260591Y0338337D01*
X0260747Y0338365D01*
X0260903Y0338389D01*
X0261060Y0338409D01*
X0261218Y0338425D01*
X0261375Y0338437D01*
X0261534Y0338445D01*
X0261692Y0338449D01*
X0261850Y0338449D01*
X0262008Y0338445D01*
X0262167Y0338437D01*
X0262324Y0338425D01*
X0262482Y0338409D01*
X0262639Y0338389D01*
X0262795Y0338365D01*
X0262951Y0338337D01*
X0263106Y0338306D01*
X0263261Y0338270D01*
X0263414Y0338231D01*
X0263566Y0338188D01*
X0263717Y0338141D01*
X0263867Y0338090D01*
X0264016Y0338035D01*
X0264163Y0337977D01*
X0264309Y0337915D01*
X0264453Y0337850D01*
X0264595Y0337780D01*
X0264736Y0337708D01*
X0264875Y0337631D01*
X0265011Y0337552D01*
X0265146Y0337468D01*
X0265279Y0337382D01*
X0265409Y0337292D01*
X0265537Y0337199D01*
X0265663Y0337103D01*
X0265786Y0337003D01*
X0265907Y0336901D01*
X0266025Y0336796D01*
X0266140Y0336687D01*
X0266253Y0336576D01*
X0266363Y0336462D01*
X0266470Y0336345D01*
X0266574Y0336226D01*
X0266675Y0336104D01*
X0266772Y0335979D01*
X0266867Y0335852D01*
X0266958Y0335723D01*
X0267047Y0335592D01*
X0267131Y0335458D01*
X0267213Y0335322D01*
X0267291Y0335185D01*
X0267365Y0335045D01*
X0267436Y0334903D01*
X0267504Y0334760D01*
X0267568Y0334615D01*
X0267628Y0334469D01*
X0267684Y0334321D01*
X0267737Y0334172D01*
X0267786Y0334021D01*
X0267831Y0333869D01*
X0267872Y0333716D01*
X0267910Y0333563D01*
X0267943Y0333408D01*
X0267973Y0333252D01*
X0267999Y0333096D01*
X0268020Y0332939D01*
X0268038Y0332782D01*
X0268052Y0332624D01*
X0268062Y0332466D01*
X0268068Y0332308D01*
X0268070Y0332150D01*
X0268068Y0331992D01*
X0268062Y0331834D01*
X0268052Y0331676D01*
X0268038Y0331518D01*
X0268020Y0331361D01*
X0267999Y0331204D01*
X0267973Y0331048D01*
X0267943Y0330892D01*
X0267910Y0330737D01*
X0267872Y0330584D01*
X0267831Y0330431D01*
X0267786Y0330279D01*
X0267737Y0330128D01*
X0267684Y0329979D01*
X0267628Y0329831D01*
X0267568Y0329685D01*
X0267504Y0329540D01*
X0267436Y0329397D01*
X0267365Y0329255D01*
X0267291Y0329115D01*
X0267213Y0328978D01*
X0267131Y0328842D01*
X0267047Y0328708D01*
X0266958Y0328577D01*
X0266867Y0328448D01*
X0266772Y0328321D01*
X0266675Y0328196D01*
X0266574Y0328074D01*
X0266470Y0327955D01*
X0266363Y0327838D01*
X0266253Y0327724D01*
X0266140Y0327613D01*
X0266025Y0327504D01*
X0265907Y0327399D01*
X0265786Y0327297D01*
X0265663Y0327197D01*
X0265537Y0327101D01*
X0265409Y0327008D01*
X0265279Y0326918D01*
X0265146Y0326832D01*
X0265011Y0326748D01*
X0264875Y0326669D01*
X0264736Y0326592D01*
X0264595Y0326520D01*
X0264453Y0326450D01*
X0264309Y0326385D01*
X0264163Y0326323D01*
X0264016Y0326265D01*
X0263867Y0326210D01*
X0263717Y0326159D01*
X0263566Y0326112D01*
X0263414Y0326069D01*
X0263261Y0326030D01*
X0263106Y0325994D01*
X0262951Y0325963D01*
X0262795Y0325935D01*
X0262639Y0325911D01*
X0262482Y0325891D01*
X0262324Y0325875D01*
X0262167Y0325863D01*
X0262008Y0325855D01*
X0261850Y0325851D01*
X0261692Y0325851D01*
X0261534Y0325855D01*
X0261375Y0325863D01*
X0261218Y0325875D01*
X0261060Y0325891D01*
X0260903Y0325911D01*
X0260747Y0325935D01*
X0260591Y0325963D01*
X0260436Y0325994D01*
X0260281Y0326030D01*
X0260128Y0326069D01*
X0259976Y0326112D01*
X0259825Y0326159D01*
X0259675Y0326210D01*
X0259526Y0326265D01*
X0259379Y0326323D01*
X0259233Y0326385D01*
X0259089Y0326450D01*
X0258947Y0326520D01*
X0258806Y0326592D01*
X0258667Y0326669D01*
X0258531Y0326748D01*
X0258396Y0326832D01*
X0258263Y0326918D01*
X0258133Y0327008D01*
X0258005Y0327101D01*
X0257879Y0327197D01*
X0257756Y0327297D01*
X0257635Y0327399D01*
X0257517Y0327504D01*
X0257402Y0327613D01*
X0257289Y0327724D01*
X0257179Y0327838D01*
X0257072Y0327955D01*
X0256968Y0328074D01*
X0256867Y0328196D01*
X0256770Y0328321D01*
X0256675Y0328448D01*
X0256584Y0328577D01*
X0256495Y0328708D01*
X0256411Y0328842D01*
X0256329Y0328978D01*
X0256251Y0329115D01*
X0256177Y0329255D01*
X0256106Y0329397D01*
X0256038Y0329540D01*
X0255974Y0329685D01*
X0255914Y0329831D01*
X0255858Y0329979D01*
X0255805Y0330128D01*
X0255756Y0330279D01*
X0255711Y0330431D01*
X0255670Y0330584D01*
X0255632Y0330737D01*
X0255599Y0330892D01*
X0255569Y0331048D01*
X0255543Y0331204D01*
X0255522Y0331361D01*
X0255504Y0331518D01*
X0255490Y0331676D01*
X0255480Y0331834D01*
X0255474Y0331992D01*
X0255472Y0332150D01*
X0246082Y0495744D02*
X0246084Y0495902D01*
X0246090Y0496060D01*
X0246100Y0496218D01*
X0246114Y0496376D01*
X0246132Y0496533D01*
X0246153Y0496690D01*
X0246179Y0496846D01*
X0246209Y0497002D01*
X0246242Y0497157D01*
X0246280Y0497310D01*
X0246321Y0497463D01*
X0246366Y0497615D01*
X0246415Y0497766D01*
X0246468Y0497915D01*
X0246524Y0498063D01*
X0246584Y0498209D01*
X0246648Y0498354D01*
X0246716Y0498497D01*
X0246787Y0498639D01*
X0246861Y0498779D01*
X0246939Y0498916D01*
X0247021Y0499052D01*
X0247105Y0499186D01*
X0247194Y0499317D01*
X0247285Y0499446D01*
X0247380Y0499573D01*
X0247477Y0499698D01*
X0247578Y0499820D01*
X0247682Y0499939D01*
X0247789Y0500056D01*
X0247899Y0500170D01*
X0248012Y0500281D01*
X0248127Y0500390D01*
X0248245Y0500495D01*
X0248366Y0500597D01*
X0248489Y0500697D01*
X0248615Y0500793D01*
X0248743Y0500886D01*
X0248873Y0500976D01*
X0249006Y0501062D01*
X0249141Y0501146D01*
X0249277Y0501225D01*
X0249416Y0501302D01*
X0249557Y0501374D01*
X0249699Y0501444D01*
X0249843Y0501509D01*
X0249989Y0501571D01*
X0250136Y0501629D01*
X0250285Y0501684D01*
X0250435Y0501735D01*
X0250586Y0501782D01*
X0250738Y0501825D01*
X0250891Y0501864D01*
X0251046Y0501900D01*
X0251201Y0501931D01*
X0251357Y0501959D01*
X0251513Y0501983D01*
X0251670Y0502003D01*
X0251828Y0502019D01*
X0251985Y0502031D01*
X0252144Y0502039D01*
X0252302Y0502043D01*
X0252460Y0502043D01*
X0252618Y0502039D01*
X0252777Y0502031D01*
X0252934Y0502019D01*
X0253092Y0502003D01*
X0253249Y0501983D01*
X0253405Y0501959D01*
X0253561Y0501931D01*
X0253716Y0501900D01*
X0253871Y0501864D01*
X0254024Y0501825D01*
X0254176Y0501782D01*
X0254327Y0501735D01*
X0254477Y0501684D01*
X0254626Y0501629D01*
X0254773Y0501571D01*
X0254919Y0501509D01*
X0255063Y0501444D01*
X0255205Y0501374D01*
X0255346Y0501302D01*
X0255485Y0501225D01*
X0255621Y0501146D01*
X0255756Y0501062D01*
X0255889Y0500976D01*
X0256019Y0500886D01*
X0256147Y0500793D01*
X0256273Y0500697D01*
X0256396Y0500597D01*
X0256517Y0500495D01*
X0256635Y0500390D01*
X0256750Y0500281D01*
X0256863Y0500170D01*
X0256973Y0500056D01*
X0257080Y0499939D01*
X0257184Y0499820D01*
X0257285Y0499698D01*
X0257382Y0499573D01*
X0257477Y0499446D01*
X0257568Y0499317D01*
X0257657Y0499186D01*
X0257741Y0499052D01*
X0257823Y0498916D01*
X0257901Y0498779D01*
X0257975Y0498639D01*
X0258046Y0498497D01*
X0258114Y0498354D01*
X0258178Y0498209D01*
X0258238Y0498063D01*
X0258294Y0497915D01*
X0258347Y0497766D01*
X0258396Y0497615D01*
X0258441Y0497463D01*
X0258482Y0497310D01*
X0258520Y0497157D01*
X0258553Y0497002D01*
X0258583Y0496846D01*
X0258609Y0496690D01*
X0258630Y0496533D01*
X0258648Y0496376D01*
X0258662Y0496218D01*
X0258672Y0496060D01*
X0258678Y0495902D01*
X0258680Y0495744D01*
X0258678Y0495586D01*
X0258672Y0495428D01*
X0258662Y0495270D01*
X0258648Y0495112D01*
X0258630Y0494955D01*
X0258609Y0494798D01*
X0258583Y0494642D01*
X0258553Y0494486D01*
X0258520Y0494331D01*
X0258482Y0494178D01*
X0258441Y0494025D01*
X0258396Y0493873D01*
X0258347Y0493722D01*
X0258294Y0493573D01*
X0258238Y0493425D01*
X0258178Y0493279D01*
X0258114Y0493134D01*
X0258046Y0492991D01*
X0257975Y0492849D01*
X0257901Y0492709D01*
X0257823Y0492572D01*
X0257741Y0492436D01*
X0257657Y0492302D01*
X0257568Y0492171D01*
X0257477Y0492042D01*
X0257382Y0491915D01*
X0257285Y0491790D01*
X0257184Y0491668D01*
X0257080Y0491549D01*
X0256973Y0491432D01*
X0256863Y0491318D01*
X0256750Y0491207D01*
X0256635Y0491098D01*
X0256517Y0490993D01*
X0256396Y0490891D01*
X0256273Y0490791D01*
X0256147Y0490695D01*
X0256019Y0490602D01*
X0255889Y0490512D01*
X0255756Y0490426D01*
X0255621Y0490342D01*
X0255485Y0490263D01*
X0255346Y0490186D01*
X0255205Y0490114D01*
X0255063Y0490044D01*
X0254919Y0489979D01*
X0254773Y0489917D01*
X0254626Y0489859D01*
X0254477Y0489804D01*
X0254327Y0489753D01*
X0254176Y0489706D01*
X0254024Y0489663D01*
X0253871Y0489624D01*
X0253716Y0489588D01*
X0253561Y0489557D01*
X0253405Y0489529D01*
X0253249Y0489505D01*
X0253092Y0489485D01*
X0252934Y0489469D01*
X0252777Y0489457D01*
X0252618Y0489449D01*
X0252460Y0489445D01*
X0252302Y0489445D01*
X0252144Y0489449D01*
X0251985Y0489457D01*
X0251828Y0489469D01*
X0251670Y0489485D01*
X0251513Y0489505D01*
X0251357Y0489529D01*
X0251201Y0489557D01*
X0251046Y0489588D01*
X0250891Y0489624D01*
X0250738Y0489663D01*
X0250586Y0489706D01*
X0250435Y0489753D01*
X0250285Y0489804D01*
X0250136Y0489859D01*
X0249989Y0489917D01*
X0249843Y0489979D01*
X0249699Y0490044D01*
X0249557Y0490114D01*
X0249416Y0490186D01*
X0249277Y0490263D01*
X0249141Y0490342D01*
X0249006Y0490426D01*
X0248873Y0490512D01*
X0248743Y0490602D01*
X0248615Y0490695D01*
X0248489Y0490791D01*
X0248366Y0490891D01*
X0248245Y0490993D01*
X0248127Y0491098D01*
X0248012Y0491207D01*
X0247899Y0491318D01*
X0247789Y0491432D01*
X0247682Y0491549D01*
X0247578Y0491668D01*
X0247477Y0491790D01*
X0247380Y0491915D01*
X0247285Y0492042D01*
X0247194Y0492171D01*
X0247105Y0492302D01*
X0247021Y0492436D01*
X0246939Y0492572D01*
X0246861Y0492709D01*
X0246787Y0492849D01*
X0246716Y0492991D01*
X0246648Y0493134D01*
X0246584Y0493279D01*
X0246524Y0493425D01*
X0246468Y0493573D01*
X0246415Y0493722D01*
X0246366Y0493873D01*
X0246321Y0494025D01*
X0246280Y0494178D01*
X0246242Y0494331D01*
X0246209Y0494486D01*
X0246179Y0494642D01*
X0246153Y0494798D01*
X0246132Y0494955D01*
X0246114Y0495112D01*
X0246100Y0495270D01*
X0246090Y0495428D01*
X0246084Y0495586D01*
X0246082Y0495744D01*
X0045866Y0452953D02*
X0045868Y0453111D01*
X0045874Y0453269D01*
X0045884Y0453427D01*
X0045898Y0453585D01*
X0045916Y0453742D01*
X0045937Y0453899D01*
X0045963Y0454055D01*
X0045993Y0454211D01*
X0046026Y0454366D01*
X0046064Y0454519D01*
X0046105Y0454672D01*
X0046150Y0454824D01*
X0046199Y0454975D01*
X0046252Y0455124D01*
X0046308Y0455272D01*
X0046368Y0455418D01*
X0046432Y0455563D01*
X0046500Y0455706D01*
X0046571Y0455848D01*
X0046645Y0455988D01*
X0046723Y0456125D01*
X0046805Y0456261D01*
X0046889Y0456395D01*
X0046978Y0456526D01*
X0047069Y0456655D01*
X0047164Y0456782D01*
X0047261Y0456907D01*
X0047362Y0457029D01*
X0047466Y0457148D01*
X0047573Y0457265D01*
X0047683Y0457379D01*
X0047796Y0457490D01*
X0047911Y0457599D01*
X0048029Y0457704D01*
X0048150Y0457806D01*
X0048273Y0457906D01*
X0048399Y0458002D01*
X0048527Y0458095D01*
X0048657Y0458185D01*
X0048790Y0458271D01*
X0048925Y0458355D01*
X0049061Y0458434D01*
X0049200Y0458511D01*
X0049341Y0458583D01*
X0049483Y0458653D01*
X0049627Y0458718D01*
X0049773Y0458780D01*
X0049920Y0458838D01*
X0050069Y0458893D01*
X0050219Y0458944D01*
X0050370Y0458991D01*
X0050522Y0459034D01*
X0050675Y0459073D01*
X0050830Y0459109D01*
X0050985Y0459140D01*
X0051141Y0459168D01*
X0051297Y0459192D01*
X0051454Y0459212D01*
X0051612Y0459228D01*
X0051769Y0459240D01*
X0051928Y0459248D01*
X0052086Y0459252D01*
X0052244Y0459252D01*
X0052402Y0459248D01*
X0052561Y0459240D01*
X0052718Y0459228D01*
X0052876Y0459212D01*
X0053033Y0459192D01*
X0053189Y0459168D01*
X0053345Y0459140D01*
X0053500Y0459109D01*
X0053655Y0459073D01*
X0053808Y0459034D01*
X0053960Y0458991D01*
X0054111Y0458944D01*
X0054261Y0458893D01*
X0054410Y0458838D01*
X0054557Y0458780D01*
X0054703Y0458718D01*
X0054847Y0458653D01*
X0054989Y0458583D01*
X0055130Y0458511D01*
X0055269Y0458434D01*
X0055405Y0458355D01*
X0055540Y0458271D01*
X0055673Y0458185D01*
X0055803Y0458095D01*
X0055931Y0458002D01*
X0056057Y0457906D01*
X0056180Y0457806D01*
X0056301Y0457704D01*
X0056419Y0457599D01*
X0056534Y0457490D01*
X0056647Y0457379D01*
X0056757Y0457265D01*
X0056864Y0457148D01*
X0056968Y0457029D01*
X0057069Y0456907D01*
X0057166Y0456782D01*
X0057261Y0456655D01*
X0057352Y0456526D01*
X0057441Y0456395D01*
X0057525Y0456261D01*
X0057607Y0456125D01*
X0057685Y0455988D01*
X0057759Y0455848D01*
X0057830Y0455706D01*
X0057898Y0455563D01*
X0057962Y0455418D01*
X0058022Y0455272D01*
X0058078Y0455124D01*
X0058131Y0454975D01*
X0058180Y0454824D01*
X0058225Y0454672D01*
X0058266Y0454519D01*
X0058304Y0454366D01*
X0058337Y0454211D01*
X0058367Y0454055D01*
X0058393Y0453899D01*
X0058414Y0453742D01*
X0058432Y0453585D01*
X0058446Y0453427D01*
X0058456Y0453269D01*
X0058462Y0453111D01*
X0058464Y0452953D01*
X0058462Y0452795D01*
X0058456Y0452637D01*
X0058446Y0452479D01*
X0058432Y0452321D01*
X0058414Y0452164D01*
X0058393Y0452007D01*
X0058367Y0451851D01*
X0058337Y0451695D01*
X0058304Y0451540D01*
X0058266Y0451387D01*
X0058225Y0451234D01*
X0058180Y0451082D01*
X0058131Y0450931D01*
X0058078Y0450782D01*
X0058022Y0450634D01*
X0057962Y0450488D01*
X0057898Y0450343D01*
X0057830Y0450200D01*
X0057759Y0450058D01*
X0057685Y0449918D01*
X0057607Y0449781D01*
X0057525Y0449645D01*
X0057441Y0449511D01*
X0057352Y0449380D01*
X0057261Y0449251D01*
X0057166Y0449124D01*
X0057069Y0448999D01*
X0056968Y0448877D01*
X0056864Y0448758D01*
X0056757Y0448641D01*
X0056647Y0448527D01*
X0056534Y0448416D01*
X0056419Y0448307D01*
X0056301Y0448202D01*
X0056180Y0448100D01*
X0056057Y0448000D01*
X0055931Y0447904D01*
X0055803Y0447811D01*
X0055673Y0447721D01*
X0055540Y0447635D01*
X0055405Y0447551D01*
X0055269Y0447472D01*
X0055130Y0447395D01*
X0054989Y0447323D01*
X0054847Y0447253D01*
X0054703Y0447188D01*
X0054557Y0447126D01*
X0054410Y0447068D01*
X0054261Y0447013D01*
X0054111Y0446962D01*
X0053960Y0446915D01*
X0053808Y0446872D01*
X0053655Y0446833D01*
X0053500Y0446797D01*
X0053345Y0446766D01*
X0053189Y0446738D01*
X0053033Y0446714D01*
X0052876Y0446694D01*
X0052718Y0446678D01*
X0052561Y0446666D01*
X0052402Y0446658D01*
X0052244Y0446654D01*
X0052086Y0446654D01*
X0051928Y0446658D01*
X0051769Y0446666D01*
X0051612Y0446678D01*
X0051454Y0446694D01*
X0051297Y0446714D01*
X0051141Y0446738D01*
X0050985Y0446766D01*
X0050830Y0446797D01*
X0050675Y0446833D01*
X0050522Y0446872D01*
X0050370Y0446915D01*
X0050219Y0446962D01*
X0050069Y0447013D01*
X0049920Y0447068D01*
X0049773Y0447126D01*
X0049627Y0447188D01*
X0049483Y0447253D01*
X0049341Y0447323D01*
X0049200Y0447395D01*
X0049061Y0447472D01*
X0048925Y0447551D01*
X0048790Y0447635D01*
X0048657Y0447721D01*
X0048527Y0447811D01*
X0048399Y0447904D01*
X0048273Y0448000D01*
X0048150Y0448100D01*
X0048029Y0448202D01*
X0047911Y0448307D01*
X0047796Y0448416D01*
X0047683Y0448527D01*
X0047573Y0448641D01*
X0047466Y0448758D01*
X0047362Y0448877D01*
X0047261Y0448999D01*
X0047164Y0449124D01*
X0047069Y0449251D01*
X0046978Y0449380D01*
X0046889Y0449511D01*
X0046805Y0449645D01*
X0046723Y0449781D01*
X0046645Y0449918D01*
X0046571Y0450058D01*
X0046500Y0450200D01*
X0046432Y0450343D01*
X0046368Y0450488D01*
X0046308Y0450634D01*
X0046252Y0450782D01*
X0046199Y0450931D01*
X0046150Y0451082D01*
X0046105Y0451234D01*
X0046064Y0451387D01*
X0046026Y0451540D01*
X0045993Y0451695D01*
X0045963Y0451851D01*
X0045937Y0452007D01*
X0045916Y0452164D01*
X0045898Y0452321D01*
X0045884Y0452479D01*
X0045874Y0452637D01*
X0045868Y0452795D01*
X0045866Y0452953D01*
X0040089Y0433142D02*
X0040089Y0433142D01*
X0024527Y0495744D02*
X0024529Y0495900D01*
X0024535Y0496056D01*
X0024545Y0496211D01*
X0024559Y0496366D01*
X0024577Y0496521D01*
X0024599Y0496675D01*
X0024624Y0496829D01*
X0024654Y0496982D01*
X0024688Y0497134D01*
X0024725Y0497286D01*
X0024766Y0497436D01*
X0024811Y0497585D01*
X0024860Y0497733D01*
X0024913Y0497880D01*
X0024969Y0498025D01*
X0025029Y0498169D01*
X0025093Y0498311D01*
X0025161Y0498452D01*
X0025232Y0498590D01*
X0025306Y0498727D01*
X0025384Y0498862D01*
X0025465Y0498995D01*
X0025550Y0499126D01*
X0025638Y0499255D01*
X0025729Y0499381D01*
X0025824Y0499505D01*
X0025921Y0499626D01*
X0026022Y0499745D01*
X0026126Y0499862D01*
X0026232Y0499975D01*
X0026342Y0500086D01*
X0026454Y0500194D01*
X0026569Y0500299D01*
X0026687Y0500402D01*
X0026807Y0500501D01*
X0026930Y0500597D01*
X0027055Y0500690D01*
X0027182Y0500779D01*
X0027312Y0500866D01*
X0027444Y0500949D01*
X0027578Y0501028D01*
X0027714Y0501105D01*
X0027852Y0501177D01*
X0027991Y0501247D01*
X0028133Y0501312D01*
X0028276Y0501374D01*
X0028420Y0501432D01*
X0028566Y0501487D01*
X0028714Y0501538D01*
X0028862Y0501585D01*
X0029012Y0501628D01*
X0029163Y0501667D01*
X0029315Y0501703D01*
X0029467Y0501734D01*
X0029621Y0501762D01*
X0029775Y0501786D01*
X0029929Y0501806D01*
X0030084Y0501822D01*
X0030240Y0501834D01*
X0030395Y0501842D01*
X0030551Y0501846D01*
X0030707Y0501846D01*
X0030863Y0501842D01*
X0031018Y0501834D01*
X0031174Y0501822D01*
X0031329Y0501806D01*
X0031483Y0501786D01*
X0031637Y0501762D01*
X0031791Y0501734D01*
X0031943Y0501703D01*
X0032095Y0501667D01*
X0032246Y0501628D01*
X0032396Y0501585D01*
X0032544Y0501538D01*
X0032692Y0501487D01*
X0032838Y0501432D01*
X0032982Y0501374D01*
X0033125Y0501312D01*
X0033267Y0501247D01*
X0033406Y0501177D01*
X0033544Y0501105D01*
X0033680Y0501028D01*
X0033814Y0500949D01*
X0033946Y0500866D01*
X0034076Y0500779D01*
X0034203Y0500690D01*
X0034328Y0500597D01*
X0034451Y0500501D01*
X0034571Y0500402D01*
X0034689Y0500299D01*
X0034804Y0500194D01*
X0034916Y0500086D01*
X0035026Y0499975D01*
X0035132Y0499862D01*
X0035236Y0499745D01*
X0035337Y0499626D01*
X0035434Y0499505D01*
X0035529Y0499381D01*
X0035620Y0499255D01*
X0035708Y0499126D01*
X0035793Y0498995D01*
X0035874Y0498862D01*
X0035952Y0498727D01*
X0036026Y0498590D01*
X0036097Y0498452D01*
X0036165Y0498311D01*
X0036229Y0498169D01*
X0036289Y0498025D01*
X0036345Y0497880D01*
X0036398Y0497733D01*
X0036447Y0497585D01*
X0036492Y0497436D01*
X0036533Y0497286D01*
X0036570Y0497134D01*
X0036604Y0496982D01*
X0036634Y0496829D01*
X0036659Y0496675D01*
X0036681Y0496521D01*
X0036699Y0496366D01*
X0036713Y0496211D01*
X0036723Y0496056D01*
X0036729Y0495900D01*
X0036731Y0495744D01*
X0036729Y0495588D01*
X0036723Y0495432D01*
X0036713Y0495277D01*
X0036699Y0495122D01*
X0036681Y0494967D01*
X0036659Y0494813D01*
X0036634Y0494659D01*
X0036604Y0494506D01*
X0036570Y0494354D01*
X0036533Y0494202D01*
X0036492Y0494052D01*
X0036447Y0493903D01*
X0036398Y0493755D01*
X0036345Y0493608D01*
X0036289Y0493463D01*
X0036229Y0493319D01*
X0036165Y0493177D01*
X0036097Y0493036D01*
X0036026Y0492898D01*
X0035952Y0492761D01*
X0035874Y0492626D01*
X0035793Y0492493D01*
X0035708Y0492362D01*
X0035620Y0492233D01*
X0035529Y0492107D01*
X0035434Y0491983D01*
X0035337Y0491862D01*
X0035236Y0491743D01*
X0035132Y0491626D01*
X0035026Y0491513D01*
X0034916Y0491402D01*
X0034804Y0491294D01*
X0034689Y0491189D01*
X0034571Y0491086D01*
X0034451Y0490987D01*
X0034328Y0490891D01*
X0034203Y0490798D01*
X0034076Y0490709D01*
X0033946Y0490622D01*
X0033814Y0490539D01*
X0033680Y0490460D01*
X0033544Y0490383D01*
X0033406Y0490311D01*
X0033267Y0490241D01*
X0033125Y0490176D01*
X0032982Y0490114D01*
X0032838Y0490056D01*
X0032692Y0490001D01*
X0032544Y0489950D01*
X0032396Y0489903D01*
X0032246Y0489860D01*
X0032095Y0489821D01*
X0031943Y0489785D01*
X0031791Y0489754D01*
X0031637Y0489726D01*
X0031483Y0489702D01*
X0031329Y0489682D01*
X0031174Y0489666D01*
X0031018Y0489654D01*
X0030863Y0489646D01*
X0030707Y0489642D01*
X0030551Y0489642D01*
X0030395Y0489646D01*
X0030240Y0489654D01*
X0030084Y0489666D01*
X0029929Y0489682D01*
X0029775Y0489702D01*
X0029621Y0489726D01*
X0029467Y0489754D01*
X0029315Y0489785D01*
X0029163Y0489821D01*
X0029012Y0489860D01*
X0028862Y0489903D01*
X0028714Y0489950D01*
X0028566Y0490001D01*
X0028420Y0490056D01*
X0028276Y0490114D01*
X0028133Y0490176D01*
X0027991Y0490241D01*
X0027852Y0490311D01*
X0027714Y0490383D01*
X0027578Y0490460D01*
X0027444Y0490539D01*
X0027312Y0490622D01*
X0027182Y0490709D01*
X0027055Y0490798D01*
X0026930Y0490891D01*
X0026807Y0490987D01*
X0026687Y0491086D01*
X0026569Y0491189D01*
X0026454Y0491294D01*
X0026342Y0491402D01*
X0026232Y0491513D01*
X0026126Y0491626D01*
X0026022Y0491743D01*
X0025921Y0491862D01*
X0025824Y0491983D01*
X0025729Y0492107D01*
X0025638Y0492233D01*
X0025550Y0492362D01*
X0025465Y0492493D01*
X0025384Y0492626D01*
X0025306Y0492761D01*
X0025232Y0492898D01*
X0025161Y0493036D01*
X0025093Y0493177D01*
X0025029Y0493319D01*
X0024969Y0493463D01*
X0024913Y0493608D01*
X0024860Y0493755D01*
X0024811Y0493903D01*
X0024766Y0494052D01*
X0024725Y0494202D01*
X0024688Y0494354D01*
X0024654Y0494506D01*
X0024624Y0494659D01*
X0024599Y0494813D01*
X0024577Y0494967D01*
X0024559Y0495122D01*
X0024545Y0495277D01*
X0024535Y0495432D01*
X0024529Y0495588D01*
X0024527Y0495744D01*
X0047440Y0059996D02*
X0047444Y0060310D01*
X0047455Y0060624D01*
X0047475Y0060937D01*
X0047502Y0061250D01*
X0047536Y0061562D01*
X0047578Y0061873D01*
X0047628Y0062183D01*
X0047686Y0062492D01*
X0047751Y0062799D01*
X0047823Y0063105D01*
X0047903Y0063409D01*
X0047991Y0063710D01*
X0048086Y0064010D01*
X0048188Y0064307D01*
X0048297Y0064601D01*
X0048414Y0064892D01*
X0048538Y0065181D01*
X0048668Y0065467D01*
X0048806Y0065749D01*
X0048951Y0066028D01*
X0049102Y0066303D01*
X0049260Y0066574D01*
X0049425Y0066841D01*
X0049596Y0067105D01*
X0049774Y0067363D01*
X0049958Y0067618D01*
X0050148Y0067868D01*
X0050344Y0068113D01*
X0050547Y0068353D01*
X0050755Y0068589D01*
X0050968Y0068819D01*
X0051188Y0069043D01*
X0051412Y0069263D01*
X0051642Y0069476D01*
X0051878Y0069684D01*
X0052118Y0069887D01*
X0052363Y0070083D01*
X0052613Y0070273D01*
X0052868Y0070457D01*
X0053126Y0070635D01*
X0053390Y0070806D01*
X0053657Y0070971D01*
X0053928Y0071129D01*
X0054203Y0071280D01*
X0054482Y0071425D01*
X0054764Y0071563D01*
X0055050Y0071693D01*
X0055339Y0071817D01*
X0055630Y0071934D01*
X0055924Y0072043D01*
X0056221Y0072145D01*
X0056521Y0072240D01*
X0056822Y0072328D01*
X0057126Y0072408D01*
X0057432Y0072480D01*
X0057739Y0072545D01*
X0058048Y0072603D01*
X0058358Y0072653D01*
X0058669Y0072695D01*
X0058981Y0072729D01*
X0059294Y0072756D01*
X0059607Y0072776D01*
X0059921Y0072787D01*
X0060235Y0072791D01*
X0060549Y0072787D01*
X0060863Y0072776D01*
X0061176Y0072756D01*
X0061489Y0072729D01*
X0061801Y0072695D01*
X0062112Y0072653D01*
X0062422Y0072603D01*
X0062731Y0072545D01*
X0063038Y0072480D01*
X0063344Y0072408D01*
X0063648Y0072328D01*
X0063949Y0072240D01*
X0064249Y0072145D01*
X0064546Y0072043D01*
X0064840Y0071934D01*
X0065131Y0071817D01*
X0065420Y0071693D01*
X0065706Y0071563D01*
X0065988Y0071425D01*
X0066267Y0071280D01*
X0066542Y0071129D01*
X0066813Y0070971D01*
X0067080Y0070806D01*
X0067344Y0070635D01*
X0067602Y0070457D01*
X0067857Y0070273D01*
X0068107Y0070083D01*
X0068352Y0069887D01*
X0068592Y0069684D01*
X0068828Y0069476D01*
X0069058Y0069263D01*
X0069282Y0069043D01*
X0069502Y0068819D01*
X0069715Y0068589D01*
X0069923Y0068353D01*
X0070126Y0068113D01*
X0070322Y0067868D01*
X0070512Y0067618D01*
X0070696Y0067363D01*
X0070874Y0067105D01*
X0071045Y0066841D01*
X0071210Y0066574D01*
X0071368Y0066303D01*
X0071519Y0066028D01*
X0071664Y0065749D01*
X0071802Y0065467D01*
X0071932Y0065181D01*
X0072056Y0064892D01*
X0072173Y0064601D01*
X0072282Y0064307D01*
X0072384Y0064010D01*
X0072479Y0063710D01*
X0072567Y0063409D01*
X0072647Y0063105D01*
X0072719Y0062799D01*
X0072784Y0062492D01*
X0072842Y0062183D01*
X0072892Y0061873D01*
X0072934Y0061562D01*
X0072968Y0061250D01*
X0072995Y0060937D01*
X0073015Y0060624D01*
X0073026Y0060310D01*
X0073030Y0059996D01*
X0073026Y0059682D01*
X0073015Y0059368D01*
X0072995Y0059055D01*
X0072968Y0058742D01*
X0072934Y0058430D01*
X0072892Y0058119D01*
X0072842Y0057809D01*
X0072784Y0057500D01*
X0072719Y0057193D01*
X0072647Y0056887D01*
X0072567Y0056583D01*
X0072479Y0056282D01*
X0072384Y0055982D01*
X0072282Y0055685D01*
X0072173Y0055391D01*
X0072056Y0055100D01*
X0071932Y0054811D01*
X0071802Y0054525D01*
X0071664Y0054243D01*
X0071519Y0053964D01*
X0071368Y0053689D01*
X0071210Y0053418D01*
X0071045Y0053151D01*
X0070874Y0052887D01*
X0070696Y0052629D01*
X0070512Y0052374D01*
X0070322Y0052124D01*
X0070126Y0051879D01*
X0069923Y0051639D01*
X0069715Y0051403D01*
X0069502Y0051173D01*
X0069282Y0050949D01*
X0069058Y0050729D01*
X0068828Y0050516D01*
X0068592Y0050308D01*
X0068352Y0050105D01*
X0068107Y0049909D01*
X0067857Y0049719D01*
X0067602Y0049535D01*
X0067344Y0049357D01*
X0067080Y0049186D01*
X0066813Y0049021D01*
X0066542Y0048863D01*
X0066267Y0048712D01*
X0065988Y0048567D01*
X0065706Y0048429D01*
X0065420Y0048299D01*
X0065131Y0048175D01*
X0064840Y0048058D01*
X0064546Y0047949D01*
X0064249Y0047847D01*
X0063949Y0047752D01*
X0063648Y0047664D01*
X0063344Y0047584D01*
X0063038Y0047512D01*
X0062731Y0047447D01*
X0062422Y0047389D01*
X0062112Y0047339D01*
X0061801Y0047297D01*
X0061489Y0047263D01*
X0061176Y0047236D01*
X0060863Y0047216D01*
X0060549Y0047205D01*
X0060235Y0047201D01*
X0059921Y0047205D01*
X0059607Y0047216D01*
X0059294Y0047236D01*
X0058981Y0047263D01*
X0058669Y0047297D01*
X0058358Y0047339D01*
X0058048Y0047389D01*
X0057739Y0047447D01*
X0057432Y0047512D01*
X0057126Y0047584D01*
X0056822Y0047664D01*
X0056521Y0047752D01*
X0056221Y0047847D01*
X0055924Y0047949D01*
X0055630Y0048058D01*
X0055339Y0048175D01*
X0055050Y0048299D01*
X0054764Y0048429D01*
X0054482Y0048567D01*
X0054203Y0048712D01*
X0053928Y0048863D01*
X0053657Y0049021D01*
X0053390Y0049186D01*
X0053126Y0049357D01*
X0052868Y0049535D01*
X0052613Y0049719D01*
X0052363Y0049909D01*
X0052118Y0050105D01*
X0051878Y0050308D01*
X0051642Y0050516D01*
X0051412Y0050729D01*
X0051188Y0050949D01*
X0050968Y0051173D01*
X0050755Y0051403D01*
X0050547Y0051639D01*
X0050344Y0051879D01*
X0050148Y0052124D01*
X0049958Y0052374D01*
X0049774Y0052629D01*
X0049596Y0052887D01*
X0049425Y0053151D01*
X0049260Y0053418D01*
X0049102Y0053689D01*
X0048951Y0053964D01*
X0048806Y0054243D01*
X0048668Y0054525D01*
X0048538Y0054811D01*
X0048414Y0055100D01*
X0048297Y0055391D01*
X0048188Y0055685D01*
X0048086Y0055982D01*
X0047991Y0056282D01*
X0047903Y0056583D01*
X0047823Y0056887D01*
X0047751Y0057193D01*
X0047686Y0057500D01*
X0047628Y0057809D01*
X0047578Y0058119D01*
X0047536Y0058430D01*
X0047502Y0058742D01*
X0047475Y0059055D01*
X0047455Y0059368D01*
X0047444Y0059682D01*
X0047440Y0059996D01*
X0024310Y0013461D02*
X0024312Y0013619D01*
X0024318Y0013777D01*
X0024328Y0013935D01*
X0024342Y0014093D01*
X0024360Y0014250D01*
X0024381Y0014407D01*
X0024407Y0014563D01*
X0024437Y0014719D01*
X0024470Y0014874D01*
X0024508Y0015027D01*
X0024549Y0015180D01*
X0024594Y0015332D01*
X0024643Y0015483D01*
X0024696Y0015632D01*
X0024752Y0015780D01*
X0024812Y0015926D01*
X0024876Y0016071D01*
X0024944Y0016214D01*
X0025015Y0016356D01*
X0025089Y0016496D01*
X0025167Y0016633D01*
X0025249Y0016769D01*
X0025333Y0016903D01*
X0025422Y0017034D01*
X0025513Y0017163D01*
X0025608Y0017290D01*
X0025705Y0017415D01*
X0025806Y0017537D01*
X0025910Y0017656D01*
X0026017Y0017773D01*
X0026127Y0017887D01*
X0026240Y0017998D01*
X0026355Y0018107D01*
X0026473Y0018212D01*
X0026594Y0018314D01*
X0026717Y0018414D01*
X0026843Y0018510D01*
X0026971Y0018603D01*
X0027101Y0018693D01*
X0027234Y0018779D01*
X0027369Y0018863D01*
X0027505Y0018942D01*
X0027644Y0019019D01*
X0027785Y0019091D01*
X0027927Y0019161D01*
X0028071Y0019226D01*
X0028217Y0019288D01*
X0028364Y0019346D01*
X0028513Y0019401D01*
X0028663Y0019452D01*
X0028814Y0019499D01*
X0028966Y0019542D01*
X0029119Y0019581D01*
X0029274Y0019617D01*
X0029429Y0019648D01*
X0029585Y0019676D01*
X0029741Y0019700D01*
X0029898Y0019720D01*
X0030056Y0019736D01*
X0030213Y0019748D01*
X0030372Y0019756D01*
X0030530Y0019760D01*
X0030688Y0019760D01*
X0030846Y0019756D01*
X0031005Y0019748D01*
X0031162Y0019736D01*
X0031320Y0019720D01*
X0031477Y0019700D01*
X0031633Y0019676D01*
X0031789Y0019648D01*
X0031944Y0019617D01*
X0032099Y0019581D01*
X0032252Y0019542D01*
X0032404Y0019499D01*
X0032555Y0019452D01*
X0032705Y0019401D01*
X0032854Y0019346D01*
X0033001Y0019288D01*
X0033147Y0019226D01*
X0033291Y0019161D01*
X0033433Y0019091D01*
X0033574Y0019019D01*
X0033713Y0018942D01*
X0033849Y0018863D01*
X0033984Y0018779D01*
X0034117Y0018693D01*
X0034247Y0018603D01*
X0034375Y0018510D01*
X0034501Y0018414D01*
X0034624Y0018314D01*
X0034745Y0018212D01*
X0034863Y0018107D01*
X0034978Y0017998D01*
X0035091Y0017887D01*
X0035201Y0017773D01*
X0035308Y0017656D01*
X0035412Y0017537D01*
X0035513Y0017415D01*
X0035610Y0017290D01*
X0035705Y0017163D01*
X0035796Y0017034D01*
X0035885Y0016903D01*
X0035969Y0016769D01*
X0036051Y0016633D01*
X0036129Y0016496D01*
X0036203Y0016356D01*
X0036274Y0016214D01*
X0036342Y0016071D01*
X0036406Y0015926D01*
X0036466Y0015780D01*
X0036522Y0015632D01*
X0036575Y0015483D01*
X0036624Y0015332D01*
X0036669Y0015180D01*
X0036710Y0015027D01*
X0036748Y0014874D01*
X0036781Y0014719D01*
X0036811Y0014563D01*
X0036837Y0014407D01*
X0036858Y0014250D01*
X0036876Y0014093D01*
X0036890Y0013935D01*
X0036900Y0013777D01*
X0036906Y0013619D01*
X0036908Y0013461D01*
X0036906Y0013303D01*
X0036900Y0013145D01*
X0036890Y0012987D01*
X0036876Y0012829D01*
X0036858Y0012672D01*
X0036837Y0012515D01*
X0036811Y0012359D01*
X0036781Y0012203D01*
X0036748Y0012048D01*
X0036710Y0011895D01*
X0036669Y0011742D01*
X0036624Y0011590D01*
X0036575Y0011439D01*
X0036522Y0011290D01*
X0036466Y0011142D01*
X0036406Y0010996D01*
X0036342Y0010851D01*
X0036274Y0010708D01*
X0036203Y0010566D01*
X0036129Y0010426D01*
X0036051Y0010289D01*
X0035969Y0010153D01*
X0035885Y0010019D01*
X0035796Y0009888D01*
X0035705Y0009759D01*
X0035610Y0009632D01*
X0035513Y0009507D01*
X0035412Y0009385D01*
X0035308Y0009266D01*
X0035201Y0009149D01*
X0035091Y0009035D01*
X0034978Y0008924D01*
X0034863Y0008815D01*
X0034745Y0008710D01*
X0034624Y0008608D01*
X0034501Y0008508D01*
X0034375Y0008412D01*
X0034247Y0008319D01*
X0034117Y0008229D01*
X0033984Y0008143D01*
X0033849Y0008059D01*
X0033713Y0007980D01*
X0033574Y0007903D01*
X0033433Y0007831D01*
X0033291Y0007761D01*
X0033147Y0007696D01*
X0033001Y0007634D01*
X0032854Y0007576D01*
X0032705Y0007521D01*
X0032555Y0007470D01*
X0032404Y0007423D01*
X0032252Y0007380D01*
X0032099Y0007341D01*
X0031944Y0007305D01*
X0031789Y0007274D01*
X0031633Y0007246D01*
X0031477Y0007222D01*
X0031320Y0007202D01*
X0031162Y0007186D01*
X0031005Y0007174D01*
X0030846Y0007166D01*
X0030688Y0007162D01*
X0030530Y0007162D01*
X0030372Y0007166D01*
X0030213Y0007174D01*
X0030056Y0007186D01*
X0029898Y0007202D01*
X0029741Y0007222D01*
X0029585Y0007246D01*
X0029429Y0007274D01*
X0029274Y0007305D01*
X0029119Y0007341D01*
X0028966Y0007380D01*
X0028814Y0007423D01*
X0028663Y0007470D01*
X0028513Y0007521D01*
X0028364Y0007576D01*
X0028217Y0007634D01*
X0028071Y0007696D01*
X0027927Y0007761D01*
X0027785Y0007831D01*
X0027644Y0007903D01*
X0027505Y0007980D01*
X0027369Y0008059D01*
X0027234Y0008143D01*
X0027101Y0008229D01*
X0026971Y0008319D01*
X0026843Y0008412D01*
X0026717Y0008508D01*
X0026594Y0008608D01*
X0026473Y0008710D01*
X0026355Y0008815D01*
X0026240Y0008924D01*
X0026127Y0009035D01*
X0026017Y0009149D01*
X0025910Y0009266D01*
X0025806Y0009385D01*
X0025705Y0009507D01*
X0025608Y0009632D01*
X0025513Y0009759D01*
X0025422Y0009888D01*
X0025333Y0010019D01*
X0025249Y0010153D01*
X0025167Y0010289D01*
X0025089Y0010426D01*
X0025015Y0010566D01*
X0024944Y0010708D01*
X0024876Y0010851D01*
X0024812Y0010996D01*
X0024752Y0011142D01*
X0024696Y0011290D01*
X0024643Y0011439D01*
X0024594Y0011590D01*
X0024549Y0011742D01*
X0024508Y0011895D01*
X0024470Y0012048D01*
X0024437Y0012203D01*
X0024407Y0012359D01*
X0024381Y0012515D01*
X0024360Y0012672D01*
X0024342Y0012829D01*
X0024328Y0012987D01*
X0024318Y0013145D01*
X0024312Y0013303D01*
X0024310Y0013461D01*
X0129035Y0059976D02*
X0129039Y0060290D01*
X0129050Y0060604D01*
X0129070Y0060917D01*
X0129097Y0061230D01*
X0129131Y0061542D01*
X0129173Y0061853D01*
X0129223Y0062163D01*
X0129281Y0062472D01*
X0129346Y0062779D01*
X0129418Y0063085D01*
X0129498Y0063389D01*
X0129586Y0063690D01*
X0129681Y0063990D01*
X0129783Y0064287D01*
X0129892Y0064581D01*
X0130009Y0064872D01*
X0130133Y0065161D01*
X0130263Y0065447D01*
X0130401Y0065729D01*
X0130546Y0066008D01*
X0130697Y0066283D01*
X0130855Y0066554D01*
X0131020Y0066821D01*
X0131191Y0067085D01*
X0131369Y0067343D01*
X0131553Y0067598D01*
X0131743Y0067848D01*
X0131939Y0068093D01*
X0132142Y0068333D01*
X0132350Y0068569D01*
X0132563Y0068799D01*
X0132783Y0069023D01*
X0133007Y0069243D01*
X0133237Y0069456D01*
X0133473Y0069664D01*
X0133713Y0069867D01*
X0133958Y0070063D01*
X0134208Y0070253D01*
X0134463Y0070437D01*
X0134721Y0070615D01*
X0134985Y0070786D01*
X0135252Y0070951D01*
X0135523Y0071109D01*
X0135798Y0071260D01*
X0136077Y0071405D01*
X0136359Y0071543D01*
X0136645Y0071673D01*
X0136934Y0071797D01*
X0137225Y0071914D01*
X0137519Y0072023D01*
X0137816Y0072125D01*
X0138116Y0072220D01*
X0138417Y0072308D01*
X0138721Y0072388D01*
X0139027Y0072460D01*
X0139334Y0072525D01*
X0139643Y0072583D01*
X0139953Y0072633D01*
X0140264Y0072675D01*
X0140576Y0072709D01*
X0140889Y0072736D01*
X0141202Y0072756D01*
X0141516Y0072767D01*
X0141830Y0072771D01*
X0142144Y0072767D01*
X0142458Y0072756D01*
X0142771Y0072736D01*
X0143084Y0072709D01*
X0143396Y0072675D01*
X0143707Y0072633D01*
X0144017Y0072583D01*
X0144326Y0072525D01*
X0144633Y0072460D01*
X0144939Y0072388D01*
X0145243Y0072308D01*
X0145544Y0072220D01*
X0145844Y0072125D01*
X0146141Y0072023D01*
X0146435Y0071914D01*
X0146726Y0071797D01*
X0147015Y0071673D01*
X0147301Y0071543D01*
X0147583Y0071405D01*
X0147862Y0071260D01*
X0148137Y0071109D01*
X0148408Y0070951D01*
X0148675Y0070786D01*
X0148939Y0070615D01*
X0149197Y0070437D01*
X0149452Y0070253D01*
X0149702Y0070063D01*
X0149947Y0069867D01*
X0150187Y0069664D01*
X0150423Y0069456D01*
X0150653Y0069243D01*
X0150877Y0069023D01*
X0151097Y0068799D01*
X0151310Y0068569D01*
X0151518Y0068333D01*
X0151721Y0068093D01*
X0151917Y0067848D01*
X0152107Y0067598D01*
X0152291Y0067343D01*
X0152469Y0067085D01*
X0152640Y0066821D01*
X0152805Y0066554D01*
X0152963Y0066283D01*
X0153114Y0066008D01*
X0153259Y0065729D01*
X0153397Y0065447D01*
X0153527Y0065161D01*
X0153651Y0064872D01*
X0153768Y0064581D01*
X0153877Y0064287D01*
X0153979Y0063990D01*
X0154074Y0063690D01*
X0154162Y0063389D01*
X0154242Y0063085D01*
X0154314Y0062779D01*
X0154379Y0062472D01*
X0154437Y0062163D01*
X0154487Y0061853D01*
X0154529Y0061542D01*
X0154563Y0061230D01*
X0154590Y0060917D01*
X0154610Y0060604D01*
X0154621Y0060290D01*
X0154625Y0059976D01*
X0154621Y0059662D01*
X0154610Y0059348D01*
X0154590Y0059035D01*
X0154563Y0058722D01*
X0154529Y0058410D01*
X0154487Y0058099D01*
X0154437Y0057789D01*
X0154379Y0057480D01*
X0154314Y0057173D01*
X0154242Y0056867D01*
X0154162Y0056563D01*
X0154074Y0056262D01*
X0153979Y0055962D01*
X0153877Y0055665D01*
X0153768Y0055371D01*
X0153651Y0055080D01*
X0153527Y0054791D01*
X0153397Y0054505D01*
X0153259Y0054223D01*
X0153114Y0053944D01*
X0152963Y0053669D01*
X0152805Y0053398D01*
X0152640Y0053131D01*
X0152469Y0052867D01*
X0152291Y0052609D01*
X0152107Y0052354D01*
X0151917Y0052104D01*
X0151721Y0051859D01*
X0151518Y0051619D01*
X0151310Y0051383D01*
X0151097Y0051153D01*
X0150877Y0050929D01*
X0150653Y0050709D01*
X0150423Y0050496D01*
X0150187Y0050288D01*
X0149947Y0050085D01*
X0149702Y0049889D01*
X0149452Y0049699D01*
X0149197Y0049515D01*
X0148939Y0049337D01*
X0148675Y0049166D01*
X0148408Y0049001D01*
X0148137Y0048843D01*
X0147862Y0048692D01*
X0147583Y0048547D01*
X0147301Y0048409D01*
X0147015Y0048279D01*
X0146726Y0048155D01*
X0146435Y0048038D01*
X0146141Y0047929D01*
X0145844Y0047827D01*
X0145544Y0047732D01*
X0145243Y0047644D01*
X0144939Y0047564D01*
X0144633Y0047492D01*
X0144326Y0047427D01*
X0144017Y0047369D01*
X0143707Y0047319D01*
X0143396Y0047277D01*
X0143084Y0047243D01*
X0142771Y0047216D01*
X0142458Y0047196D01*
X0142144Y0047185D01*
X0141830Y0047181D01*
X0141516Y0047185D01*
X0141202Y0047196D01*
X0140889Y0047216D01*
X0140576Y0047243D01*
X0140264Y0047277D01*
X0139953Y0047319D01*
X0139643Y0047369D01*
X0139334Y0047427D01*
X0139027Y0047492D01*
X0138721Y0047564D01*
X0138417Y0047644D01*
X0138116Y0047732D01*
X0137816Y0047827D01*
X0137519Y0047929D01*
X0137225Y0048038D01*
X0136934Y0048155D01*
X0136645Y0048279D01*
X0136359Y0048409D01*
X0136077Y0048547D01*
X0135798Y0048692D01*
X0135523Y0048843D01*
X0135252Y0049001D01*
X0134985Y0049166D01*
X0134721Y0049337D01*
X0134463Y0049515D01*
X0134208Y0049699D01*
X0133958Y0049889D01*
X0133713Y0050085D01*
X0133473Y0050288D01*
X0133237Y0050496D01*
X0133007Y0050709D01*
X0132783Y0050929D01*
X0132563Y0051153D01*
X0132350Y0051383D01*
X0132142Y0051619D01*
X0131939Y0051859D01*
X0131743Y0052104D01*
X0131553Y0052354D01*
X0131369Y0052609D01*
X0131191Y0052867D01*
X0131020Y0053131D01*
X0130855Y0053398D01*
X0130697Y0053669D01*
X0130546Y0053944D01*
X0130401Y0054223D01*
X0130263Y0054505D01*
X0130133Y0054791D01*
X0130009Y0055080D01*
X0129892Y0055371D01*
X0129783Y0055665D01*
X0129681Y0055962D01*
X0129586Y0056262D01*
X0129498Y0056563D01*
X0129418Y0056867D01*
X0129346Y0057173D01*
X0129281Y0057480D01*
X0129223Y0057789D01*
X0129173Y0058099D01*
X0129131Y0058410D01*
X0129097Y0058722D01*
X0129070Y0059035D01*
X0129050Y0059348D01*
X0129039Y0059662D01*
X0129035Y0059976D01*
X0208543Y0059996D02*
X0208547Y0060310D01*
X0208558Y0060624D01*
X0208578Y0060937D01*
X0208605Y0061250D01*
X0208639Y0061562D01*
X0208681Y0061873D01*
X0208731Y0062183D01*
X0208789Y0062492D01*
X0208854Y0062799D01*
X0208926Y0063105D01*
X0209006Y0063409D01*
X0209094Y0063710D01*
X0209189Y0064010D01*
X0209291Y0064307D01*
X0209400Y0064601D01*
X0209517Y0064892D01*
X0209641Y0065181D01*
X0209771Y0065467D01*
X0209909Y0065749D01*
X0210054Y0066028D01*
X0210205Y0066303D01*
X0210363Y0066574D01*
X0210528Y0066841D01*
X0210699Y0067105D01*
X0210877Y0067363D01*
X0211061Y0067618D01*
X0211251Y0067868D01*
X0211447Y0068113D01*
X0211650Y0068353D01*
X0211858Y0068589D01*
X0212071Y0068819D01*
X0212291Y0069043D01*
X0212515Y0069263D01*
X0212745Y0069476D01*
X0212981Y0069684D01*
X0213221Y0069887D01*
X0213466Y0070083D01*
X0213716Y0070273D01*
X0213971Y0070457D01*
X0214229Y0070635D01*
X0214493Y0070806D01*
X0214760Y0070971D01*
X0215031Y0071129D01*
X0215306Y0071280D01*
X0215585Y0071425D01*
X0215867Y0071563D01*
X0216153Y0071693D01*
X0216442Y0071817D01*
X0216733Y0071934D01*
X0217027Y0072043D01*
X0217324Y0072145D01*
X0217624Y0072240D01*
X0217925Y0072328D01*
X0218229Y0072408D01*
X0218535Y0072480D01*
X0218842Y0072545D01*
X0219151Y0072603D01*
X0219461Y0072653D01*
X0219772Y0072695D01*
X0220084Y0072729D01*
X0220397Y0072756D01*
X0220710Y0072776D01*
X0221024Y0072787D01*
X0221338Y0072791D01*
X0221652Y0072787D01*
X0221966Y0072776D01*
X0222279Y0072756D01*
X0222592Y0072729D01*
X0222904Y0072695D01*
X0223215Y0072653D01*
X0223525Y0072603D01*
X0223834Y0072545D01*
X0224141Y0072480D01*
X0224447Y0072408D01*
X0224751Y0072328D01*
X0225052Y0072240D01*
X0225352Y0072145D01*
X0225649Y0072043D01*
X0225943Y0071934D01*
X0226234Y0071817D01*
X0226523Y0071693D01*
X0226809Y0071563D01*
X0227091Y0071425D01*
X0227370Y0071280D01*
X0227645Y0071129D01*
X0227916Y0070971D01*
X0228183Y0070806D01*
X0228447Y0070635D01*
X0228705Y0070457D01*
X0228960Y0070273D01*
X0229210Y0070083D01*
X0229455Y0069887D01*
X0229695Y0069684D01*
X0229931Y0069476D01*
X0230161Y0069263D01*
X0230385Y0069043D01*
X0230605Y0068819D01*
X0230818Y0068589D01*
X0231026Y0068353D01*
X0231229Y0068113D01*
X0231425Y0067868D01*
X0231615Y0067618D01*
X0231799Y0067363D01*
X0231977Y0067105D01*
X0232148Y0066841D01*
X0232313Y0066574D01*
X0232471Y0066303D01*
X0232622Y0066028D01*
X0232767Y0065749D01*
X0232905Y0065467D01*
X0233035Y0065181D01*
X0233159Y0064892D01*
X0233276Y0064601D01*
X0233385Y0064307D01*
X0233487Y0064010D01*
X0233582Y0063710D01*
X0233670Y0063409D01*
X0233750Y0063105D01*
X0233822Y0062799D01*
X0233887Y0062492D01*
X0233945Y0062183D01*
X0233995Y0061873D01*
X0234037Y0061562D01*
X0234071Y0061250D01*
X0234098Y0060937D01*
X0234118Y0060624D01*
X0234129Y0060310D01*
X0234133Y0059996D01*
X0234129Y0059682D01*
X0234118Y0059368D01*
X0234098Y0059055D01*
X0234071Y0058742D01*
X0234037Y0058430D01*
X0233995Y0058119D01*
X0233945Y0057809D01*
X0233887Y0057500D01*
X0233822Y0057193D01*
X0233750Y0056887D01*
X0233670Y0056583D01*
X0233582Y0056282D01*
X0233487Y0055982D01*
X0233385Y0055685D01*
X0233276Y0055391D01*
X0233159Y0055100D01*
X0233035Y0054811D01*
X0232905Y0054525D01*
X0232767Y0054243D01*
X0232622Y0053964D01*
X0232471Y0053689D01*
X0232313Y0053418D01*
X0232148Y0053151D01*
X0231977Y0052887D01*
X0231799Y0052629D01*
X0231615Y0052374D01*
X0231425Y0052124D01*
X0231229Y0051879D01*
X0231026Y0051639D01*
X0230818Y0051403D01*
X0230605Y0051173D01*
X0230385Y0050949D01*
X0230161Y0050729D01*
X0229931Y0050516D01*
X0229695Y0050308D01*
X0229455Y0050105D01*
X0229210Y0049909D01*
X0228960Y0049719D01*
X0228705Y0049535D01*
X0228447Y0049357D01*
X0228183Y0049186D01*
X0227916Y0049021D01*
X0227645Y0048863D01*
X0227370Y0048712D01*
X0227091Y0048567D01*
X0226809Y0048429D01*
X0226523Y0048299D01*
X0226234Y0048175D01*
X0225943Y0048058D01*
X0225649Y0047949D01*
X0225352Y0047847D01*
X0225052Y0047752D01*
X0224751Y0047664D01*
X0224447Y0047584D01*
X0224141Y0047512D01*
X0223834Y0047447D01*
X0223525Y0047389D01*
X0223215Y0047339D01*
X0222904Y0047297D01*
X0222592Y0047263D01*
X0222279Y0047236D01*
X0221966Y0047216D01*
X0221652Y0047205D01*
X0221338Y0047201D01*
X0221024Y0047205D01*
X0220710Y0047216D01*
X0220397Y0047236D01*
X0220084Y0047263D01*
X0219772Y0047297D01*
X0219461Y0047339D01*
X0219151Y0047389D01*
X0218842Y0047447D01*
X0218535Y0047512D01*
X0218229Y0047584D01*
X0217925Y0047664D01*
X0217624Y0047752D01*
X0217324Y0047847D01*
X0217027Y0047949D01*
X0216733Y0048058D01*
X0216442Y0048175D01*
X0216153Y0048299D01*
X0215867Y0048429D01*
X0215585Y0048567D01*
X0215306Y0048712D01*
X0215031Y0048863D01*
X0214760Y0049021D01*
X0214493Y0049186D01*
X0214229Y0049357D01*
X0213971Y0049535D01*
X0213716Y0049719D01*
X0213466Y0049909D01*
X0213221Y0050105D01*
X0212981Y0050308D01*
X0212745Y0050516D01*
X0212515Y0050729D01*
X0212291Y0050949D01*
X0212071Y0051173D01*
X0211858Y0051403D01*
X0211650Y0051639D01*
X0211447Y0051879D01*
X0211251Y0052124D01*
X0211061Y0052374D01*
X0210877Y0052629D01*
X0210699Y0052887D01*
X0210528Y0053151D01*
X0210363Y0053418D01*
X0210205Y0053689D01*
X0210054Y0053964D01*
X0209909Y0054243D01*
X0209771Y0054525D01*
X0209641Y0054811D01*
X0209517Y0055100D01*
X0209400Y0055391D01*
X0209291Y0055685D01*
X0209189Y0055982D01*
X0209094Y0056282D01*
X0209006Y0056583D01*
X0208926Y0056887D01*
X0208854Y0057193D01*
X0208789Y0057500D01*
X0208731Y0057809D01*
X0208681Y0058119D01*
X0208639Y0058430D01*
X0208605Y0058742D01*
X0208578Y0059055D01*
X0208558Y0059368D01*
X0208547Y0059682D01*
X0208543Y0059996D01*
X0246102Y0013461D02*
X0246104Y0013619D01*
X0246110Y0013777D01*
X0246120Y0013935D01*
X0246134Y0014093D01*
X0246152Y0014250D01*
X0246173Y0014407D01*
X0246199Y0014563D01*
X0246229Y0014719D01*
X0246262Y0014874D01*
X0246300Y0015027D01*
X0246341Y0015180D01*
X0246386Y0015332D01*
X0246435Y0015483D01*
X0246488Y0015632D01*
X0246544Y0015780D01*
X0246604Y0015926D01*
X0246668Y0016071D01*
X0246736Y0016214D01*
X0246807Y0016356D01*
X0246881Y0016496D01*
X0246959Y0016633D01*
X0247041Y0016769D01*
X0247125Y0016903D01*
X0247214Y0017034D01*
X0247305Y0017163D01*
X0247400Y0017290D01*
X0247497Y0017415D01*
X0247598Y0017537D01*
X0247702Y0017656D01*
X0247809Y0017773D01*
X0247919Y0017887D01*
X0248032Y0017998D01*
X0248147Y0018107D01*
X0248265Y0018212D01*
X0248386Y0018314D01*
X0248509Y0018414D01*
X0248635Y0018510D01*
X0248763Y0018603D01*
X0248893Y0018693D01*
X0249026Y0018779D01*
X0249161Y0018863D01*
X0249297Y0018942D01*
X0249436Y0019019D01*
X0249577Y0019091D01*
X0249719Y0019161D01*
X0249863Y0019226D01*
X0250009Y0019288D01*
X0250156Y0019346D01*
X0250305Y0019401D01*
X0250455Y0019452D01*
X0250606Y0019499D01*
X0250758Y0019542D01*
X0250911Y0019581D01*
X0251066Y0019617D01*
X0251221Y0019648D01*
X0251377Y0019676D01*
X0251533Y0019700D01*
X0251690Y0019720D01*
X0251848Y0019736D01*
X0252005Y0019748D01*
X0252164Y0019756D01*
X0252322Y0019760D01*
X0252480Y0019760D01*
X0252638Y0019756D01*
X0252797Y0019748D01*
X0252954Y0019736D01*
X0253112Y0019720D01*
X0253269Y0019700D01*
X0253425Y0019676D01*
X0253581Y0019648D01*
X0253736Y0019617D01*
X0253891Y0019581D01*
X0254044Y0019542D01*
X0254196Y0019499D01*
X0254347Y0019452D01*
X0254497Y0019401D01*
X0254646Y0019346D01*
X0254793Y0019288D01*
X0254939Y0019226D01*
X0255083Y0019161D01*
X0255225Y0019091D01*
X0255366Y0019019D01*
X0255505Y0018942D01*
X0255641Y0018863D01*
X0255776Y0018779D01*
X0255909Y0018693D01*
X0256039Y0018603D01*
X0256167Y0018510D01*
X0256293Y0018414D01*
X0256416Y0018314D01*
X0256537Y0018212D01*
X0256655Y0018107D01*
X0256770Y0017998D01*
X0256883Y0017887D01*
X0256993Y0017773D01*
X0257100Y0017656D01*
X0257204Y0017537D01*
X0257305Y0017415D01*
X0257402Y0017290D01*
X0257497Y0017163D01*
X0257588Y0017034D01*
X0257677Y0016903D01*
X0257761Y0016769D01*
X0257843Y0016633D01*
X0257921Y0016496D01*
X0257995Y0016356D01*
X0258066Y0016214D01*
X0258134Y0016071D01*
X0258198Y0015926D01*
X0258258Y0015780D01*
X0258314Y0015632D01*
X0258367Y0015483D01*
X0258416Y0015332D01*
X0258461Y0015180D01*
X0258502Y0015027D01*
X0258540Y0014874D01*
X0258573Y0014719D01*
X0258603Y0014563D01*
X0258629Y0014407D01*
X0258650Y0014250D01*
X0258668Y0014093D01*
X0258682Y0013935D01*
X0258692Y0013777D01*
X0258698Y0013619D01*
X0258700Y0013461D01*
X0258698Y0013303D01*
X0258692Y0013145D01*
X0258682Y0012987D01*
X0258668Y0012829D01*
X0258650Y0012672D01*
X0258629Y0012515D01*
X0258603Y0012359D01*
X0258573Y0012203D01*
X0258540Y0012048D01*
X0258502Y0011895D01*
X0258461Y0011742D01*
X0258416Y0011590D01*
X0258367Y0011439D01*
X0258314Y0011290D01*
X0258258Y0011142D01*
X0258198Y0010996D01*
X0258134Y0010851D01*
X0258066Y0010708D01*
X0257995Y0010566D01*
X0257921Y0010426D01*
X0257843Y0010289D01*
X0257761Y0010153D01*
X0257677Y0010019D01*
X0257588Y0009888D01*
X0257497Y0009759D01*
X0257402Y0009632D01*
X0257305Y0009507D01*
X0257204Y0009385D01*
X0257100Y0009266D01*
X0256993Y0009149D01*
X0256883Y0009035D01*
X0256770Y0008924D01*
X0256655Y0008815D01*
X0256537Y0008710D01*
X0256416Y0008608D01*
X0256293Y0008508D01*
X0256167Y0008412D01*
X0256039Y0008319D01*
X0255909Y0008229D01*
X0255776Y0008143D01*
X0255641Y0008059D01*
X0255505Y0007980D01*
X0255366Y0007903D01*
X0255225Y0007831D01*
X0255083Y0007761D01*
X0254939Y0007696D01*
X0254793Y0007634D01*
X0254646Y0007576D01*
X0254497Y0007521D01*
X0254347Y0007470D01*
X0254196Y0007423D01*
X0254044Y0007380D01*
X0253891Y0007341D01*
X0253736Y0007305D01*
X0253581Y0007274D01*
X0253425Y0007246D01*
X0253269Y0007222D01*
X0253112Y0007202D01*
X0252954Y0007186D01*
X0252797Y0007174D01*
X0252638Y0007166D01*
X0252480Y0007162D01*
X0252322Y0007162D01*
X0252164Y0007166D01*
X0252005Y0007174D01*
X0251848Y0007186D01*
X0251690Y0007202D01*
X0251533Y0007222D01*
X0251377Y0007246D01*
X0251221Y0007274D01*
X0251066Y0007305D01*
X0250911Y0007341D01*
X0250758Y0007380D01*
X0250606Y0007423D01*
X0250455Y0007470D01*
X0250305Y0007521D01*
X0250156Y0007576D01*
X0250009Y0007634D01*
X0249863Y0007696D01*
X0249719Y0007761D01*
X0249577Y0007831D01*
X0249436Y0007903D01*
X0249297Y0007980D01*
X0249161Y0008059D01*
X0249026Y0008143D01*
X0248893Y0008229D01*
X0248763Y0008319D01*
X0248635Y0008412D01*
X0248509Y0008508D01*
X0248386Y0008608D01*
X0248265Y0008710D01*
X0248147Y0008815D01*
X0248032Y0008924D01*
X0247919Y0009035D01*
X0247809Y0009149D01*
X0247702Y0009266D01*
X0247598Y0009385D01*
X0247497Y0009507D01*
X0247400Y0009632D01*
X0247305Y0009759D01*
X0247214Y0009888D01*
X0247125Y0010019D01*
X0247041Y0010153D01*
X0246959Y0010289D01*
X0246881Y0010426D01*
X0246807Y0010566D01*
X0246736Y0010708D01*
X0246668Y0010851D01*
X0246604Y0010996D01*
X0246544Y0011142D01*
X0246488Y0011290D01*
X0246435Y0011439D01*
X0246386Y0011590D01*
X0246341Y0011742D01*
X0246300Y0011895D01*
X0246262Y0012048D01*
X0246229Y0012203D01*
X0246199Y0012359D01*
X0246173Y0012515D01*
X0246152Y0012672D01*
X0246134Y0012829D01*
X0246120Y0012987D01*
X0246110Y0013145D01*
X0246104Y0013303D01*
X0246102Y0013461D01*
M02*
