G75*
%MOIN*%
%OFA0B0*%
%FSLAX25Y25*%
%IPPOS*%
%LPD*%
%AMOC8*
5,1,8,0,0,1.08239X$1,22.5*
%
%ADD10C,0.00394*%
D10*
X0005597Y0005987D02*
X0005597Y0503099D01*
X0023419Y0503099D01*
X0022388Y0502068D01*
X0021032Y0499719D01*
X0020330Y0497100D01*
X0020330Y0494388D01*
X0021032Y0491769D01*
X0022388Y0489420D01*
X0024305Y0487503D01*
X0026654Y0486147D01*
X0029273Y0485445D01*
X0031985Y0485445D01*
X0034604Y0486147D01*
X0036953Y0487503D01*
X0038871Y0489420D01*
X0040226Y0491769D01*
X0040928Y0494388D01*
X0040928Y0497100D01*
X0040226Y0499719D01*
X0038871Y0502068D01*
X0037839Y0503099D01*
X0244893Y0503099D01*
X0243982Y0502189D01*
X0242600Y0499795D01*
X0241885Y0497126D01*
X0241885Y0494362D01*
X0242600Y0491693D01*
X0243982Y0489299D01*
X0245936Y0487345D01*
X0248330Y0485963D01*
X0250999Y0485248D01*
X0253763Y0485248D01*
X0256432Y0485963D01*
X0258826Y0487345D01*
X0260780Y0489299D01*
X0262162Y0491693D01*
X0262877Y0494362D01*
X0262877Y0497126D01*
X0262162Y0499795D01*
X0260780Y0502189D01*
X0259870Y0503099D01*
X0275543Y0503099D01*
X0275543Y0005987D01*
X0259771Y0005987D01*
X0260800Y0007016D01*
X0262182Y0009409D01*
X0262897Y0012079D01*
X0262897Y0014842D01*
X0262182Y0017512D01*
X0260800Y0019905D01*
X0258846Y0021860D01*
X0256452Y0023241D01*
X0253783Y0023957D01*
X0251019Y0023957D01*
X0248349Y0023241D01*
X0245956Y0021860D01*
X0244002Y0019905D01*
X0242620Y0017512D01*
X0241905Y0014842D01*
X0241905Y0012079D01*
X0242620Y0009409D01*
X0244002Y0007016D01*
X0245030Y0005987D01*
X0037980Y0005987D01*
X0039008Y0007016D01*
X0040390Y0009409D01*
X0041105Y0012079D01*
X0041105Y0014842D01*
X0040390Y0017512D01*
X0039008Y0019905D01*
X0037054Y0021860D01*
X0034661Y0023241D01*
X0031991Y0023957D01*
X0029228Y0023957D01*
X0026558Y0023241D01*
X0024165Y0021860D01*
X0022211Y0019905D01*
X0020829Y0017512D01*
X0020113Y0014842D01*
X0020113Y0012079D01*
X0020829Y0009409D01*
X0022211Y0007016D01*
X0023239Y0005987D01*
X0005597Y0005987D01*
X0005597Y0006249D02*
X0022977Y0006249D01*
X0022585Y0006641D02*
X0005597Y0006641D01*
X0005597Y0007033D02*
X0022200Y0007033D01*
X0021974Y0007426D02*
X0005597Y0007426D01*
X0005597Y0007818D02*
X0021748Y0007818D01*
X0021521Y0008210D02*
X0005597Y0008210D01*
X0005597Y0008602D02*
X0021295Y0008602D01*
X0021068Y0008994D02*
X0005597Y0008994D01*
X0005597Y0009387D02*
X0020842Y0009387D01*
X0020730Y0009779D02*
X0005597Y0009779D01*
X0005597Y0010171D02*
X0020625Y0010171D01*
X0020519Y0010563D02*
X0005597Y0010563D01*
X0005597Y0010956D02*
X0020414Y0010956D01*
X0020309Y0011348D02*
X0005597Y0011348D01*
X0005597Y0011740D02*
X0020204Y0011740D01*
X0020113Y0012132D02*
X0005597Y0012132D01*
X0005597Y0012524D02*
X0020113Y0012524D01*
X0020113Y0012917D02*
X0005597Y0012917D01*
X0005597Y0013309D02*
X0020113Y0013309D01*
X0020113Y0013701D02*
X0005597Y0013701D01*
X0005597Y0014093D02*
X0020113Y0014093D01*
X0020113Y0014485D02*
X0005597Y0014485D01*
X0005597Y0014878D02*
X0020123Y0014878D01*
X0020228Y0015270D02*
X0005597Y0015270D01*
X0005597Y0015662D02*
X0020333Y0015662D01*
X0020438Y0016054D02*
X0005597Y0016054D01*
X0005597Y0016447D02*
X0020543Y0016447D01*
X0020648Y0016839D02*
X0005597Y0016839D01*
X0005597Y0017231D02*
X0020753Y0017231D01*
X0020893Y0017623D02*
X0005597Y0017623D01*
X0005597Y0018015D02*
X0021119Y0018015D01*
X0021346Y0018408D02*
X0005597Y0018408D01*
X0005597Y0018800D02*
X0021572Y0018800D01*
X0021799Y0019192D02*
X0005597Y0019192D01*
X0005597Y0019584D02*
X0022025Y0019584D01*
X0022282Y0019976D02*
X0005597Y0019976D01*
X0005597Y0020369D02*
X0022674Y0020369D01*
X0023066Y0020761D02*
X0005597Y0020761D01*
X0005597Y0021153D02*
X0023458Y0021153D01*
X0023850Y0021545D02*
X0005597Y0021545D01*
X0005597Y0021937D02*
X0024300Y0021937D01*
X0024979Y0022330D02*
X0005597Y0022330D01*
X0005597Y0022722D02*
X0025658Y0022722D01*
X0026338Y0023114D02*
X0005597Y0023114D01*
X0005597Y0023506D02*
X0027547Y0023506D01*
X0029011Y0023899D02*
X0005597Y0023899D01*
X0005597Y0024291D02*
X0275543Y0024291D01*
X0275543Y0024683D02*
X0005597Y0024683D01*
X0005597Y0025075D02*
X0275543Y0025075D01*
X0275543Y0025467D02*
X0005597Y0025467D01*
X0005597Y0025860D02*
X0275543Y0025860D01*
X0275543Y0026252D02*
X0005597Y0026252D01*
X0005597Y0026644D02*
X0275543Y0026644D01*
X0275543Y0027036D02*
X0005597Y0027036D01*
X0005597Y0027428D02*
X0275543Y0027428D01*
X0275543Y0027821D02*
X0005597Y0027821D01*
X0005597Y0028213D02*
X0275543Y0028213D01*
X0275543Y0028605D02*
X0005597Y0028605D01*
X0005597Y0028997D02*
X0275543Y0028997D01*
X0275543Y0029390D02*
X0005597Y0029390D01*
X0005597Y0029782D02*
X0275543Y0029782D01*
X0275543Y0030174D02*
X0005597Y0030174D01*
X0005597Y0030566D02*
X0275543Y0030566D01*
X0275543Y0030958D02*
X0005597Y0030958D01*
X0005597Y0031351D02*
X0275543Y0031351D01*
X0275543Y0031743D02*
X0005597Y0031743D01*
X0005597Y0032135D02*
X0275543Y0032135D01*
X0275543Y0032527D02*
X0005597Y0032527D01*
X0005597Y0032919D02*
X0275543Y0032919D01*
X0275543Y0033312D02*
X0005597Y0033312D01*
X0005597Y0033704D02*
X0275543Y0033704D01*
X0275543Y0034096D02*
X0005597Y0034096D01*
X0005597Y0034488D02*
X0275543Y0034488D01*
X0275543Y0034880D02*
X0005597Y0034880D01*
X0005597Y0035273D02*
X0275543Y0035273D01*
X0275543Y0035665D02*
X0005597Y0035665D01*
X0005597Y0036057D02*
X0275543Y0036057D01*
X0275543Y0036449D02*
X0005597Y0036449D01*
X0005597Y0036842D02*
X0275543Y0036842D01*
X0275543Y0037234D02*
X0005597Y0037234D01*
X0005597Y0037626D02*
X0275543Y0037626D01*
X0275543Y0038018D02*
X0005597Y0038018D01*
X0005597Y0038410D02*
X0275543Y0038410D01*
X0275543Y0038803D02*
X0005597Y0038803D01*
X0005597Y0039195D02*
X0275543Y0039195D01*
X0275543Y0039587D02*
X0005597Y0039587D01*
X0005597Y0039979D02*
X0275543Y0039979D01*
X0275543Y0040371D02*
X0005597Y0040371D01*
X0005597Y0040764D02*
X0275543Y0040764D01*
X0275543Y0041156D02*
X0005597Y0041156D01*
X0005597Y0041548D02*
X0275543Y0041548D01*
X0275543Y0041940D02*
X0005597Y0041940D01*
X0005597Y0042333D02*
X0275543Y0042333D01*
X0275543Y0042725D02*
X0005597Y0042725D01*
X0005597Y0043117D02*
X0057577Y0043117D01*
X0057998Y0043004D02*
X0062472Y0043004D01*
X0066794Y0044162D01*
X0070669Y0046399D01*
X0073833Y0049563D01*
X0076070Y0053437D01*
X0077228Y0057759D01*
X0077228Y0062233D01*
X0076070Y0066555D01*
X0073833Y0070429D01*
X0070669Y0073593D01*
X0066794Y0075830D01*
X0062472Y0076988D01*
X0057998Y0076988D01*
X0053677Y0075830D01*
X0049802Y0073593D01*
X0046638Y0070429D01*
X0044401Y0066555D01*
X0043243Y0062233D01*
X0043243Y0057759D01*
X0044401Y0053437D01*
X0046638Y0049563D01*
X0049802Y0046399D01*
X0053677Y0044162D01*
X0057998Y0043004D01*
X0056113Y0043509D02*
X0005597Y0043509D01*
X0005597Y0043901D02*
X0054649Y0043901D01*
X0053449Y0044294D02*
X0005597Y0044294D01*
X0005597Y0044686D02*
X0052769Y0044686D01*
X0052090Y0045078D02*
X0005597Y0045078D01*
X0005597Y0045470D02*
X0051411Y0045470D01*
X0050731Y0045862D02*
X0005597Y0045862D01*
X0005597Y0046255D02*
X0050052Y0046255D01*
X0049554Y0046647D02*
X0005597Y0046647D01*
X0005597Y0047039D02*
X0049162Y0047039D01*
X0048770Y0047431D02*
X0005597Y0047431D01*
X0005597Y0047823D02*
X0048378Y0047823D01*
X0047985Y0048216D02*
X0005597Y0048216D01*
X0005597Y0048608D02*
X0047593Y0048608D01*
X0047201Y0049000D02*
X0005597Y0049000D01*
X0005597Y0049392D02*
X0046809Y0049392D01*
X0046510Y0049785D02*
X0005597Y0049785D01*
X0005597Y0050177D02*
X0046284Y0050177D01*
X0046057Y0050569D02*
X0005597Y0050569D01*
X0005597Y0050961D02*
X0045831Y0050961D01*
X0045604Y0051353D02*
X0005597Y0051353D01*
X0005597Y0051746D02*
X0045378Y0051746D01*
X0045152Y0052138D02*
X0005597Y0052138D01*
X0005597Y0052530D02*
X0044925Y0052530D01*
X0044699Y0052922D02*
X0005597Y0052922D01*
X0005597Y0053314D02*
X0044472Y0053314D01*
X0044329Y0053707D02*
X0005597Y0053707D01*
X0005597Y0054099D02*
X0044224Y0054099D01*
X0044119Y0054491D02*
X0005597Y0054491D01*
X0005597Y0054883D02*
X0044014Y0054883D01*
X0043909Y0055276D02*
X0005597Y0055276D01*
X0005597Y0055668D02*
X0043804Y0055668D01*
X0043699Y0056060D02*
X0005597Y0056060D01*
X0005597Y0056452D02*
X0043593Y0056452D01*
X0043488Y0056844D02*
X0005597Y0056844D01*
X0005597Y0057237D02*
X0043383Y0057237D01*
X0043278Y0057629D02*
X0005597Y0057629D01*
X0005597Y0058021D02*
X0043243Y0058021D01*
X0043243Y0058413D02*
X0005597Y0058413D01*
X0005597Y0058805D02*
X0043243Y0058805D01*
X0043243Y0059198D02*
X0005597Y0059198D01*
X0005597Y0059590D02*
X0043243Y0059590D01*
X0043243Y0059982D02*
X0005597Y0059982D01*
X0005597Y0060374D02*
X0043243Y0060374D01*
X0043243Y0060766D02*
X0005597Y0060766D01*
X0005597Y0061159D02*
X0043243Y0061159D01*
X0043243Y0061551D02*
X0005597Y0061551D01*
X0005597Y0061943D02*
X0043243Y0061943D01*
X0043271Y0062335D02*
X0005597Y0062335D01*
X0005597Y0062728D02*
X0043376Y0062728D01*
X0043481Y0063120D02*
X0005597Y0063120D01*
X0005597Y0063512D02*
X0043586Y0063512D01*
X0043691Y0063904D02*
X0005597Y0063904D01*
X0005597Y0064296D02*
X0043796Y0064296D01*
X0043901Y0064689D02*
X0005597Y0064689D01*
X0005597Y0065081D02*
X0044006Y0065081D01*
X0044111Y0065473D02*
X0005597Y0065473D01*
X0005597Y0065865D02*
X0044217Y0065865D01*
X0044322Y0066257D02*
X0005597Y0066257D01*
X0005597Y0066650D02*
X0044456Y0066650D01*
X0044683Y0067042D02*
X0005597Y0067042D01*
X0005597Y0067434D02*
X0044909Y0067434D01*
X0045135Y0067826D02*
X0005597Y0067826D01*
X0005597Y0068219D02*
X0045362Y0068219D01*
X0045588Y0068611D02*
X0005597Y0068611D01*
X0005597Y0069003D02*
X0045815Y0069003D01*
X0046041Y0069395D02*
X0005597Y0069395D01*
X0005597Y0069787D02*
X0046268Y0069787D01*
X0046494Y0070180D02*
X0005597Y0070180D01*
X0005597Y0070572D02*
X0046781Y0070572D01*
X0047173Y0070964D02*
X0005597Y0070964D01*
X0005597Y0071356D02*
X0047565Y0071356D01*
X0047957Y0071748D02*
X0005597Y0071748D01*
X0005597Y0072141D02*
X0048350Y0072141D01*
X0048742Y0072533D02*
X0005597Y0072533D01*
X0005597Y0072925D02*
X0049134Y0072925D01*
X0049526Y0073317D02*
X0005597Y0073317D01*
X0005597Y0073709D02*
X0050004Y0073709D01*
X0050683Y0074102D02*
X0005597Y0074102D01*
X0005597Y0074494D02*
X0051362Y0074494D01*
X0052042Y0074886D02*
X0005597Y0074886D01*
X0005597Y0075278D02*
X0052721Y0075278D01*
X0053400Y0075671D02*
X0005597Y0075671D01*
X0005597Y0076063D02*
X0054545Y0076063D01*
X0056008Y0076455D02*
X0005597Y0076455D01*
X0005597Y0076847D02*
X0057472Y0076847D01*
X0062999Y0076847D02*
X0139140Y0076847D01*
X0139593Y0076968D02*
X0135271Y0075811D01*
X0131397Y0073573D01*
X0128233Y0070410D01*
X0125996Y0066535D01*
X0124838Y0062213D01*
X0124838Y0057739D01*
X0125996Y0053418D01*
X0128233Y0049543D01*
X0131397Y0046379D01*
X0135271Y0044142D01*
X0139593Y0042984D01*
X0144067Y0042984D01*
X0148389Y0044142D01*
X0152263Y0046379D01*
X0155427Y0049543D01*
X0157664Y0053418D01*
X0158822Y0057739D01*
X0158822Y0062213D01*
X0157664Y0066535D01*
X0155427Y0070410D01*
X0152263Y0073573D01*
X0148389Y0075811D01*
X0144067Y0076968D01*
X0139593Y0076968D01*
X0137676Y0076455D02*
X0064462Y0076455D01*
X0065926Y0076063D02*
X0136213Y0076063D01*
X0135029Y0075671D02*
X0067071Y0075671D01*
X0067750Y0075278D02*
X0134349Y0075278D01*
X0133670Y0074886D02*
X0068429Y0074886D01*
X0069109Y0074494D02*
X0132991Y0074494D01*
X0132311Y0074102D02*
X0069788Y0074102D01*
X0070467Y0073709D02*
X0131632Y0073709D01*
X0131140Y0073317D02*
X0070945Y0073317D01*
X0071337Y0072925D02*
X0130748Y0072925D01*
X0130356Y0072533D02*
X0071729Y0072533D01*
X0072121Y0072141D02*
X0129964Y0072141D01*
X0129571Y0071748D02*
X0072514Y0071748D01*
X0072906Y0071356D02*
X0129179Y0071356D01*
X0128787Y0070964D02*
X0073298Y0070964D01*
X0073690Y0070572D02*
X0128395Y0070572D01*
X0128100Y0070180D02*
X0073977Y0070180D01*
X0074203Y0069787D02*
X0127873Y0069787D01*
X0127647Y0069395D02*
X0074430Y0069395D01*
X0074656Y0069003D02*
X0127421Y0069003D01*
X0127194Y0068611D02*
X0074883Y0068611D01*
X0075109Y0068219D02*
X0126968Y0068219D01*
X0126741Y0067826D02*
X0075335Y0067826D01*
X0075562Y0067434D02*
X0126515Y0067434D01*
X0126288Y0067042D02*
X0075788Y0067042D01*
X0076015Y0066650D02*
X0126062Y0066650D01*
X0125921Y0066257D02*
X0076149Y0066257D01*
X0076254Y0065865D02*
X0125816Y0065865D01*
X0125711Y0065473D02*
X0076359Y0065473D01*
X0076465Y0065081D02*
X0125606Y0065081D01*
X0125501Y0064689D02*
X0076570Y0064689D01*
X0076675Y0064296D02*
X0125396Y0064296D01*
X0125291Y0063904D02*
X0076780Y0063904D01*
X0076885Y0063512D02*
X0125186Y0063512D01*
X0125081Y0063120D02*
X0076990Y0063120D01*
X0077095Y0062728D02*
X0124976Y0062728D01*
X0124870Y0062335D02*
X0077200Y0062335D01*
X0077228Y0061943D02*
X0124838Y0061943D01*
X0124838Y0061551D02*
X0077228Y0061551D01*
X0077228Y0061159D02*
X0124838Y0061159D01*
X0124838Y0060766D02*
X0077228Y0060766D01*
X0077228Y0060374D02*
X0124838Y0060374D01*
X0124838Y0059982D02*
X0077228Y0059982D01*
X0077228Y0059590D02*
X0124838Y0059590D01*
X0124838Y0059198D02*
X0077228Y0059198D01*
X0077228Y0058805D02*
X0124838Y0058805D01*
X0124838Y0058413D02*
X0077228Y0058413D01*
X0077228Y0058021D02*
X0124838Y0058021D01*
X0124867Y0057629D02*
X0077193Y0057629D01*
X0077088Y0057237D02*
X0124973Y0057237D01*
X0125078Y0056844D02*
X0076982Y0056844D01*
X0076877Y0056452D02*
X0125183Y0056452D01*
X0125288Y0056060D02*
X0076772Y0056060D01*
X0076667Y0055668D02*
X0125393Y0055668D01*
X0125498Y0055276D02*
X0076562Y0055276D01*
X0076457Y0054883D02*
X0125603Y0054883D01*
X0125708Y0054491D02*
X0076352Y0054491D01*
X0076247Y0054099D02*
X0125813Y0054099D01*
X0125918Y0053707D02*
X0076142Y0053707D01*
X0075999Y0053314D02*
X0126055Y0053314D01*
X0126282Y0052922D02*
X0075772Y0052922D01*
X0075546Y0052530D02*
X0126508Y0052530D01*
X0126735Y0052138D02*
X0075319Y0052138D01*
X0075093Y0051746D02*
X0126961Y0051746D01*
X0127188Y0051353D02*
X0074866Y0051353D01*
X0074640Y0050961D02*
X0127414Y0050961D01*
X0127640Y0050569D02*
X0074413Y0050569D01*
X0074187Y0050177D02*
X0127867Y0050177D01*
X0128093Y0049785D02*
X0073961Y0049785D01*
X0073662Y0049392D02*
X0128383Y0049392D01*
X0128776Y0049000D02*
X0073270Y0049000D01*
X0072878Y0048608D02*
X0129168Y0048608D01*
X0129560Y0048216D02*
X0072486Y0048216D01*
X0072093Y0047823D02*
X0129952Y0047823D01*
X0130345Y0047431D02*
X0071701Y0047431D01*
X0071309Y0047039D02*
X0130737Y0047039D01*
X0131129Y0046647D02*
X0070917Y0046647D01*
X0070419Y0046255D02*
X0131612Y0046255D01*
X0132292Y0045862D02*
X0069739Y0045862D01*
X0069060Y0045470D02*
X0132971Y0045470D01*
X0133650Y0045078D02*
X0068381Y0045078D01*
X0067701Y0044686D02*
X0134330Y0044686D01*
X0135009Y0044294D02*
X0067022Y0044294D01*
X0065822Y0043901D02*
X0136170Y0043901D01*
X0137634Y0043509D02*
X0064358Y0043509D01*
X0062894Y0043117D02*
X0139098Y0043117D01*
X0144562Y0043117D02*
X0218679Y0043117D01*
X0219101Y0043004D02*
X0223575Y0043004D01*
X0227897Y0044162D01*
X0231771Y0046399D01*
X0234935Y0049563D01*
X0237172Y0053437D01*
X0238330Y0057759D01*
X0238330Y0062233D01*
X0237172Y0066555D01*
X0234935Y0070429D01*
X0231771Y0073593D01*
X0227897Y0075830D01*
X0223575Y0076988D01*
X0219101Y0076988D01*
X0214779Y0075830D01*
X0210904Y0073593D01*
X0207741Y0070429D01*
X0205504Y0066555D01*
X0204346Y0062233D01*
X0204346Y0057759D01*
X0205504Y0053437D01*
X0207741Y0049563D01*
X0210904Y0046399D01*
X0214779Y0044162D01*
X0219101Y0043004D01*
X0217215Y0043509D02*
X0146026Y0043509D01*
X0147490Y0043901D02*
X0215752Y0043901D01*
X0214551Y0044294D02*
X0148651Y0044294D01*
X0149330Y0044686D02*
X0213872Y0044686D01*
X0213192Y0045078D02*
X0150009Y0045078D01*
X0150689Y0045470D02*
X0212513Y0045470D01*
X0211834Y0045862D02*
X0151368Y0045862D01*
X0152047Y0046255D02*
X0211154Y0046255D01*
X0210657Y0046647D02*
X0152531Y0046647D01*
X0152923Y0047039D02*
X0210264Y0047039D01*
X0209872Y0047431D02*
X0153315Y0047431D01*
X0153708Y0047823D02*
X0209480Y0047823D01*
X0209088Y0048216D02*
X0154100Y0048216D01*
X0154492Y0048608D02*
X0208695Y0048608D01*
X0208303Y0049000D02*
X0154884Y0049000D01*
X0155276Y0049392D02*
X0207911Y0049392D01*
X0207613Y0049785D02*
X0155566Y0049785D01*
X0155793Y0050177D02*
X0207386Y0050177D01*
X0207160Y0050569D02*
X0156019Y0050569D01*
X0156246Y0050961D02*
X0206933Y0050961D01*
X0206707Y0051353D02*
X0156472Y0051353D01*
X0156699Y0051746D02*
X0206480Y0051746D01*
X0206254Y0052138D02*
X0156925Y0052138D01*
X0157152Y0052530D02*
X0206027Y0052530D01*
X0205801Y0052922D02*
X0157378Y0052922D01*
X0157604Y0053314D02*
X0205575Y0053314D01*
X0205431Y0053707D02*
X0157741Y0053707D01*
X0157847Y0054099D02*
X0205326Y0054099D01*
X0205221Y0054491D02*
X0157952Y0054491D01*
X0158057Y0054883D02*
X0205116Y0054883D01*
X0205011Y0055276D02*
X0158162Y0055276D01*
X0158267Y0055668D02*
X0204906Y0055668D01*
X0204801Y0056060D02*
X0158372Y0056060D01*
X0158477Y0056452D02*
X0204696Y0056452D01*
X0204591Y0056844D02*
X0158582Y0056844D01*
X0158687Y0057237D02*
X0204486Y0057237D01*
X0204381Y0057629D02*
X0158792Y0057629D01*
X0158822Y0058021D02*
X0204346Y0058021D01*
X0204346Y0058413D02*
X0158822Y0058413D01*
X0158822Y0058805D02*
X0204346Y0058805D01*
X0204346Y0059198D02*
X0158822Y0059198D01*
X0158822Y0059590D02*
X0204346Y0059590D01*
X0204346Y0059982D02*
X0158822Y0059982D01*
X0158822Y0060374D02*
X0204346Y0060374D01*
X0204346Y0060766D02*
X0158822Y0060766D01*
X0158822Y0061159D02*
X0204346Y0061159D01*
X0204346Y0061551D02*
X0158822Y0061551D01*
X0158822Y0061943D02*
X0204346Y0061943D01*
X0204373Y0062335D02*
X0158789Y0062335D01*
X0158684Y0062728D02*
X0204478Y0062728D01*
X0204583Y0063120D02*
X0158579Y0063120D01*
X0158474Y0063512D02*
X0204688Y0063512D01*
X0204793Y0063904D02*
X0158369Y0063904D01*
X0158264Y0064296D02*
X0204899Y0064296D01*
X0205004Y0064689D02*
X0158159Y0064689D01*
X0158054Y0065081D02*
X0205109Y0065081D01*
X0205214Y0065473D02*
X0157949Y0065473D01*
X0157844Y0065865D02*
X0205319Y0065865D01*
X0205424Y0066257D02*
X0157738Y0066257D01*
X0157598Y0066650D02*
X0205558Y0066650D01*
X0205785Y0067042D02*
X0157371Y0067042D01*
X0157145Y0067434D02*
X0206011Y0067434D01*
X0206238Y0067826D02*
X0156919Y0067826D01*
X0156692Y0068219D02*
X0206464Y0068219D01*
X0206691Y0068611D02*
X0156466Y0068611D01*
X0156239Y0069003D02*
X0206917Y0069003D01*
X0207144Y0069395D02*
X0156013Y0069395D01*
X0155786Y0069787D02*
X0207370Y0069787D01*
X0207596Y0070180D02*
X0155560Y0070180D01*
X0155265Y0070572D02*
X0207883Y0070572D01*
X0208275Y0070964D02*
X0154873Y0070964D01*
X0154481Y0071356D02*
X0208667Y0071356D01*
X0209060Y0071748D02*
X0154088Y0071748D01*
X0153696Y0072141D02*
X0209452Y0072141D01*
X0209844Y0072533D02*
X0153304Y0072533D01*
X0152912Y0072925D02*
X0210236Y0072925D01*
X0210629Y0073317D02*
X0152520Y0073317D01*
X0152028Y0073709D02*
X0211106Y0073709D01*
X0211785Y0074102D02*
X0151348Y0074102D01*
X0150669Y0074494D02*
X0212465Y0074494D01*
X0213144Y0074886D02*
X0149990Y0074886D01*
X0149310Y0075278D02*
X0213823Y0075278D01*
X0214503Y0075671D02*
X0148631Y0075671D01*
X0147447Y0076063D02*
X0215647Y0076063D01*
X0217111Y0076455D02*
X0145984Y0076455D01*
X0144520Y0076847D02*
X0218574Y0076847D01*
X0224101Y0076847D02*
X0275543Y0076847D01*
X0275543Y0076455D02*
X0225565Y0076455D01*
X0227029Y0076063D02*
X0275543Y0076063D01*
X0275543Y0075671D02*
X0228173Y0075671D01*
X0228852Y0075278D02*
X0275543Y0075278D01*
X0275543Y0074886D02*
X0229532Y0074886D01*
X0230211Y0074494D02*
X0275543Y0074494D01*
X0275543Y0074102D02*
X0230890Y0074102D01*
X0231570Y0073709D02*
X0275543Y0073709D01*
X0275543Y0073317D02*
X0232047Y0073317D01*
X0232439Y0072925D02*
X0275543Y0072925D01*
X0275543Y0072533D02*
X0232831Y0072533D01*
X0233224Y0072141D02*
X0275543Y0072141D01*
X0275543Y0071748D02*
X0233616Y0071748D01*
X0234008Y0071356D02*
X0275543Y0071356D01*
X0275543Y0070964D02*
X0234400Y0070964D01*
X0234793Y0070572D02*
X0275543Y0070572D01*
X0275543Y0070180D02*
X0235079Y0070180D01*
X0235306Y0069787D02*
X0275543Y0069787D01*
X0275543Y0069395D02*
X0235532Y0069395D01*
X0235758Y0069003D02*
X0275543Y0069003D01*
X0275543Y0068611D02*
X0235985Y0068611D01*
X0236211Y0068219D02*
X0275543Y0068219D01*
X0275543Y0067826D02*
X0236438Y0067826D01*
X0236664Y0067434D02*
X0275543Y0067434D01*
X0275543Y0067042D02*
X0236891Y0067042D01*
X0237117Y0066650D02*
X0275543Y0066650D01*
X0275543Y0066257D02*
X0237252Y0066257D01*
X0237357Y0065865D02*
X0275543Y0065865D01*
X0275543Y0065473D02*
X0237462Y0065473D01*
X0237567Y0065081D02*
X0275543Y0065081D01*
X0275543Y0064689D02*
X0237672Y0064689D01*
X0237777Y0064296D02*
X0275543Y0064296D01*
X0275543Y0063904D02*
X0237882Y0063904D01*
X0237987Y0063512D02*
X0275543Y0063512D01*
X0275543Y0063120D02*
X0238092Y0063120D01*
X0238197Y0062728D02*
X0275543Y0062728D01*
X0275543Y0062335D02*
X0238303Y0062335D01*
X0238330Y0061943D02*
X0275543Y0061943D01*
X0275543Y0061551D02*
X0238330Y0061551D01*
X0238330Y0061159D02*
X0275543Y0061159D01*
X0275543Y0060766D02*
X0238330Y0060766D01*
X0238330Y0060374D02*
X0275543Y0060374D01*
X0275543Y0059982D02*
X0238330Y0059982D01*
X0238330Y0059590D02*
X0275543Y0059590D01*
X0275543Y0059198D02*
X0238330Y0059198D01*
X0238330Y0058805D02*
X0275543Y0058805D01*
X0275543Y0058413D02*
X0238330Y0058413D01*
X0238330Y0058021D02*
X0275543Y0058021D01*
X0275543Y0057629D02*
X0238295Y0057629D01*
X0238190Y0057237D02*
X0275543Y0057237D01*
X0275543Y0056844D02*
X0238085Y0056844D01*
X0237980Y0056452D02*
X0275543Y0056452D01*
X0275543Y0056060D02*
X0237875Y0056060D01*
X0237770Y0055668D02*
X0275543Y0055668D01*
X0275543Y0055276D02*
X0237664Y0055276D01*
X0237559Y0054883D02*
X0275543Y0054883D01*
X0275543Y0054491D02*
X0237454Y0054491D01*
X0237349Y0054099D02*
X0275543Y0054099D01*
X0275543Y0053707D02*
X0237244Y0053707D01*
X0237101Y0053314D02*
X0275543Y0053314D01*
X0275543Y0052922D02*
X0236875Y0052922D01*
X0236648Y0052530D02*
X0275543Y0052530D01*
X0275543Y0052138D02*
X0236422Y0052138D01*
X0236195Y0051746D02*
X0275543Y0051746D01*
X0275543Y0051353D02*
X0235969Y0051353D01*
X0235742Y0050961D02*
X0275543Y0050961D01*
X0275543Y0050569D02*
X0235516Y0050569D01*
X0235289Y0050177D02*
X0275543Y0050177D01*
X0275543Y0049785D02*
X0235063Y0049785D01*
X0234765Y0049392D02*
X0275543Y0049392D01*
X0275543Y0049000D02*
X0234372Y0049000D01*
X0233980Y0048608D02*
X0275543Y0048608D01*
X0275543Y0048216D02*
X0233588Y0048216D01*
X0233196Y0047823D02*
X0275543Y0047823D01*
X0275543Y0047431D02*
X0232803Y0047431D01*
X0232411Y0047039D02*
X0275543Y0047039D01*
X0275543Y0046647D02*
X0232019Y0046647D01*
X0231521Y0046255D02*
X0275543Y0046255D01*
X0275543Y0045862D02*
X0230842Y0045862D01*
X0230162Y0045470D02*
X0275543Y0045470D01*
X0275543Y0045078D02*
X0229483Y0045078D01*
X0228804Y0044686D02*
X0275543Y0044686D01*
X0275543Y0044294D02*
X0228125Y0044294D01*
X0226924Y0043901D02*
X0275543Y0043901D01*
X0275543Y0043509D02*
X0225460Y0043509D01*
X0223997Y0043117D02*
X0275543Y0043117D01*
X0275543Y0023899D02*
X0254000Y0023899D01*
X0255463Y0023506D02*
X0275543Y0023506D01*
X0275543Y0023114D02*
X0256673Y0023114D01*
X0257352Y0022722D02*
X0275543Y0022722D01*
X0275543Y0022330D02*
X0258031Y0022330D01*
X0258711Y0021937D02*
X0275543Y0021937D01*
X0275543Y0021545D02*
X0259160Y0021545D01*
X0259552Y0021153D02*
X0275543Y0021153D01*
X0275543Y0020761D02*
X0259944Y0020761D01*
X0260336Y0020369D02*
X0275543Y0020369D01*
X0275543Y0019976D02*
X0260729Y0019976D01*
X0260985Y0019584D02*
X0275543Y0019584D01*
X0275543Y0019192D02*
X0261212Y0019192D01*
X0261438Y0018800D02*
X0275543Y0018800D01*
X0275543Y0018408D02*
X0261664Y0018408D01*
X0261891Y0018015D02*
X0275543Y0018015D01*
X0275543Y0017623D02*
X0262117Y0017623D01*
X0262257Y0017231D02*
X0275543Y0017231D01*
X0275543Y0016839D02*
X0262362Y0016839D01*
X0262467Y0016447D02*
X0275543Y0016447D01*
X0275543Y0016054D02*
X0262572Y0016054D01*
X0262677Y0015662D02*
X0275543Y0015662D01*
X0275543Y0015270D02*
X0262782Y0015270D01*
X0262887Y0014878D02*
X0275543Y0014878D01*
X0275543Y0014485D02*
X0262897Y0014485D01*
X0262897Y0014093D02*
X0275543Y0014093D01*
X0275543Y0013701D02*
X0262897Y0013701D01*
X0262897Y0013309D02*
X0275543Y0013309D01*
X0275543Y0012917D02*
X0262897Y0012917D01*
X0262897Y0012524D02*
X0275543Y0012524D01*
X0275543Y0012132D02*
X0262897Y0012132D01*
X0262806Y0011740D02*
X0275543Y0011740D01*
X0275543Y0011348D02*
X0262701Y0011348D01*
X0262596Y0010956D02*
X0275543Y0010956D01*
X0275543Y0010563D02*
X0262491Y0010563D01*
X0262386Y0010171D02*
X0275543Y0010171D01*
X0275543Y0009779D02*
X0262281Y0009779D01*
X0262168Y0009387D02*
X0275543Y0009387D01*
X0275543Y0008994D02*
X0261942Y0008994D01*
X0261716Y0008602D02*
X0275543Y0008602D01*
X0275543Y0008210D02*
X0261489Y0008210D01*
X0261263Y0007818D02*
X0275543Y0007818D01*
X0275543Y0007426D02*
X0261036Y0007426D01*
X0260810Y0007033D02*
X0275543Y0007033D01*
X0275543Y0006641D02*
X0260425Y0006641D01*
X0260033Y0006249D02*
X0275543Y0006249D01*
X0250802Y0023899D02*
X0032208Y0023899D01*
X0033672Y0023506D02*
X0249338Y0023506D01*
X0248129Y0023114D02*
X0034881Y0023114D01*
X0035561Y0022722D02*
X0247450Y0022722D01*
X0246770Y0022330D02*
X0036240Y0022330D01*
X0036919Y0021937D02*
X0246091Y0021937D01*
X0245642Y0021545D02*
X0037368Y0021545D01*
X0037761Y0021153D02*
X0245250Y0021153D01*
X0244857Y0020761D02*
X0038153Y0020761D01*
X0038545Y0020369D02*
X0244465Y0020369D01*
X0244073Y0019976D02*
X0038937Y0019976D01*
X0039194Y0019584D02*
X0243816Y0019584D01*
X0243590Y0019192D02*
X0039420Y0019192D01*
X0039647Y0018800D02*
X0243364Y0018800D01*
X0243137Y0018408D02*
X0039873Y0018408D01*
X0040100Y0018015D02*
X0242911Y0018015D01*
X0242684Y0017623D02*
X0040326Y0017623D01*
X0040466Y0017231D02*
X0242545Y0017231D01*
X0242440Y0016839D02*
X0040571Y0016839D01*
X0040676Y0016447D02*
X0242335Y0016447D01*
X0242229Y0016054D02*
X0040781Y0016054D01*
X0040886Y0015662D02*
X0242124Y0015662D01*
X0242019Y0015270D02*
X0040991Y0015270D01*
X0041096Y0014878D02*
X0241914Y0014878D01*
X0241905Y0014485D02*
X0041105Y0014485D01*
X0041105Y0014093D02*
X0241905Y0014093D01*
X0241905Y0013701D02*
X0041105Y0013701D01*
X0041105Y0013309D02*
X0241905Y0013309D01*
X0241905Y0012917D02*
X0041105Y0012917D01*
X0041105Y0012524D02*
X0241905Y0012524D01*
X0241905Y0012132D02*
X0041105Y0012132D01*
X0041015Y0011740D02*
X0241996Y0011740D01*
X0242101Y0011348D02*
X0040910Y0011348D01*
X0040805Y0010956D02*
X0242206Y0010956D01*
X0242311Y0010563D02*
X0040699Y0010563D01*
X0040594Y0010171D02*
X0242416Y0010171D01*
X0242521Y0009779D02*
X0040489Y0009779D01*
X0040377Y0009387D02*
X0242633Y0009387D01*
X0242859Y0008994D02*
X0040151Y0008994D01*
X0039924Y0008602D02*
X0243086Y0008602D01*
X0243312Y0008210D02*
X0039698Y0008210D01*
X0039471Y0007818D02*
X0243539Y0007818D01*
X0243765Y0007426D02*
X0039245Y0007426D01*
X0039018Y0007033D02*
X0243992Y0007033D01*
X0244377Y0006641D02*
X0038634Y0006641D01*
X0038241Y0006249D02*
X0244769Y0006249D01*
X0275543Y0077239D02*
X0005597Y0077239D01*
X0005597Y0077632D02*
X0275543Y0077632D01*
X0275543Y0078024D02*
X0005597Y0078024D01*
X0005597Y0078416D02*
X0275543Y0078416D01*
X0275543Y0078808D02*
X0005597Y0078808D01*
X0005597Y0079200D02*
X0275543Y0079200D01*
X0275543Y0079593D02*
X0005597Y0079593D01*
X0005597Y0079985D02*
X0275543Y0079985D01*
X0275543Y0080377D02*
X0005597Y0080377D01*
X0005597Y0080769D02*
X0275543Y0080769D01*
X0275543Y0081162D02*
X0005597Y0081162D01*
X0005597Y0081554D02*
X0275543Y0081554D01*
X0275543Y0081946D02*
X0005597Y0081946D01*
X0005597Y0082338D02*
X0275543Y0082338D01*
X0275543Y0082730D02*
X0005597Y0082730D01*
X0005597Y0083123D02*
X0275543Y0083123D01*
X0275543Y0083515D02*
X0005597Y0083515D01*
X0005597Y0083907D02*
X0275543Y0083907D01*
X0275543Y0084299D02*
X0005597Y0084299D01*
X0005597Y0084691D02*
X0275543Y0084691D01*
X0275543Y0085084D02*
X0005597Y0085084D01*
X0005597Y0085476D02*
X0275543Y0085476D01*
X0275543Y0085868D02*
X0005597Y0085868D01*
X0005597Y0086260D02*
X0275543Y0086260D01*
X0275543Y0086652D02*
X0005597Y0086652D01*
X0005597Y0087045D02*
X0275543Y0087045D01*
X0275543Y0087437D02*
X0005597Y0087437D01*
X0005597Y0087829D02*
X0275543Y0087829D01*
X0275543Y0088221D02*
X0005597Y0088221D01*
X0005597Y0088614D02*
X0275543Y0088614D01*
X0275543Y0089006D02*
X0005597Y0089006D01*
X0005597Y0089398D02*
X0275543Y0089398D01*
X0275543Y0089790D02*
X0005597Y0089790D01*
X0005597Y0090182D02*
X0275543Y0090182D01*
X0275543Y0090575D02*
X0005597Y0090575D01*
X0005597Y0090967D02*
X0275543Y0090967D01*
X0275543Y0091359D02*
X0005597Y0091359D01*
X0005597Y0091751D02*
X0275543Y0091751D01*
X0275543Y0092143D02*
X0005597Y0092143D01*
X0005597Y0092536D02*
X0275543Y0092536D01*
X0275543Y0092928D02*
X0005597Y0092928D01*
X0005597Y0093320D02*
X0275543Y0093320D01*
X0275543Y0093712D02*
X0005597Y0093712D01*
X0005597Y0094105D02*
X0275543Y0094105D01*
X0275543Y0094497D02*
X0005597Y0094497D01*
X0005597Y0094889D02*
X0275543Y0094889D01*
X0275543Y0095281D02*
X0005597Y0095281D01*
X0005597Y0095673D02*
X0275543Y0095673D01*
X0275543Y0096066D02*
X0005597Y0096066D01*
X0005597Y0096458D02*
X0275543Y0096458D01*
X0275543Y0096850D02*
X0005597Y0096850D01*
X0005597Y0097242D02*
X0275543Y0097242D01*
X0275543Y0097634D02*
X0005597Y0097634D01*
X0005597Y0098027D02*
X0275543Y0098027D01*
X0275543Y0098419D02*
X0005597Y0098419D01*
X0005597Y0098811D02*
X0275543Y0098811D01*
X0275543Y0099203D02*
X0005597Y0099203D01*
X0005597Y0099595D02*
X0275543Y0099595D01*
X0275543Y0099988D02*
X0005597Y0099988D01*
X0005597Y0100380D02*
X0275543Y0100380D01*
X0275543Y0100772D02*
X0005597Y0100772D01*
X0005597Y0101164D02*
X0275543Y0101164D01*
X0275543Y0101557D02*
X0005597Y0101557D01*
X0005597Y0101949D02*
X0275543Y0101949D01*
X0275543Y0102341D02*
X0005597Y0102341D01*
X0005597Y0102733D02*
X0275543Y0102733D01*
X0275543Y0103125D02*
X0005597Y0103125D01*
X0005597Y0103518D02*
X0275543Y0103518D01*
X0275543Y0103910D02*
X0005597Y0103910D01*
X0005597Y0104302D02*
X0275543Y0104302D01*
X0275543Y0104694D02*
X0005597Y0104694D01*
X0005597Y0105086D02*
X0275543Y0105086D01*
X0275543Y0105479D02*
X0005597Y0105479D01*
X0005597Y0105871D02*
X0275543Y0105871D01*
X0275543Y0106263D02*
X0005597Y0106263D01*
X0005597Y0106655D02*
X0275543Y0106655D01*
X0275543Y0107048D02*
X0005597Y0107048D01*
X0005597Y0107440D02*
X0275543Y0107440D01*
X0275543Y0107832D02*
X0005597Y0107832D01*
X0005597Y0108224D02*
X0275543Y0108224D01*
X0275543Y0108616D02*
X0005597Y0108616D01*
X0005597Y0109009D02*
X0275543Y0109009D01*
X0275543Y0109401D02*
X0005597Y0109401D01*
X0005597Y0109793D02*
X0275543Y0109793D01*
X0275543Y0110185D02*
X0005597Y0110185D01*
X0005597Y0110577D02*
X0275543Y0110577D01*
X0275543Y0110970D02*
X0005597Y0110970D01*
X0005597Y0111362D02*
X0275543Y0111362D01*
X0275543Y0111754D02*
X0005597Y0111754D01*
X0005597Y0112146D02*
X0275543Y0112146D01*
X0275543Y0112538D02*
X0005597Y0112538D01*
X0005597Y0112931D02*
X0275543Y0112931D01*
X0275543Y0113323D02*
X0005597Y0113323D01*
X0005597Y0113715D02*
X0275543Y0113715D01*
X0275543Y0114107D02*
X0005597Y0114107D01*
X0005597Y0114500D02*
X0275543Y0114500D01*
X0275543Y0114892D02*
X0005597Y0114892D01*
X0005597Y0115284D02*
X0275543Y0115284D01*
X0275543Y0115676D02*
X0005597Y0115676D01*
X0005597Y0116068D02*
X0275543Y0116068D01*
X0275543Y0116461D02*
X0005597Y0116461D01*
X0005597Y0116853D02*
X0275543Y0116853D01*
X0275543Y0117245D02*
X0005597Y0117245D01*
X0005597Y0117637D02*
X0275543Y0117637D01*
X0275543Y0118029D02*
X0005597Y0118029D01*
X0005597Y0118422D02*
X0275543Y0118422D01*
X0275543Y0118814D02*
X0005597Y0118814D01*
X0005597Y0119206D02*
X0275543Y0119206D01*
X0275543Y0119598D02*
X0005597Y0119598D01*
X0005597Y0119991D02*
X0275543Y0119991D01*
X0275543Y0120383D02*
X0005597Y0120383D01*
X0005597Y0120775D02*
X0275543Y0120775D01*
X0275543Y0121167D02*
X0005597Y0121167D01*
X0005597Y0121559D02*
X0275543Y0121559D01*
X0275543Y0121952D02*
X0005597Y0121952D01*
X0005597Y0122344D02*
X0275543Y0122344D01*
X0275543Y0122736D02*
X0005597Y0122736D01*
X0005597Y0123128D02*
X0275543Y0123128D01*
X0275543Y0123520D02*
X0005597Y0123520D01*
X0005597Y0123913D02*
X0275543Y0123913D01*
X0275543Y0124305D02*
X0005597Y0124305D01*
X0005597Y0124697D02*
X0275543Y0124697D01*
X0275543Y0125089D02*
X0005597Y0125089D01*
X0005597Y0125481D02*
X0275543Y0125481D01*
X0275543Y0125874D02*
X0005597Y0125874D01*
X0005597Y0126266D02*
X0275543Y0126266D01*
X0275543Y0126658D02*
X0005597Y0126658D01*
X0005597Y0127050D02*
X0275543Y0127050D01*
X0275543Y0127443D02*
X0005597Y0127443D01*
X0005597Y0127835D02*
X0275543Y0127835D01*
X0275543Y0128227D02*
X0145783Y0128227D01*
X0144436Y0127866D02*
X0149509Y0129225D01*
X0154057Y0131851D01*
X0157770Y0135565D01*
X0160396Y0140113D01*
X0161755Y0145185D01*
X0161755Y0150437D01*
X0160396Y0155509D01*
X0157770Y0160057D01*
X0154057Y0163771D01*
X0149509Y0166397D01*
X0144436Y0167756D01*
X0139184Y0167756D01*
X0134112Y0166397D01*
X0129564Y0163771D01*
X0125850Y0160057D01*
X0123225Y0155509D01*
X0121865Y0150437D01*
X0121865Y0145185D01*
X0123225Y0140113D01*
X0125850Y0135565D01*
X0129564Y0131851D01*
X0134112Y0129225D01*
X0139184Y0127866D01*
X0144436Y0127866D01*
X0147246Y0128619D02*
X0275543Y0128619D01*
X0275543Y0129011D02*
X0148710Y0129011D01*
X0149817Y0129404D02*
X0275543Y0129404D01*
X0275543Y0129796D02*
X0150497Y0129796D01*
X0151176Y0130188D02*
X0275543Y0130188D01*
X0275543Y0130580D02*
X0151855Y0130580D01*
X0152535Y0130972D02*
X0275543Y0130972D01*
X0275543Y0131365D02*
X0153214Y0131365D01*
X0153893Y0131757D02*
X0275543Y0131757D01*
X0275543Y0132149D02*
X0154355Y0132149D01*
X0154747Y0132541D02*
X0275543Y0132541D01*
X0275543Y0132934D02*
X0155139Y0132934D01*
X0155531Y0133326D02*
X0275543Y0133326D01*
X0275543Y0133718D02*
X0155923Y0133718D01*
X0156316Y0134110D02*
X0275543Y0134110D01*
X0275543Y0134502D02*
X0156708Y0134502D01*
X0157100Y0134895D02*
X0275543Y0134895D01*
X0275543Y0135287D02*
X0157492Y0135287D01*
X0157836Y0135679D02*
X0275543Y0135679D01*
X0275543Y0136071D02*
X0158063Y0136071D01*
X0158289Y0136463D02*
X0275543Y0136463D01*
X0275543Y0136856D02*
X0158515Y0136856D01*
X0158742Y0137248D02*
X0275543Y0137248D01*
X0275543Y0137640D02*
X0158968Y0137640D01*
X0159195Y0138032D02*
X0275543Y0138032D01*
X0275543Y0138424D02*
X0159421Y0138424D01*
X0159648Y0138817D02*
X0275543Y0138817D01*
X0275543Y0139209D02*
X0159874Y0139209D01*
X0160101Y0139601D02*
X0275543Y0139601D01*
X0275543Y0139993D02*
X0160327Y0139993D01*
X0160469Y0140386D02*
X0275543Y0140386D01*
X0275543Y0140778D02*
X0160574Y0140778D01*
X0160679Y0141170D02*
X0275543Y0141170D01*
X0275543Y0141562D02*
X0160784Y0141562D01*
X0160889Y0141954D02*
X0275543Y0141954D01*
X0275543Y0142347D02*
X0160994Y0142347D01*
X0161100Y0142739D02*
X0275543Y0142739D01*
X0275543Y0143131D02*
X0161205Y0143131D01*
X0161310Y0143523D02*
X0275543Y0143523D01*
X0275543Y0143915D02*
X0161415Y0143915D01*
X0161520Y0144308D02*
X0275543Y0144308D01*
X0275543Y0144700D02*
X0161625Y0144700D01*
X0161730Y0145092D02*
X0275543Y0145092D01*
X0275543Y0145484D02*
X0161755Y0145484D01*
X0161755Y0145877D02*
X0275543Y0145877D01*
X0275543Y0146269D02*
X0161755Y0146269D01*
X0161755Y0146661D02*
X0275543Y0146661D01*
X0275543Y0147053D02*
X0161755Y0147053D01*
X0161755Y0147445D02*
X0275543Y0147445D01*
X0275543Y0147838D02*
X0161755Y0147838D01*
X0161755Y0148230D02*
X0275543Y0148230D01*
X0275543Y0148622D02*
X0161755Y0148622D01*
X0161755Y0149014D02*
X0275543Y0149014D01*
X0275543Y0149406D02*
X0161755Y0149406D01*
X0161755Y0149799D02*
X0275543Y0149799D01*
X0275543Y0150191D02*
X0161755Y0150191D01*
X0161716Y0150583D02*
X0275543Y0150583D01*
X0275543Y0150975D02*
X0161611Y0150975D01*
X0161506Y0151367D02*
X0275543Y0151367D01*
X0275543Y0151760D02*
X0161401Y0151760D01*
X0161296Y0152152D02*
X0275543Y0152152D01*
X0275543Y0152544D02*
X0161190Y0152544D01*
X0161085Y0152936D02*
X0275543Y0152936D01*
X0275543Y0153329D02*
X0160980Y0153329D01*
X0160875Y0153721D02*
X0275543Y0153721D01*
X0275543Y0154113D02*
X0160770Y0154113D01*
X0160665Y0154505D02*
X0275543Y0154505D01*
X0275543Y0154897D02*
X0160560Y0154897D01*
X0160455Y0155290D02*
X0275543Y0155290D01*
X0275543Y0155682D02*
X0160296Y0155682D01*
X0160070Y0156074D02*
X0275543Y0156074D01*
X0275543Y0156466D02*
X0159844Y0156466D01*
X0159617Y0156858D02*
X0275543Y0156858D01*
X0275543Y0157251D02*
X0159391Y0157251D01*
X0159164Y0157643D02*
X0275543Y0157643D01*
X0275543Y0158035D02*
X0158938Y0158035D01*
X0158711Y0158427D02*
X0275543Y0158427D01*
X0275543Y0158820D02*
X0158485Y0158820D01*
X0158258Y0159212D02*
X0275543Y0159212D01*
X0275543Y0159604D02*
X0158032Y0159604D01*
X0157806Y0159996D02*
X0275543Y0159996D01*
X0275543Y0160388D02*
X0157439Y0160388D01*
X0157047Y0160781D02*
X0275543Y0160781D01*
X0275543Y0161173D02*
X0156655Y0161173D01*
X0156263Y0161565D02*
X0275543Y0161565D01*
X0275543Y0161957D02*
X0155870Y0161957D01*
X0155478Y0162349D02*
X0275543Y0162349D01*
X0275543Y0162742D02*
X0155086Y0162742D01*
X0154694Y0163134D02*
X0275543Y0163134D01*
X0275543Y0163526D02*
X0154302Y0163526D01*
X0153801Y0163918D02*
X0275543Y0163918D01*
X0275543Y0164310D02*
X0153122Y0164310D01*
X0152443Y0164703D02*
X0275543Y0164703D01*
X0275543Y0165095D02*
X0151763Y0165095D01*
X0151084Y0165487D02*
X0275543Y0165487D01*
X0275543Y0165879D02*
X0150405Y0165879D01*
X0149725Y0166272D02*
X0275543Y0166272D01*
X0275543Y0166664D02*
X0148512Y0166664D01*
X0147048Y0167056D02*
X0275543Y0167056D01*
X0275543Y0167448D02*
X0145584Y0167448D01*
X0138036Y0167448D02*
X0005597Y0167448D01*
X0005597Y0167056D02*
X0136572Y0167056D01*
X0135108Y0166664D02*
X0005597Y0166664D01*
X0005597Y0166272D02*
X0133895Y0166272D01*
X0133216Y0165879D02*
X0005597Y0165879D01*
X0005597Y0165487D02*
X0132536Y0165487D01*
X0131857Y0165095D02*
X0005597Y0165095D01*
X0005597Y0164703D02*
X0131178Y0164703D01*
X0130498Y0164310D02*
X0005597Y0164310D01*
X0005597Y0163918D02*
X0129819Y0163918D01*
X0129319Y0163526D02*
X0005597Y0163526D01*
X0005597Y0163134D02*
X0128927Y0163134D01*
X0128535Y0162742D02*
X0005597Y0162742D01*
X0005597Y0162349D02*
X0128142Y0162349D01*
X0127750Y0161957D02*
X0005597Y0161957D01*
X0005597Y0161565D02*
X0127358Y0161565D01*
X0126966Y0161173D02*
X0005597Y0161173D01*
X0005597Y0160781D02*
X0126573Y0160781D01*
X0126181Y0160388D02*
X0005597Y0160388D01*
X0005597Y0159996D02*
X0125815Y0159996D01*
X0125589Y0159604D02*
X0005597Y0159604D01*
X0005597Y0159212D02*
X0125362Y0159212D01*
X0125136Y0158820D02*
X0005597Y0158820D01*
X0005597Y0158427D02*
X0124909Y0158427D01*
X0124683Y0158035D02*
X0005597Y0158035D01*
X0005597Y0157643D02*
X0124456Y0157643D01*
X0124230Y0157251D02*
X0005597Y0157251D01*
X0005597Y0156858D02*
X0124003Y0156858D01*
X0123777Y0156466D02*
X0005597Y0156466D01*
X0005597Y0156074D02*
X0123551Y0156074D01*
X0123324Y0155682D02*
X0005597Y0155682D01*
X0005597Y0155290D02*
X0123166Y0155290D01*
X0123061Y0154897D02*
X0005597Y0154897D01*
X0005597Y0154505D02*
X0122955Y0154505D01*
X0122850Y0154113D02*
X0005597Y0154113D01*
X0005597Y0153721D02*
X0122745Y0153721D01*
X0122640Y0153329D02*
X0005597Y0153329D01*
X0005597Y0152936D02*
X0122535Y0152936D01*
X0122430Y0152544D02*
X0005597Y0152544D01*
X0005597Y0152152D02*
X0122325Y0152152D01*
X0122220Y0151760D02*
X0005597Y0151760D01*
X0005597Y0151367D02*
X0122115Y0151367D01*
X0122010Y0150975D02*
X0005597Y0150975D01*
X0005597Y0150583D02*
X0121905Y0150583D01*
X0121865Y0150191D02*
X0005597Y0150191D01*
X0005597Y0149799D02*
X0121865Y0149799D01*
X0121865Y0149406D02*
X0005597Y0149406D01*
X0005597Y0149014D02*
X0121865Y0149014D01*
X0121865Y0148622D02*
X0005597Y0148622D01*
X0005597Y0148230D02*
X0121865Y0148230D01*
X0121865Y0147838D02*
X0005597Y0147838D01*
X0005597Y0147445D02*
X0121865Y0147445D01*
X0121865Y0147053D02*
X0005597Y0147053D01*
X0005597Y0146661D02*
X0121865Y0146661D01*
X0121865Y0146269D02*
X0005597Y0146269D01*
X0005597Y0145877D02*
X0121865Y0145877D01*
X0121865Y0145484D02*
X0005597Y0145484D01*
X0005597Y0145092D02*
X0121890Y0145092D01*
X0121995Y0144700D02*
X0005597Y0144700D01*
X0005597Y0144308D02*
X0122100Y0144308D01*
X0122206Y0143915D02*
X0005597Y0143915D01*
X0005597Y0143523D02*
X0122311Y0143523D01*
X0122416Y0143131D02*
X0005597Y0143131D01*
X0005597Y0142739D02*
X0122521Y0142739D01*
X0122626Y0142347D02*
X0005597Y0142347D01*
X0005597Y0141954D02*
X0122731Y0141954D01*
X0122836Y0141562D02*
X0005597Y0141562D01*
X0005597Y0141170D02*
X0122941Y0141170D01*
X0123046Y0140778D02*
X0005597Y0140778D01*
X0005597Y0140386D02*
X0123151Y0140386D01*
X0123293Y0139993D02*
X0005597Y0139993D01*
X0005597Y0139601D02*
X0123520Y0139601D01*
X0123746Y0139209D02*
X0005597Y0139209D01*
X0005597Y0138817D02*
X0123973Y0138817D01*
X0124199Y0138424D02*
X0005597Y0138424D01*
X0005597Y0138032D02*
X0124426Y0138032D01*
X0124652Y0137640D02*
X0005597Y0137640D01*
X0005597Y0137248D02*
X0124879Y0137248D01*
X0125105Y0136856D02*
X0005597Y0136856D01*
X0005597Y0136463D02*
X0125331Y0136463D01*
X0125558Y0136071D02*
X0005597Y0136071D01*
X0005597Y0135679D02*
X0125784Y0135679D01*
X0126128Y0135287D02*
X0005597Y0135287D01*
X0005597Y0134895D02*
X0126520Y0134895D01*
X0126913Y0134502D02*
X0005597Y0134502D01*
X0005597Y0134110D02*
X0127305Y0134110D01*
X0127697Y0133718D02*
X0005597Y0133718D01*
X0005597Y0133326D02*
X0128089Y0133326D01*
X0128481Y0132934D02*
X0005597Y0132934D01*
X0005597Y0132541D02*
X0128874Y0132541D01*
X0129266Y0132149D02*
X0005597Y0132149D01*
X0005597Y0131757D02*
X0129727Y0131757D01*
X0130406Y0131365D02*
X0005597Y0131365D01*
X0005597Y0130972D02*
X0131086Y0130972D01*
X0131765Y0130580D02*
X0005597Y0130580D01*
X0005597Y0130188D02*
X0132444Y0130188D01*
X0133124Y0129796D02*
X0005597Y0129796D01*
X0005597Y0129404D02*
X0133803Y0129404D01*
X0134910Y0129011D02*
X0005597Y0129011D01*
X0005597Y0128619D02*
X0136374Y0128619D01*
X0137838Y0128227D02*
X0005597Y0128227D01*
X0005597Y0167840D02*
X0275543Y0167840D01*
X0275543Y0168233D02*
X0005597Y0168233D01*
X0005597Y0168625D02*
X0275543Y0168625D01*
X0275543Y0169017D02*
X0005597Y0169017D01*
X0005597Y0169409D02*
X0275543Y0169409D01*
X0275543Y0169801D02*
X0005597Y0169801D01*
X0005597Y0170194D02*
X0275543Y0170194D01*
X0275543Y0170586D02*
X0005597Y0170586D01*
X0005597Y0170978D02*
X0275543Y0170978D01*
X0275543Y0171370D02*
X0005597Y0171370D01*
X0005597Y0171763D02*
X0275543Y0171763D01*
X0275543Y0172155D02*
X0005597Y0172155D01*
X0005597Y0172547D02*
X0275543Y0172547D01*
X0275543Y0172939D02*
X0005597Y0172939D01*
X0005597Y0173331D02*
X0275543Y0173331D01*
X0275543Y0173724D02*
X0005597Y0173724D01*
X0005597Y0174116D02*
X0275543Y0174116D01*
X0275543Y0174508D02*
X0005597Y0174508D01*
X0005597Y0174900D02*
X0275543Y0174900D01*
X0275543Y0175292D02*
X0005597Y0175292D01*
X0005597Y0175685D02*
X0275543Y0175685D01*
X0275543Y0176077D02*
X0005597Y0176077D01*
X0005597Y0176469D02*
X0275543Y0176469D01*
X0275543Y0176861D02*
X0005597Y0176861D01*
X0005597Y0177253D02*
X0275543Y0177253D01*
X0275543Y0177646D02*
X0005597Y0177646D01*
X0005597Y0178038D02*
X0275543Y0178038D01*
X0275543Y0178430D02*
X0005597Y0178430D01*
X0005597Y0178822D02*
X0275543Y0178822D01*
X0275543Y0179215D02*
X0005597Y0179215D01*
X0005597Y0179607D02*
X0275543Y0179607D01*
X0275543Y0179999D02*
X0005597Y0179999D01*
X0005597Y0180391D02*
X0275543Y0180391D01*
X0275543Y0180783D02*
X0005597Y0180783D01*
X0005597Y0181176D02*
X0275543Y0181176D01*
X0275543Y0181568D02*
X0005597Y0181568D01*
X0005597Y0181960D02*
X0275543Y0181960D01*
X0275543Y0182352D02*
X0005597Y0182352D01*
X0005597Y0182744D02*
X0275543Y0182744D01*
X0275543Y0183137D02*
X0005597Y0183137D01*
X0005597Y0183529D02*
X0275543Y0183529D01*
X0275543Y0183921D02*
X0005597Y0183921D01*
X0005597Y0184313D02*
X0275543Y0184313D01*
X0275543Y0184705D02*
X0005597Y0184705D01*
X0005597Y0185098D02*
X0275543Y0185098D01*
X0275543Y0185490D02*
X0005597Y0185490D01*
X0005597Y0185882D02*
X0275543Y0185882D01*
X0275543Y0186274D02*
X0005597Y0186274D01*
X0005597Y0186667D02*
X0275543Y0186667D01*
X0275543Y0187059D02*
X0005597Y0187059D01*
X0005597Y0187451D02*
X0275543Y0187451D01*
X0275543Y0187843D02*
X0005597Y0187843D01*
X0005597Y0188235D02*
X0275543Y0188235D01*
X0275543Y0188628D02*
X0005597Y0188628D01*
X0005597Y0189020D02*
X0275543Y0189020D01*
X0275543Y0189412D02*
X0005597Y0189412D01*
X0005597Y0189804D02*
X0275543Y0189804D01*
X0275543Y0190196D02*
X0005597Y0190196D01*
X0005597Y0190589D02*
X0275543Y0190589D01*
X0275543Y0190981D02*
X0005597Y0190981D01*
X0005597Y0191373D02*
X0275543Y0191373D01*
X0275543Y0191765D02*
X0005597Y0191765D01*
X0005597Y0192158D02*
X0275543Y0192158D01*
X0275543Y0192550D02*
X0005597Y0192550D01*
X0005597Y0192942D02*
X0275543Y0192942D01*
X0275543Y0193334D02*
X0005597Y0193334D01*
X0005597Y0193726D02*
X0275543Y0193726D01*
X0275543Y0194119D02*
X0005597Y0194119D01*
X0005597Y0194511D02*
X0275543Y0194511D01*
X0275543Y0194903D02*
X0005597Y0194903D01*
X0005597Y0195295D02*
X0275543Y0195295D01*
X0275543Y0195687D02*
X0005597Y0195687D01*
X0005597Y0196080D02*
X0275543Y0196080D01*
X0275543Y0196472D02*
X0005597Y0196472D01*
X0005597Y0196864D02*
X0275543Y0196864D01*
X0275543Y0197256D02*
X0005597Y0197256D01*
X0005597Y0197648D02*
X0275543Y0197648D01*
X0275543Y0198041D02*
X0005597Y0198041D01*
X0005597Y0198433D02*
X0275543Y0198433D01*
X0275543Y0198825D02*
X0005597Y0198825D01*
X0005597Y0199217D02*
X0275543Y0199217D01*
X0275543Y0199610D02*
X0005597Y0199610D01*
X0005597Y0200002D02*
X0275543Y0200002D01*
X0275543Y0200394D02*
X0005597Y0200394D01*
X0005597Y0200786D02*
X0275543Y0200786D01*
X0275543Y0201178D02*
X0005597Y0201178D01*
X0005597Y0201571D02*
X0275543Y0201571D01*
X0275543Y0201963D02*
X0005597Y0201963D01*
X0005597Y0202355D02*
X0275543Y0202355D01*
X0275543Y0202747D02*
X0005597Y0202747D01*
X0005597Y0203139D02*
X0275543Y0203139D01*
X0275543Y0203532D02*
X0005597Y0203532D01*
X0005597Y0203924D02*
X0275543Y0203924D01*
X0275543Y0204316D02*
X0005597Y0204316D01*
X0005597Y0204708D02*
X0275543Y0204708D01*
X0275543Y0205101D02*
X0005597Y0205101D01*
X0005597Y0205493D02*
X0275543Y0205493D01*
X0275543Y0205885D02*
X0005597Y0205885D01*
X0005597Y0206277D02*
X0275543Y0206277D01*
X0275543Y0206669D02*
X0005597Y0206669D01*
X0005597Y0207062D02*
X0275543Y0207062D01*
X0275543Y0207454D02*
X0005597Y0207454D01*
X0005597Y0207846D02*
X0275543Y0207846D01*
X0275543Y0208238D02*
X0005597Y0208238D01*
X0005597Y0208630D02*
X0275543Y0208630D01*
X0275543Y0209023D02*
X0005597Y0209023D01*
X0005597Y0209415D02*
X0275543Y0209415D01*
X0275543Y0209807D02*
X0005597Y0209807D01*
X0005597Y0210199D02*
X0275543Y0210199D01*
X0275543Y0210591D02*
X0005597Y0210591D01*
X0005597Y0210984D02*
X0275543Y0210984D01*
X0275543Y0211376D02*
X0224619Y0211376D01*
X0223422Y0211055D02*
X0228094Y0212307D01*
X0232283Y0214725D01*
X0235703Y0218146D01*
X0238121Y0222335D01*
X0239373Y0227007D01*
X0239373Y0231844D01*
X0238121Y0236516D01*
X0235703Y0240705D01*
X0232283Y0244125D01*
X0228094Y0246543D01*
X0223422Y0247795D01*
X0218585Y0247795D01*
X0213913Y0246543D01*
X0209724Y0244125D01*
X0206303Y0240705D01*
X0203885Y0236516D01*
X0202633Y0231844D01*
X0202633Y0227007D01*
X0203885Y0222335D01*
X0206303Y0218146D01*
X0209724Y0214725D01*
X0213913Y0212307D01*
X0218585Y0211055D01*
X0223422Y0211055D01*
X0226083Y0211768D02*
X0275543Y0211768D01*
X0275543Y0212160D02*
X0227546Y0212160D01*
X0228519Y0212553D02*
X0275543Y0212553D01*
X0275543Y0212945D02*
X0229198Y0212945D01*
X0229878Y0213337D02*
X0275543Y0213337D01*
X0275543Y0213729D02*
X0230557Y0213729D01*
X0231236Y0214121D02*
X0275543Y0214121D01*
X0275543Y0214514D02*
X0231916Y0214514D01*
X0232463Y0214906D02*
X0275543Y0214906D01*
X0275543Y0215298D02*
X0232855Y0215298D01*
X0233247Y0215690D02*
X0275543Y0215690D01*
X0275543Y0216082D02*
X0233640Y0216082D01*
X0234032Y0216475D02*
X0275543Y0216475D01*
X0275543Y0216867D02*
X0234424Y0216867D01*
X0234816Y0217259D02*
X0275543Y0217259D01*
X0275543Y0217651D02*
X0235208Y0217651D01*
X0235601Y0218044D02*
X0275543Y0218044D01*
X0275543Y0218436D02*
X0235870Y0218436D01*
X0236097Y0218828D02*
X0275543Y0218828D01*
X0275543Y0219220D02*
X0236323Y0219220D01*
X0236550Y0219612D02*
X0275543Y0219612D01*
X0275543Y0220005D02*
X0236776Y0220005D01*
X0237003Y0220397D02*
X0275543Y0220397D01*
X0275543Y0220789D02*
X0237229Y0220789D01*
X0237455Y0221181D02*
X0275543Y0221181D01*
X0275543Y0221573D02*
X0237682Y0221573D01*
X0237908Y0221966D02*
X0275543Y0221966D01*
X0275543Y0222358D02*
X0238128Y0222358D01*
X0238233Y0222750D02*
X0275543Y0222750D01*
X0275543Y0223142D02*
X0238338Y0223142D01*
X0238443Y0223534D02*
X0275543Y0223534D01*
X0275543Y0223927D02*
X0238548Y0223927D01*
X0238653Y0224319D02*
X0275543Y0224319D01*
X0275543Y0224711D02*
X0238758Y0224711D01*
X0238863Y0225103D02*
X0275543Y0225103D01*
X0275543Y0225496D02*
X0238968Y0225496D01*
X0239073Y0225888D02*
X0275543Y0225888D01*
X0275543Y0226280D02*
X0239178Y0226280D01*
X0239284Y0226672D02*
X0275543Y0226672D01*
X0275543Y0227064D02*
X0239373Y0227064D01*
X0239373Y0227457D02*
X0275543Y0227457D01*
X0275543Y0227849D02*
X0239373Y0227849D01*
X0239373Y0228241D02*
X0275543Y0228241D01*
X0275543Y0228633D02*
X0239373Y0228633D01*
X0239373Y0229025D02*
X0275543Y0229025D01*
X0275543Y0229418D02*
X0239373Y0229418D01*
X0239373Y0229810D02*
X0275543Y0229810D01*
X0275543Y0230202D02*
X0239373Y0230202D01*
X0239373Y0230594D02*
X0275543Y0230594D01*
X0275543Y0230987D02*
X0239373Y0230987D01*
X0239373Y0231379D02*
X0275543Y0231379D01*
X0275543Y0231771D02*
X0239373Y0231771D01*
X0239288Y0232163D02*
X0275543Y0232163D01*
X0275543Y0232555D02*
X0239183Y0232555D01*
X0239077Y0232948D02*
X0275543Y0232948D01*
X0275543Y0233340D02*
X0238972Y0233340D01*
X0238867Y0233732D02*
X0275543Y0233732D01*
X0275543Y0234124D02*
X0238762Y0234124D01*
X0238657Y0234516D02*
X0275543Y0234516D01*
X0275543Y0234909D02*
X0238552Y0234909D01*
X0238447Y0235301D02*
X0275543Y0235301D01*
X0275543Y0235693D02*
X0238342Y0235693D01*
X0238237Y0236085D02*
X0275543Y0236085D01*
X0275543Y0236477D02*
X0238132Y0236477D01*
X0237917Y0236870D02*
X0275543Y0236870D01*
X0275543Y0237262D02*
X0237691Y0237262D01*
X0237464Y0237654D02*
X0275543Y0237654D01*
X0275543Y0238046D02*
X0237238Y0238046D01*
X0237011Y0238439D02*
X0275543Y0238439D01*
X0275543Y0238831D02*
X0236785Y0238831D01*
X0236558Y0239223D02*
X0275543Y0239223D01*
X0275543Y0239615D02*
X0236332Y0239615D01*
X0236105Y0240007D02*
X0275543Y0240007D01*
X0275543Y0240400D02*
X0235879Y0240400D01*
X0235616Y0240792D02*
X0275543Y0240792D01*
X0275543Y0241184D02*
X0235224Y0241184D01*
X0234831Y0241576D02*
X0275543Y0241576D01*
X0275543Y0241968D02*
X0234439Y0241968D01*
X0234047Y0242361D02*
X0275543Y0242361D01*
X0275543Y0242753D02*
X0233655Y0242753D01*
X0233262Y0243145D02*
X0275543Y0243145D01*
X0275543Y0243537D02*
X0232870Y0243537D01*
X0232478Y0243930D02*
X0275543Y0243930D01*
X0275543Y0244322D02*
X0231942Y0244322D01*
X0231262Y0244714D02*
X0275543Y0244714D01*
X0275543Y0245106D02*
X0230583Y0245106D01*
X0229904Y0245498D02*
X0275543Y0245498D01*
X0275543Y0245891D02*
X0229224Y0245891D01*
X0228545Y0246283D02*
X0275543Y0246283D01*
X0275543Y0246675D02*
X0227602Y0246675D01*
X0226139Y0247067D02*
X0275543Y0247067D01*
X0275543Y0247459D02*
X0224675Y0247459D01*
X0217331Y0247459D02*
X0171663Y0247459D01*
X0170410Y0247795D02*
X0165573Y0247795D01*
X0160901Y0246543D01*
X0156712Y0244125D01*
X0153292Y0240705D01*
X0150873Y0236516D01*
X0149621Y0231844D01*
X0149621Y0227007D01*
X0150873Y0222335D01*
X0153292Y0218146D01*
X0156712Y0214725D01*
X0160901Y0212307D01*
X0165573Y0211055D01*
X0170410Y0211055D01*
X0175082Y0212307D01*
X0179271Y0214725D01*
X0182691Y0218146D01*
X0185110Y0222335D01*
X0186361Y0227007D01*
X0186361Y0231844D01*
X0185110Y0236516D01*
X0182691Y0240705D01*
X0179271Y0244125D01*
X0175082Y0246543D01*
X0170410Y0247795D01*
X0173127Y0247067D02*
X0215868Y0247067D01*
X0214404Y0246675D02*
X0174591Y0246675D01*
X0175533Y0246283D02*
X0213461Y0246283D01*
X0212782Y0245891D02*
X0176213Y0245891D01*
X0176892Y0245498D02*
X0212103Y0245498D01*
X0211423Y0245106D02*
X0177571Y0245106D01*
X0178251Y0244714D02*
X0210744Y0244714D01*
X0210065Y0244322D02*
X0178930Y0244322D01*
X0179466Y0243930D02*
X0209528Y0243930D01*
X0209136Y0243537D02*
X0179858Y0243537D01*
X0180251Y0243145D02*
X0208744Y0243145D01*
X0208352Y0242753D02*
X0180643Y0242753D01*
X0181035Y0242361D02*
X0207959Y0242361D01*
X0207567Y0241968D02*
X0181427Y0241968D01*
X0181819Y0241576D02*
X0207175Y0241576D01*
X0206783Y0241184D02*
X0182212Y0241184D01*
X0182604Y0240792D02*
X0206391Y0240792D01*
X0206127Y0240400D02*
X0182867Y0240400D01*
X0183094Y0240007D02*
X0205901Y0240007D01*
X0205674Y0239615D02*
X0183320Y0239615D01*
X0183547Y0239223D02*
X0205448Y0239223D01*
X0205222Y0238831D02*
X0183773Y0238831D01*
X0183999Y0238439D02*
X0204995Y0238439D01*
X0204769Y0238046D02*
X0184226Y0238046D01*
X0184452Y0237654D02*
X0204542Y0237654D01*
X0204316Y0237262D02*
X0184679Y0237262D01*
X0184905Y0236870D02*
X0204089Y0236870D01*
X0203875Y0236477D02*
X0185120Y0236477D01*
X0185225Y0236085D02*
X0203770Y0236085D01*
X0203665Y0235693D02*
X0185330Y0235693D01*
X0185435Y0235301D02*
X0203559Y0235301D01*
X0203454Y0234909D02*
X0185540Y0234909D01*
X0185645Y0234516D02*
X0203349Y0234516D01*
X0203244Y0234124D02*
X0185750Y0234124D01*
X0185855Y0233732D02*
X0203139Y0233732D01*
X0203034Y0233340D02*
X0185961Y0233340D01*
X0186066Y0232948D02*
X0202929Y0232948D01*
X0202824Y0232555D02*
X0186171Y0232555D01*
X0186276Y0232163D02*
X0202719Y0232163D01*
X0202633Y0231771D02*
X0186361Y0231771D01*
X0186361Y0231379D02*
X0202633Y0231379D01*
X0202633Y0230987D02*
X0186361Y0230987D01*
X0186361Y0230594D02*
X0202633Y0230594D01*
X0202633Y0230202D02*
X0186361Y0230202D01*
X0186361Y0229810D02*
X0202633Y0229810D01*
X0202633Y0229418D02*
X0186361Y0229418D01*
X0186361Y0229025D02*
X0202633Y0229025D01*
X0202633Y0228633D02*
X0186361Y0228633D01*
X0186361Y0228241D02*
X0202633Y0228241D01*
X0202633Y0227849D02*
X0186361Y0227849D01*
X0186361Y0227457D02*
X0202633Y0227457D01*
X0202633Y0227064D02*
X0186361Y0227064D01*
X0186272Y0226672D02*
X0202723Y0226672D01*
X0202828Y0226280D02*
X0186167Y0226280D01*
X0186062Y0225888D02*
X0202933Y0225888D01*
X0203038Y0225496D02*
X0185956Y0225496D01*
X0185851Y0225103D02*
X0203143Y0225103D01*
X0203248Y0224711D02*
X0185746Y0224711D01*
X0185641Y0224319D02*
X0203353Y0224319D01*
X0203458Y0223927D02*
X0185536Y0223927D01*
X0185431Y0223534D02*
X0203563Y0223534D01*
X0203669Y0223142D02*
X0185326Y0223142D01*
X0185221Y0222750D02*
X0203774Y0222750D01*
X0203879Y0222358D02*
X0185116Y0222358D01*
X0184896Y0221966D02*
X0204098Y0221966D01*
X0204324Y0221573D02*
X0184670Y0221573D01*
X0184444Y0221181D02*
X0204551Y0221181D01*
X0204777Y0220789D02*
X0184217Y0220789D01*
X0183991Y0220397D02*
X0205004Y0220397D01*
X0205230Y0220005D02*
X0183764Y0220005D01*
X0183538Y0219612D02*
X0205457Y0219612D01*
X0205683Y0219220D02*
X0183311Y0219220D01*
X0183085Y0218828D02*
X0205910Y0218828D01*
X0206136Y0218436D02*
X0182859Y0218436D01*
X0182589Y0218044D02*
X0206406Y0218044D01*
X0206798Y0217651D02*
X0182197Y0217651D01*
X0181804Y0217259D02*
X0207190Y0217259D01*
X0207582Y0216867D02*
X0181412Y0216867D01*
X0181020Y0216475D02*
X0207974Y0216475D01*
X0208367Y0216082D02*
X0180628Y0216082D01*
X0180236Y0215690D02*
X0208759Y0215690D01*
X0209151Y0215298D02*
X0179843Y0215298D01*
X0179451Y0214906D02*
X0209543Y0214906D01*
X0210091Y0214514D02*
X0178904Y0214514D01*
X0178225Y0214121D02*
X0210770Y0214121D01*
X0211449Y0213729D02*
X0177545Y0213729D01*
X0176866Y0213337D02*
X0212129Y0213337D01*
X0212808Y0212945D02*
X0176187Y0212945D01*
X0175507Y0212553D02*
X0213487Y0212553D01*
X0214460Y0212160D02*
X0174535Y0212160D01*
X0173071Y0211768D02*
X0215924Y0211768D01*
X0217387Y0211376D02*
X0171607Y0211376D01*
X0164376Y0211376D02*
X0118345Y0211376D01*
X0117221Y0211075D02*
X0121893Y0212327D01*
X0126082Y0214745D01*
X0129502Y0218165D01*
X0131921Y0222354D01*
X0133172Y0227026D01*
X0133172Y0231863D01*
X0131921Y0236535D01*
X0129502Y0240724D01*
X0126082Y0244145D01*
X0121893Y0246563D01*
X0117221Y0247815D01*
X0112384Y0247815D01*
X0107712Y0246563D01*
X0103523Y0244145D01*
X0100103Y0240724D01*
X0097684Y0236535D01*
X0096432Y0231863D01*
X0096432Y0227026D01*
X0097684Y0222354D01*
X0100103Y0218165D01*
X0103523Y0214745D01*
X0107712Y0212327D01*
X0112384Y0211075D01*
X0117221Y0211075D01*
X0119808Y0211768D02*
X0162912Y0211768D01*
X0161448Y0212160D02*
X0121272Y0212160D01*
X0122284Y0212553D02*
X0160475Y0212553D01*
X0159796Y0212945D02*
X0122963Y0212945D01*
X0123643Y0213337D02*
X0159117Y0213337D01*
X0158437Y0213729D02*
X0124322Y0213729D01*
X0125001Y0214121D02*
X0157758Y0214121D01*
X0157079Y0214514D02*
X0125681Y0214514D01*
X0126243Y0214906D02*
X0156531Y0214906D01*
X0156139Y0215298D02*
X0126635Y0215298D01*
X0127027Y0215690D02*
X0155747Y0215690D01*
X0155355Y0216082D02*
X0127419Y0216082D01*
X0127811Y0216475D02*
X0154963Y0216475D01*
X0154570Y0216867D02*
X0128204Y0216867D01*
X0128596Y0217259D02*
X0154178Y0217259D01*
X0153786Y0217651D02*
X0128988Y0217651D01*
X0129380Y0218044D02*
X0153394Y0218044D01*
X0153124Y0218436D02*
X0129658Y0218436D01*
X0129885Y0218828D02*
X0152898Y0218828D01*
X0152671Y0219220D02*
X0130111Y0219220D01*
X0130337Y0219612D02*
X0152445Y0219612D01*
X0152218Y0220005D02*
X0130564Y0220005D01*
X0130790Y0220397D02*
X0151992Y0220397D01*
X0151765Y0220789D02*
X0131017Y0220789D01*
X0131243Y0221181D02*
X0151539Y0221181D01*
X0151313Y0221573D02*
X0131470Y0221573D01*
X0131696Y0221966D02*
X0151086Y0221966D01*
X0150867Y0222358D02*
X0131921Y0222358D01*
X0132027Y0222750D02*
X0150762Y0222750D01*
X0150657Y0223142D02*
X0132132Y0223142D01*
X0132237Y0223534D02*
X0150552Y0223534D01*
X0150447Y0223927D02*
X0132342Y0223927D01*
X0132447Y0224319D02*
X0150341Y0224319D01*
X0150236Y0224711D02*
X0132552Y0224711D01*
X0132657Y0225103D02*
X0150131Y0225103D01*
X0150026Y0225496D02*
X0132762Y0225496D01*
X0132867Y0225888D02*
X0149921Y0225888D01*
X0149816Y0226280D02*
X0132972Y0226280D01*
X0133078Y0226672D02*
X0149711Y0226672D01*
X0149621Y0227064D02*
X0133172Y0227064D01*
X0133172Y0227457D02*
X0149621Y0227457D01*
X0149621Y0227849D02*
X0133172Y0227849D01*
X0133172Y0228241D02*
X0149621Y0228241D01*
X0149621Y0228633D02*
X0133172Y0228633D01*
X0133172Y0229025D02*
X0149621Y0229025D01*
X0149621Y0229418D02*
X0133172Y0229418D01*
X0133172Y0229810D02*
X0149621Y0229810D01*
X0149621Y0230202D02*
X0133172Y0230202D01*
X0133172Y0230594D02*
X0149621Y0230594D01*
X0149621Y0230987D02*
X0133172Y0230987D01*
X0133172Y0231379D02*
X0149621Y0231379D01*
X0149621Y0231771D02*
X0133172Y0231771D01*
X0133092Y0232163D02*
X0149707Y0232163D01*
X0149812Y0232555D02*
X0132987Y0232555D01*
X0132882Y0232948D02*
X0149917Y0232948D01*
X0150022Y0233340D02*
X0132777Y0233340D01*
X0132672Y0233732D02*
X0150127Y0233732D01*
X0150232Y0234124D02*
X0132567Y0234124D01*
X0132462Y0234516D02*
X0150337Y0234516D01*
X0150443Y0234909D02*
X0132356Y0234909D01*
X0132251Y0235301D02*
X0150548Y0235301D01*
X0150653Y0235693D02*
X0132146Y0235693D01*
X0132041Y0236085D02*
X0150758Y0236085D01*
X0150863Y0236477D02*
X0131936Y0236477D01*
X0131728Y0236870D02*
X0151078Y0236870D01*
X0151304Y0237262D02*
X0131501Y0237262D01*
X0131275Y0237654D02*
X0151530Y0237654D01*
X0151757Y0238046D02*
X0131048Y0238046D01*
X0130822Y0238439D02*
X0151983Y0238439D01*
X0152210Y0238831D02*
X0130595Y0238831D01*
X0130369Y0239223D02*
X0152436Y0239223D01*
X0152663Y0239615D02*
X0130142Y0239615D01*
X0129916Y0240007D02*
X0152889Y0240007D01*
X0153115Y0240400D02*
X0129690Y0240400D01*
X0129435Y0240792D02*
X0153379Y0240792D01*
X0153771Y0241184D02*
X0129042Y0241184D01*
X0128650Y0241576D02*
X0154163Y0241576D01*
X0154555Y0241968D02*
X0128258Y0241968D01*
X0127866Y0242361D02*
X0154948Y0242361D01*
X0155340Y0242753D02*
X0127474Y0242753D01*
X0127081Y0243145D02*
X0155732Y0243145D01*
X0156124Y0243537D02*
X0126689Y0243537D01*
X0126297Y0243930D02*
X0156516Y0243930D01*
X0157053Y0244322D02*
X0125775Y0244322D01*
X0125096Y0244714D02*
X0157732Y0244714D01*
X0158411Y0245106D02*
X0124416Y0245106D01*
X0123737Y0245498D02*
X0159091Y0245498D01*
X0159770Y0245891D02*
X0123058Y0245891D01*
X0122378Y0246283D02*
X0160449Y0246283D01*
X0161392Y0246675D02*
X0121475Y0246675D01*
X0120011Y0247067D02*
X0162856Y0247067D01*
X0164320Y0247459D02*
X0118548Y0247459D01*
X0111057Y0247459D02*
X0065305Y0247459D01*
X0064052Y0247795D02*
X0059215Y0247795D01*
X0054542Y0246543D01*
X0050354Y0244125D01*
X0046933Y0240705D01*
X0044515Y0236516D01*
X0043263Y0231844D01*
X0043263Y0227007D01*
X0044515Y0222335D01*
X0046933Y0218146D01*
X0050354Y0214725D01*
X0054542Y0212307D01*
X0059215Y0211055D01*
X0064052Y0211055D01*
X0068724Y0212307D01*
X0072913Y0214725D01*
X0076333Y0218146D01*
X0078751Y0222335D01*
X0080003Y0227007D01*
X0080003Y0231844D01*
X0078751Y0236516D01*
X0076333Y0240705D01*
X0072913Y0244125D01*
X0068724Y0246543D01*
X0064052Y0247795D01*
X0066769Y0247067D02*
X0109593Y0247067D01*
X0108130Y0246675D02*
X0068232Y0246675D01*
X0069175Y0246283D02*
X0107226Y0246283D01*
X0106547Y0245891D02*
X0069854Y0245891D01*
X0070534Y0245498D02*
X0105868Y0245498D01*
X0105188Y0245106D02*
X0071213Y0245106D01*
X0071892Y0244714D02*
X0104509Y0244714D01*
X0103830Y0244322D02*
X0072572Y0244322D01*
X0073108Y0243930D02*
X0103308Y0243930D01*
X0102916Y0243537D02*
X0073500Y0243537D01*
X0073892Y0243145D02*
X0102523Y0243145D01*
X0102131Y0242753D02*
X0074285Y0242753D01*
X0074677Y0242361D02*
X0101739Y0242361D01*
X0101347Y0241968D02*
X0075069Y0241968D01*
X0075461Y0241576D02*
X0100955Y0241576D01*
X0100562Y0241184D02*
X0075853Y0241184D01*
X0076246Y0240792D02*
X0100170Y0240792D01*
X0099915Y0240400D02*
X0076509Y0240400D01*
X0076735Y0240007D02*
X0099689Y0240007D01*
X0099462Y0239615D02*
X0076962Y0239615D01*
X0077188Y0239223D02*
X0099236Y0239223D01*
X0099009Y0238831D02*
X0077415Y0238831D01*
X0077641Y0238439D02*
X0098783Y0238439D01*
X0098556Y0238046D02*
X0077868Y0238046D01*
X0078094Y0237654D02*
X0098330Y0237654D01*
X0098104Y0237262D02*
X0078320Y0237262D01*
X0078547Y0236870D02*
X0097877Y0236870D01*
X0097669Y0236477D02*
X0078762Y0236477D01*
X0078867Y0236085D02*
X0097564Y0236085D01*
X0097458Y0235693D02*
X0078972Y0235693D01*
X0079077Y0235301D02*
X0097353Y0235301D01*
X0097248Y0234909D02*
X0079182Y0234909D01*
X0079287Y0234516D02*
X0097143Y0234516D01*
X0097038Y0234124D02*
X0079392Y0234124D01*
X0079497Y0233732D02*
X0096933Y0233732D01*
X0096828Y0233340D02*
X0079602Y0233340D01*
X0079707Y0232948D02*
X0096723Y0232948D01*
X0096618Y0232555D02*
X0079812Y0232555D01*
X0079918Y0232163D02*
X0096513Y0232163D01*
X0096432Y0231771D02*
X0080003Y0231771D01*
X0080003Y0231379D02*
X0096432Y0231379D01*
X0096432Y0230987D02*
X0080003Y0230987D01*
X0080003Y0230594D02*
X0096432Y0230594D01*
X0096432Y0230202D02*
X0080003Y0230202D01*
X0080003Y0229810D02*
X0096432Y0229810D01*
X0096432Y0229418D02*
X0080003Y0229418D01*
X0080003Y0229025D02*
X0096432Y0229025D01*
X0096432Y0228633D02*
X0080003Y0228633D01*
X0080003Y0228241D02*
X0096432Y0228241D01*
X0096432Y0227849D02*
X0080003Y0227849D01*
X0080003Y0227457D02*
X0096432Y0227457D01*
X0096432Y0227064D02*
X0080003Y0227064D01*
X0079913Y0226672D02*
X0096527Y0226672D01*
X0096632Y0226280D02*
X0079808Y0226280D01*
X0079703Y0225888D02*
X0096737Y0225888D01*
X0096842Y0225496D02*
X0079598Y0225496D01*
X0079493Y0225103D02*
X0096948Y0225103D01*
X0097053Y0224711D02*
X0079388Y0224711D01*
X0079283Y0224319D02*
X0097158Y0224319D01*
X0097263Y0223927D02*
X0079178Y0223927D01*
X0079073Y0223534D02*
X0097368Y0223534D01*
X0097473Y0223142D02*
X0078968Y0223142D01*
X0078863Y0222750D02*
X0097578Y0222750D01*
X0097683Y0222358D02*
X0078757Y0222358D01*
X0078538Y0221966D02*
X0097909Y0221966D01*
X0098135Y0221573D02*
X0078312Y0221573D01*
X0078085Y0221181D02*
X0098361Y0221181D01*
X0098588Y0220789D02*
X0077859Y0220789D01*
X0077632Y0220397D02*
X0098814Y0220397D01*
X0099041Y0220005D02*
X0077406Y0220005D01*
X0077180Y0219612D02*
X0099267Y0219612D01*
X0099494Y0219220D02*
X0076953Y0219220D01*
X0076727Y0218828D02*
X0099720Y0218828D01*
X0099947Y0218436D02*
X0076500Y0218436D01*
X0076231Y0218044D02*
X0100224Y0218044D01*
X0100617Y0217651D02*
X0075838Y0217651D01*
X0075446Y0217259D02*
X0101009Y0217259D01*
X0101401Y0216867D02*
X0075054Y0216867D01*
X0074662Y0216475D02*
X0101793Y0216475D01*
X0102186Y0216082D02*
X0074270Y0216082D01*
X0073877Y0215690D02*
X0102578Y0215690D01*
X0102970Y0215298D02*
X0073485Y0215298D01*
X0073093Y0214906D02*
X0103362Y0214906D01*
X0103924Y0214514D02*
X0072546Y0214514D01*
X0071866Y0214121D02*
X0104603Y0214121D01*
X0105283Y0213729D02*
X0071187Y0213729D01*
X0070508Y0213337D02*
X0105962Y0213337D01*
X0106641Y0212945D02*
X0069828Y0212945D01*
X0069149Y0212553D02*
X0107321Y0212553D01*
X0108333Y0212160D02*
X0068176Y0212160D01*
X0066713Y0211768D02*
X0109796Y0211768D01*
X0111260Y0211376D02*
X0065249Y0211376D01*
X0058017Y0211376D02*
X0005597Y0211376D01*
X0005597Y0211768D02*
X0056554Y0211768D01*
X0055090Y0212160D02*
X0005597Y0212160D01*
X0005597Y0212553D02*
X0054117Y0212553D01*
X0053438Y0212945D02*
X0005597Y0212945D01*
X0005597Y0213337D02*
X0052759Y0213337D01*
X0052079Y0213729D02*
X0005597Y0213729D01*
X0005597Y0214121D02*
X0051400Y0214121D01*
X0050720Y0214514D02*
X0005597Y0214514D01*
X0005597Y0214906D02*
X0050173Y0214906D01*
X0049781Y0215298D02*
X0005597Y0215298D01*
X0005597Y0215690D02*
X0049389Y0215690D01*
X0048997Y0216082D02*
X0005597Y0216082D01*
X0005597Y0216475D02*
X0048604Y0216475D01*
X0048212Y0216867D02*
X0005597Y0216867D01*
X0005597Y0217259D02*
X0047820Y0217259D01*
X0047428Y0217651D02*
X0005597Y0217651D01*
X0005597Y0218044D02*
X0047036Y0218044D01*
X0046766Y0218436D02*
X0005597Y0218436D01*
X0005597Y0218828D02*
X0046539Y0218828D01*
X0046313Y0219220D02*
X0005597Y0219220D01*
X0005597Y0219612D02*
X0046087Y0219612D01*
X0045860Y0220005D02*
X0005597Y0220005D01*
X0005597Y0220397D02*
X0045634Y0220397D01*
X0045407Y0220789D02*
X0005597Y0220789D01*
X0005597Y0221181D02*
X0045181Y0221181D01*
X0044954Y0221573D02*
X0005597Y0221573D01*
X0005597Y0221966D02*
X0044728Y0221966D01*
X0044509Y0222358D02*
X0005597Y0222358D01*
X0005597Y0222750D02*
X0044404Y0222750D01*
X0044298Y0223142D02*
X0005597Y0223142D01*
X0005597Y0223534D02*
X0044193Y0223534D01*
X0044088Y0223927D02*
X0005597Y0223927D01*
X0005597Y0224319D02*
X0043983Y0224319D01*
X0043878Y0224711D02*
X0005597Y0224711D01*
X0005597Y0225103D02*
X0043773Y0225103D01*
X0043668Y0225496D02*
X0005597Y0225496D01*
X0005597Y0225888D02*
X0043563Y0225888D01*
X0043458Y0226280D02*
X0005597Y0226280D01*
X0005597Y0226672D02*
X0043353Y0226672D01*
X0043263Y0227064D02*
X0005597Y0227064D01*
X0005597Y0227457D02*
X0043263Y0227457D01*
X0043263Y0227849D02*
X0005597Y0227849D01*
X0005597Y0228241D02*
X0043263Y0228241D01*
X0043263Y0228633D02*
X0005597Y0228633D01*
X0005597Y0229025D02*
X0043263Y0229025D01*
X0043263Y0229418D02*
X0005597Y0229418D01*
X0005597Y0229810D02*
X0043263Y0229810D01*
X0043263Y0230202D02*
X0005597Y0230202D01*
X0005597Y0230594D02*
X0043263Y0230594D01*
X0043263Y0230987D02*
X0005597Y0230987D01*
X0005597Y0231379D02*
X0043263Y0231379D01*
X0043263Y0231771D02*
X0005597Y0231771D01*
X0005597Y0232163D02*
X0043349Y0232163D01*
X0043454Y0232555D02*
X0005597Y0232555D01*
X0005597Y0232948D02*
X0043559Y0232948D01*
X0043664Y0233340D02*
X0005597Y0233340D01*
X0005597Y0233732D02*
X0043769Y0233732D01*
X0043874Y0234124D02*
X0005597Y0234124D01*
X0005597Y0234516D02*
X0043979Y0234516D01*
X0044084Y0234909D02*
X0005597Y0234909D01*
X0005597Y0235301D02*
X0044189Y0235301D01*
X0044294Y0235693D02*
X0005597Y0235693D01*
X0005597Y0236085D02*
X0044400Y0236085D01*
X0044505Y0236477D02*
X0005597Y0236477D01*
X0005597Y0236870D02*
X0044719Y0236870D01*
X0044946Y0237262D02*
X0005597Y0237262D01*
X0005597Y0237654D02*
X0045172Y0237654D01*
X0045399Y0238046D02*
X0005597Y0238046D01*
X0005597Y0238439D02*
X0045625Y0238439D01*
X0045851Y0238831D02*
X0005597Y0238831D01*
X0005597Y0239223D02*
X0046078Y0239223D01*
X0046304Y0239615D02*
X0005597Y0239615D01*
X0005597Y0240007D02*
X0046531Y0240007D01*
X0046757Y0240400D02*
X0005597Y0240400D01*
X0005597Y0240792D02*
X0047020Y0240792D01*
X0047413Y0241184D02*
X0005597Y0241184D01*
X0005597Y0241576D02*
X0047805Y0241576D01*
X0048197Y0241968D02*
X0005597Y0241968D01*
X0005597Y0242361D02*
X0048589Y0242361D01*
X0048982Y0242753D02*
X0005597Y0242753D01*
X0005597Y0243145D02*
X0049374Y0243145D01*
X0049766Y0243537D02*
X0005597Y0243537D01*
X0005597Y0243930D02*
X0050158Y0243930D01*
X0050694Y0244322D02*
X0005597Y0244322D01*
X0005597Y0244714D02*
X0051374Y0244714D01*
X0052053Y0245106D02*
X0005597Y0245106D01*
X0005597Y0245498D02*
X0052732Y0245498D01*
X0053412Y0245891D02*
X0005597Y0245891D01*
X0005597Y0246283D02*
X0054091Y0246283D01*
X0055034Y0246675D02*
X0005597Y0246675D01*
X0005597Y0247067D02*
X0056498Y0247067D01*
X0057961Y0247459D02*
X0005597Y0247459D01*
X0005597Y0247852D02*
X0275543Y0247852D01*
X0275543Y0248244D02*
X0005597Y0248244D01*
X0005597Y0248636D02*
X0275543Y0248636D01*
X0275543Y0249028D02*
X0005597Y0249028D01*
X0005597Y0249420D02*
X0275543Y0249420D01*
X0275543Y0249813D02*
X0005597Y0249813D01*
X0005597Y0250205D02*
X0275543Y0250205D01*
X0275543Y0250597D02*
X0005597Y0250597D01*
X0005597Y0250989D02*
X0275543Y0250989D01*
X0275543Y0251382D02*
X0005597Y0251382D01*
X0005597Y0251774D02*
X0275543Y0251774D01*
X0275543Y0252166D02*
X0005597Y0252166D01*
X0005597Y0252558D02*
X0275543Y0252558D01*
X0275543Y0252950D02*
X0005597Y0252950D01*
X0005597Y0253343D02*
X0275543Y0253343D01*
X0275543Y0253735D02*
X0005597Y0253735D01*
X0005597Y0254127D02*
X0275543Y0254127D01*
X0275543Y0254519D02*
X0005597Y0254519D01*
X0005597Y0254911D02*
X0275543Y0254911D01*
X0275543Y0255304D02*
X0005597Y0255304D01*
X0005597Y0255696D02*
X0275543Y0255696D01*
X0275543Y0256088D02*
X0005597Y0256088D01*
X0005597Y0256480D02*
X0275543Y0256480D01*
X0275543Y0256873D02*
X0005597Y0256873D01*
X0005597Y0257265D02*
X0275543Y0257265D01*
X0275543Y0257657D02*
X0005597Y0257657D01*
X0005597Y0258049D02*
X0275543Y0258049D01*
X0275543Y0258441D02*
X0005597Y0258441D01*
X0005597Y0258834D02*
X0275543Y0258834D01*
X0275543Y0259226D02*
X0005597Y0259226D01*
X0005597Y0259618D02*
X0275543Y0259618D01*
X0275543Y0260010D02*
X0005597Y0260010D01*
X0005597Y0260402D02*
X0275543Y0260402D01*
X0275543Y0260795D02*
X0005597Y0260795D01*
X0005597Y0261187D02*
X0275543Y0261187D01*
X0275543Y0261579D02*
X0005597Y0261579D01*
X0005597Y0261971D02*
X0275543Y0261971D01*
X0275543Y0262363D02*
X0005597Y0262363D01*
X0005597Y0262756D02*
X0275543Y0262756D01*
X0275543Y0263148D02*
X0005597Y0263148D01*
X0005597Y0263540D02*
X0275543Y0263540D01*
X0275543Y0263932D02*
X0005597Y0263932D01*
X0005597Y0264325D02*
X0275543Y0264325D01*
X0275543Y0264717D02*
X0005597Y0264717D01*
X0005597Y0265109D02*
X0275543Y0265109D01*
X0275543Y0265501D02*
X0005597Y0265501D01*
X0005597Y0265893D02*
X0275543Y0265893D01*
X0275543Y0266286D02*
X0005597Y0266286D01*
X0005597Y0266678D02*
X0275543Y0266678D01*
X0275543Y0267070D02*
X0005597Y0267070D01*
X0005597Y0267462D02*
X0275543Y0267462D01*
X0275543Y0267854D02*
X0005597Y0267854D01*
X0005597Y0268247D02*
X0275543Y0268247D01*
X0275543Y0268639D02*
X0005597Y0268639D01*
X0005597Y0269031D02*
X0275543Y0269031D01*
X0275543Y0269423D02*
X0005597Y0269423D01*
X0005597Y0269816D02*
X0275543Y0269816D01*
X0275543Y0270208D02*
X0005597Y0270208D01*
X0005597Y0270600D02*
X0275543Y0270600D01*
X0275543Y0270992D02*
X0005597Y0270992D01*
X0005597Y0271384D02*
X0275543Y0271384D01*
X0275543Y0271777D02*
X0005597Y0271777D01*
X0005597Y0272169D02*
X0275543Y0272169D01*
X0275543Y0272561D02*
X0005597Y0272561D01*
X0005597Y0272953D02*
X0275543Y0272953D01*
X0275543Y0273345D02*
X0005597Y0273345D01*
X0005597Y0273738D02*
X0275543Y0273738D01*
X0275543Y0274130D02*
X0244470Y0274130D01*
X0243996Y0273934D02*
X0245612Y0274603D01*
X0246849Y0275840D01*
X0247519Y0277456D01*
X0247519Y0279205D01*
X0247519Y0279205D01*
X0247519Y0432267D01*
X0247519Y0434016D01*
X0246849Y0435632D01*
X0245612Y0436869D01*
X0243996Y0437539D01*
X0039214Y0437539D01*
X0039214Y0437539D01*
X0037598Y0436869D01*
X0036361Y0435632D01*
X0035692Y0434016D01*
X0035692Y0277456D01*
X0036361Y0275840D01*
X0037598Y0274603D01*
X0039214Y0273934D01*
X0243996Y0273934D01*
X0245417Y0274522D02*
X0275543Y0274522D01*
X0275543Y0274914D02*
X0245924Y0274914D01*
X0246316Y0275306D02*
X0275543Y0275306D01*
X0275543Y0275699D02*
X0246708Y0275699D01*
X0246953Y0276091D02*
X0275543Y0276091D01*
X0275543Y0276483D02*
X0247116Y0276483D01*
X0247278Y0276875D02*
X0275543Y0276875D01*
X0275543Y0277268D02*
X0247441Y0277268D01*
X0247519Y0277660D02*
X0275543Y0277660D01*
X0275543Y0278052D02*
X0247519Y0278052D01*
X0247519Y0278444D02*
X0275543Y0278444D01*
X0275543Y0278836D02*
X0247519Y0278836D01*
X0247519Y0279229D02*
X0275543Y0279229D01*
X0275543Y0279621D02*
X0247519Y0279621D01*
X0247519Y0280013D02*
X0275543Y0280013D01*
X0275543Y0280405D02*
X0247519Y0280405D01*
X0247519Y0280797D02*
X0275543Y0280797D01*
X0275543Y0281190D02*
X0247519Y0281190D01*
X0247519Y0281582D02*
X0275543Y0281582D01*
X0275543Y0281974D02*
X0247519Y0281974D01*
X0247519Y0282366D02*
X0275543Y0282366D01*
X0275543Y0282759D02*
X0247519Y0282759D01*
X0247519Y0283151D02*
X0275543Y0283151D01*
X0275543Y0283543D02*
X0247519Y0283543D01*
X0247519Y0283935D02*
X0275543Y0283935D01*
X0275543Y0284327D02*
X0247519Y0284327D01*
X0247519Y0284720D02*
X0275543Y0284720D01*
X0275543Y0285112D02*
X0247519Y0285112D01*
X0247519Y0285504D02*
X0275543Y0285504D01*
X0275543Y0285896D02*
X0247519Y0285896D01*
X0247519Y0286288D02*
X0275543Y0286288D01*
X0275543Y0286681D02*
X0247519Y0286681D01*
X0247519Y0287073D02*
X0275543Y0287073D01*
X0275543Y0287465D02*
X0247519Y0287465D01*
X0247519Y0287857D02*
X0275543Y0287857D01*
X0275543Y0288249D02*
X0247519Y0288249D01*
X0247519Y0288642D02*
X0275543Y0288642D01*
X0275543Y0289034D02*
X0247519Y0289034D01*
X0247519Y0289426D02*
X0275543Y0289426D01*
X0275543Y0289818D02*
X0247519Y0289818D01*
X0247519Y0290211D02*
X0275543Y0290211D01*
X0275543Y0290603D02*
X0247519Y0290603D01*
X0247519Y0290995D02*
X0275543Y0290995D01*
X0275543Y0291387D02*
X0247519Y0291387D01*
X0247519Y0291779D02*
X0275543Y0291779D01*
X0275543Y0292172D02*
X0247519Y0292172D01*
X0247519Y0292564D02*
X0275543Y0292564D01*
X0275543Y0292956D02*
X0247519Y0292956D01*
X0247519Y0293348D02*
X0275543Y0293348D01*
X0275543Y0293740D02*
X0247519Y0293740D01*
X0247519Y0294133D02*
X0275543Y0294133D01*
X0275543Y0294525D02*
X0247519Y0294525D01*
X0247519Y0294917D02*
X0275543Y0294917D01*
X0275543Y0295309D02*
X0247519Y0295309D01*
X0247519Y0295702D02*
X0275543Y0295702D01*
X0275543Y0296094D02*
X0247519Y0296094D01*
X0247519Y0296486D02*
X0275543Y0296486D01*
X0275543Y0296878D02*
X0247519Y0296878D01*
X0247519Y0297270D02*
X0275543Y0297270D01*
X0275543Y0297663D02*
X0247519Y0297663D01*
X0247519Y0298055D02*
X0275543Y0298055D01*
X0275543Y0298447D02*
X0247519Y0298447D01*
X0247519Y0298839D02*
X0275543Y0298839D01*
X0275543Y0299231D02*
X0247519Y0299231D01*
X0247519Y0299624D02*
X0275543Y0299624D01*
X0275543Y0300016D02*
X0247519Y0300016D01*
X0247519Y0300408D02*
X0275543Y0300408D01*
X0275543Y0300800D02*
X0247519Y0300800D01*
X0247519Y0301192D02*
X0275543Y0301192D01*
X0275543Y0301585D02*
X0247519Y0301585D01*
X0247519Y0301977D02*
X0275543Y0301977D01*
X0275543Y0302369D02*
X0247519Y0302369D01*
X0247519Y0302761D02*
X0275543Y0302761D01*
X0275543Y0303154D02*
X0247519Y0303154D01*
X0247519Y0303546D02*
X0275543Y0303546D01*
X0275543Y0303938D02*
X0247519Y0303938D01*
X0247519Y0304330D02*
X0275543Y0304330D01*
X0275543Y0304722D02*
X0247519Y0304722D01*
X0247519Y0305115D02*
X0275543Y0305115D01*
X0275543Y0305507D02*
X0247519Y0305507D01*
X0247519Y0305899D02*
X0275543Y0305899D01*
X0275543Y0306291D02*
X0247519Y0306291D01*
X0247519Y0306683D02*
X0275543Y0306683D01*
X0275543Y0307076D02*
X0247519Y0307076D01*
X0247519Y0307468D02*
X0275543Y0307468D01*
X0275543Y0307860D02*
X0247519Y0307860D01*
X0247519Y0308252D02*
X0275543Y0308252D01*
X0275543Y0308645D02*
X0247519Y0308645D01*
X0247519Y0309037D02*
X0275543Y0309037D01*
X0275543Y0309429D02*
X0247519Y0309429D01*
X0247519Y0309821D02*
X0275543Y0309821D01*
X0275543Y0310213D02*
X0247519Y0310213D01*
X0247519Y0310606D02*
X0275543Y0310606D01*
X0275543Y0310998D02*
X0247519Y0310998D01*
X0247519Y0311390D02*
X0275543Y0311390D01*
X0275543Y0311782D02*
X0247519Y0311782D01*
X0247519Y0312174D02*
X0275543Y0312174D01*
X0275543Y0312567D02*
X0247519Y0312567D01*
X0247519Y0312959D02*
X0275543Y0312959D01*
X0275543Y0313351D02*
X0247519Y0313351D01*
X0247519Y0313743D02*
X0275543Y0313743D01*
X0275543Y0314135D02*
X0247519Y0314135D01*
X0247519Y0314528D02*
X0275543Y0314528D01*
X0275543Y0314920D02*
X0247519Y0314920D01*
X0247519Y0315312D02*
X0275543Y0315312D01*
X0275543Y0315704D02*
X0247519Y0315704D01*
X0247519Y0316097D02*
X0275543Y0316097D01*
X0275543Y0316489D02*
X0247519Y0316489D01*
X0247519Y0316881D02*
X0275543Y0316881D01*
X0275543Y0317273D02*
X0247519Y0317273D01*
X0247519Y0317665D02*
X0275543Y0317665D01*
X0275543Y0318058D02*
X0247519Y0318058D01*
X0247519Y0318450D02*
X0275543Y0318450D01*
X0275543Y0318842D02*
X0247519Y0318842D01*
X0247519Y0319234D02*
X0275543Y0319234D01*
X0275543Y0319626D02*
X0247519Y0319626D01*
X0247519Y0320019D02*
X0275543Y0320019D01*
X0275543Y0320411D02*
X0247519Y0320411D01*
X0247519Y0320803D02*
X0275543Y0320803D01*
X0275543Y0321195D02*
X0247519Y0321195D01*
X0247519Y0321588D02*
X0275543Y0321588D01*
X0275543Y0321980D02*
X0264370Y0321980D01*
X0263153Y0321654D02*
X0265822Y0322369D01*
X0268216Y0323751D01*
X0270170Y0325705D01*
X0271552Y0328098D01*
X0272267Y0330768D01*
X0272267Y0333531D01*
X0271552Y0336201D01*
X0270170Y0338594D01*
X0268216Y0340549D01*
X0265822Y0341930D01*
X0263153Y0342646D01*
X0260389Y0342646D01*
X0257720Y0341930D01*
X0255326Y0340549D01*
X0253372Y0338594D01*
X0251990Y0336201D01*
X0251275Y0333531D01*
X0251275Y0330768D01*
X0251990Y0328098D01*
X0253372Y0325705D01*
X0255326Y0323751D01*
X0257720Y0322369D01*
X0260389Y0321654D01*
X0263153Y0321654D01*
X0265828Y0322372D02*
X0275543Y0322372D01*
X0275543Y0322764D02*
X0266507Y0322764D01*
X0267186Y0323156D02*
X0275543Y0323156D01*
X0275543Y0323549D02*
X0267866Y0323549D01*
X0268406Y0323941D02*
X0275543Y0323941D01*
X0275543Y0324333D02*
X0268798Y0324333D01*
X0269190Y0324725D02*
X0275543Y0324725D01*
X0275543Y0325117D02*
X0269582Y0325117D01*
X0269975Y0325510D02*
X0275543Y0325510D01*
X0275543Y0325902D02*
X0270284Y0325902D01*
X0270510Y0326294D02*
X0275543Y0326294D01*
X0275543Y0326686D02*
X0270736Y0326686D01*
X0270963Y0327078D02*
X0275543Y0327078D01*
X0275543Y0327471D02*
X0271189Y0327471D01*
X0271416Y0327863D02*
X0275543Y0327863D01*
X0275543Y0328255D02*
X0271594Y0328255D01*
X0271699Y0328647D02*
X0275543Y0328647D01*
X0275543Y0329040D02*
X0271804Y0329040D01*
X0271909Y0329432D02*
X0275543Y0329432D01*
X0275543Y0329824D02*
X0272014Y0329824D01*
X0272119Y0330216D02*
X0275543Y0330216D01*
X0275543Y0330608D02*
X0272224Y0330608D01*
X0272267Y0331001D02*
X0275543Y0331001D01*
X0275543Y0331393D02*
X0272267Y0331393D01*
X0272267Y0331785D02*
X0275543Y0331785D01*
X0275543Y0332177D02*
X0272267Y0332177D01*
X0272267Y0332569D02*
X0275543Y0332569D01*
X0275543Y0332962D02*
X0272267Y0332962D01*
X0272267Y0333354D02*
X0275543Y0333354D01*
X0275543Y0333746D02*
X0272209Y0333746D01*
X0272104Y0334138D02*
X0275543Y0334138D01*
X0275543Y0334531D02*
X0271999Y0334531D01*
X0271894Y0334923D02*
X0275543Y0334923D01*
X0275543Y0335315D02*
X0271789Y0335315D01*
X0271684Y0335707D02*
X0275543Y0335707D01*
X0275543Y0336099D02*
X0271579Y0336099D01*
X0271384Y0336492D02*
X0275543Y0336492D01*
X0275543Y0336884D02*
X0271157Y0336884D01*
X0270931Y0337276D02*
X0275543Y0337276D01*
X0275543Y0337668D02*
X0270704Y0337668D01*
X0270478Y0338060D02*
X0275543Y0338060D01*
X0275543Y0338453D02*
X0270252Y0338453D01*
X0269919Y0338845D02*
X0275543Y0338845D01*
X0275543Y0339237D02*
X0269527Y0339237D01*
X0269135Y0339629D02*
X0275543Y0339629D01*
X0275543Y0340021D02*
X0268743Y0340021D01*
X0268350Y0340414D02*
X0275543Y0340414D01*
X0275543Y0340806D02*
X0267770Y0340806D01*
X0267090Y0341198D02*
X0275543Y0341198D01*
X0275543Y0341590D02*
X0266411Y0341590D01*
X0265627Y0341983D02*
X0275543Y0341983D01*
X0275543Y0342375D02*
X0264164Y0342375D01*
X0259378Y0342375D02*
X0247519Y0342375D01*
X0247519Y0342767D02*
X0275543Y0342767D01*
X0275543Y0343159D02*
X0247519Y0343159D01*
X0247519Y0343551D02*
X0275543Y0343551D01*
X0275543Y0343944D02*
X0247519Y0343944D01*
X0247519Y0344336D02*
X0275543Y0344336D01*
X0275543Y0344728D02*
X0247519Y0344728D01*
X0247519Y0345120D02*
X0275543Y0345120D01*
X0275543Y0345512D02*
X0247519Y0345512D01*
X0247519Y0345905D02*
X0275543Y0345905D01*
X0275543Y0346297D02*
X0247519Y0346297D01*
X0247519Y0346689D02*
X0275543Y0346689D01*
X0275543Y0347081D02*
X0247519Y0347081D01*
X0247519Y0347474D02*
X0275543Y0347474D01*
X0275543Y0347866D02*
X0247519Y0347866D01*
X0247519Y0348258D02*
X0275543Y0348258D01*
X0275543Y0348650D02*
X0247519Y0348650D01*
X0247519Y0349042D02*
X0275543Y0349042D01*
X0275543Y0349435D02*
X0247519Y0349435D01*
X0247519Y0349827D02*
X0275543Y0349827D01*
X0275543Y0350219D02*
X0247519Y0350219D01*
X0247519Y0350611D02*
X0275543Y0350611D01*
X0275543Y0351003D02*
X0247519Y0351003D01*
X0247519Y0351396D02*
X0275543Y0351396D01*
X0275543Y0351788D02*
X0247519Y0351788D01*
X0247519Y0352180D02*
X0275543Y0352180D01*
X0275543Y0352572D02*
X0247519Y0352572D01*
X0247519Y0352964D02*
X0275543Y0352964D01*
X0275543Y0353357D02*
X0247519Y0353357D01*
X0247519Y0353749D02*
X0275543Y0353749D01*
X0275543Y0354141D02*
X0247519Y0354141D01*
X0247519Y0354533D02*
X0275543Y0354533D01*
X0275543Y0354926D02*
X0247519Y0354926D01*
X0247519Y0355318D02*
X0275543Y0355318D01*
X0275543Y0355710D02*
X0247519Y0355710D01*
X0247519Y0356102D02*
X0275543Y0356102D01*
X0275543Y0356494D02*
X0247519Y0356494D01*
X0247519Y0356887D02*
X0275543Y0356887D01*
X0275543Y0357279D02*
X0247519Y0357279D01*
X0247519Y0357671D02*
X0275543Y0357671D01*
X0275543Y0358063D02*
X0247519Y0358063D01*
X0247519Y0358455D02*
X0275543Y0358455D01*
X0275543Y0358848D02*
X0247519Y0358848D01*
X0247519Y0359240D02*
X0275543Y0359240D01*
X0275543Y0359632D02*
X0247519Y0359632D01*
X0247519Y0360024D02*
X0275543Y0360024D01*
X0275543Y0360417D02*
X0247519Y0360417D01*
X0247519Y0360809D02*
X0275543Y0360809D01*
X0275543Y0361201D02*
X0247519Y0361201D01*
X0247519Y0361593D02*
X0275543Y0361593D01*
X0275543Y0361985D02*
X0247519Y0361985D01*
X0247519Y0362378D02*
X0275543Y0362378D01*
X0275543Y0362770D02*
X0247519Y0362770D01*
X0247519Y0363162D02*
X0275543Y0363162D01*
X0275543Y0363554D02*
X0247519Y0363554D01*
X0247519Y0363946D02*
X0275543Y0363946D01*
X0275543Y0364339D02*
X0247519Y0364339D01*
X0247519Y0364731D02*
X0275543Y0364731D01*
X0275543Y0365123D02*
X0247519Y0365123D01*
X0247519Y0365515D02*
X0275543Y0365515D01*
X0275543Y0365907D02*
X0247519Y0365907D01*
X0247519Y0366300D02*
X0275543Y0366300D01*
X0275543Y0366692D02*
X0247519Y0366692D01*
X0247519Y0367084D02*
X0275543Y0367084D01*
X0275543Y0367476D02*
X0247519Y0367476D01*
X0247519Y0367869D02*
X0275543Y0367869D01*
X0275543Y0368261D02*
X0247519Y0368261D01*
X0247519Y0368653D02*
X0275543Y0368653D01*
X0275543Y0369045D02*
X0247519Y0369045D01*
X0247519Y0369437D02*
X0275543Y0369437D01*
X0275543Y0369830D02*
X0247519Y0369830D01*
X0247519Y0370222D02*
X0275543Y0370222D01*
X0275543Y0370614D02*
X0247519Y0370614D01*
X0247519Y0371006D02*
X0275543Y0371006D01*
X0275543Y0371398D02*
X0247519Y0371398D01*
X0247519Y0371791D02*
X0275543Y0371791D01*
X0275543Y0372183D02*
X0247519Y0372183D01*
X0247519Y0372575D02*
X0275543Y0372575D01*
X0275543Y0372967D02*
X0247519Y0372967D01*
X0247519Y0373360D02*
X0275543Y0373360D01*
X0275543Y0373752D02*
X0247519Y0373752D01*
X0247519Y0374144D02*
X0275543Y0374144D01*
X0275543Y0374536D02*
X0247519Y0374536D01*
X0247519Y0374928D02*
X0275543Y0374928D01*
X0275543Y0375321D02*
X0247519Y0375321D01*
X0247519Y0375713D02*
X0275543Y0375713D01*
X0275543Y0376105D02*
X0247519Y0376105D01*
X0247519Y0376497D02*
X0275543Y0376497D01*
X0275543Y0376889D02*
X0247519Y0376889D01*
X0247519Y0377282D02*
X0275543Y0377282D01*
X0275543Y0377674D02*
X0247519Y0377674D01*
X0247519Y0378066D02*
X0275543Y0378066D01*
X0275543Y0378458D02*
X0247519Y0378458D01*
X0247519Y0378850D02*
X0275543Y0378850D01*
X0275543Y0379243D02*
X0247519Y0379243D01*
X0247519Y0379635D02*
X0275543Y0379635D01*
X0275543Y0380027D02*
X0247519Y0380027D01*
X0247519Y0380419D02*
X0275543Y0380419D01*
X0275543Y0380812D02*
X0247519Y0380812D01*
X0247519Y0381204D02*
X0275543Y0381204D01*
X0275543Y0381596D02*
X0247519Y0381596D01*
X0247519Y0381988D02*
X0275543Y0381988D01*
X0275543Y0382380D02*
X0247519Y0382380D01*
X0247519Y0382773D02*
X0275543Y0382773D01*
X0275543Y0383165D02*
X0247519Y0383165D01*
X0247519Y0383557D02*
X0275543Y0383557D01*
X0275543Y0383949D02*
X0247519Y0383949D01*
X0247519Y0384341D02*
X0275543Y0384341D01*
X0275543Y0384734D02*
X0247519Y0384734D01*
X0247519Y0385126D02*
X0275543Y0385126D01*
X0275543Y0385518D02*
X0247519Y0385518D01*
X0247519Y0385910D02*
X0275543Y0385910D01*
X0275543Y0386303D02*
X0247519Y0386303D01*
X0247519Y0386695D02*
X0275543Y0386695D01*
X0275543Y0387087D02*
X0247519Y0387087D01*
X0247519Y0387479D02*
X0275543Y0387479D01*
X0275543Y0387871D02*
X0247519Y0387871D01*
X0247519Y0388264D02*
X0275543Y0388264D01*
X0275543Y0388656D02*
X0247519Y0388656D01*
X0247519Y0389048D02*
X0275543Y0389048D01*
X0275543Y0389440D02*
X0247519Y0389440D01*
X0247519Y0389832D02*
X0275543Y0389832D01*
X0275543Y0390225D02*
X0247519Y0390225D01*
X0247519Y0390617D02*
X0275543Y0390617D01*
X0275543Y0391009D02*
X0247519Y0391009D01*
X0247519Y0391401D02*
X0275543Y0391401D01*
X0275543Y0391793D02*
X0247519Y0391793D01*
X0247519Y0392186D02*
X0275543Y0392186D01*
X0275543Y0392578D02*
X0247519Y0392578D01*
X0247519Y0392970D02*
X0275543Y0392970D01*
X0275543Y0393362D02*
X0247519Y0393362D01*
X0247519Y0393755D02*
X0275543Y0393755D01*
X0275543Y0394147D02*
X0247519Y0394147D01*
X0247519Y0394539D02*
X0275543Y0394539D01*
X0275543Y0394931D02*
X0247519Y0394931D01*
X0247519Y0395323D02*
X0275543Y0395323D01*
X0275543Y0395716D02*
X0247519Y0395716D01*
X0247519Y0396108D02*
X0275543Y0396108D01*
X0275543Y0396500D02*
X0247519Y0396500D01*
X0247519Y0396892D02*
X0275543Y0396892D01*
X0275543Y0397284D02*
X0247519Y0397284D01*
X0247519Y0397677D02*
X0275543Y0397677D01*
X0275543Y0398069D02*
X0247519Y0398069D01*
X0247519Y0398461D02*
X0275543Y0398461D01*
X0275543Y0398853D02*
X0247519Y0398853D01*
X0247519Y0399246D02*
X0275543Y0399246D01*
X0275543Y0399638D02*
X0247519Y0399638D01*
X0247519Y0400030D02*
X0275543Y0400030D01*
X0275543Y0400422D02*
X0247519Y0400422D01*
X0247519Y0400814D02*
X0275543Y0400814D01*
X0275543Y0401207D02*
X0247519Y0401207D01*
X0247519Y0401599D02*
X0275543Y0401599D01*
X0275543Y0401991D02*
X0247519Y0401991D01*
X0247519Y0402383D02*
X0275543Y0402383D01*
X0275543Y0402775D02*
X0247519Y0402775D01*
X0247519Y0403168D02*
X0275543Y0403168D01*
X0275543Y0403560D02*
X0247519Y0403560D01*
X0247519Y0403952D02*
X0275543Y0403952D01*
X0275543Y0404344D02*
X0247519Y0404344D01*
X0247519Y0404736D02*
X0275543Y0404736D01*
X0275543Y0405129D02*
X0247519Y0405129D01*
X0247519Y0405521D02*
X0275543Y0405521D01*
X0275543Y0405913D02*
X0247519Y0405913D01*
X0247519Y0406305D02*
X0275543Y0406305D01*
X0275543Y0406698D02*
X0247519Y0406698D01*
X0247519Y0407090D02*
X0275543Y0407090D01*
X0275543Y0407482D02*
X0247519Y0407482D01*
X0247519Y0407874D02*
X0275543Y0407874D01*
X0275543Y0408266D02*
X0247519Y0408266D01*
X0247519Y0408659D02*
X0275543Y0408659D01*
X0275543Y0409051D02*
X0247519Y0409051D01*
X0247519Y0409443D02*
X0275543Y0409443D01*
X0275543Y0409835D02*
X0247519Y0409835D01*
X0247519Y0410227D02*
X0275543Y0410227D01*
X0275543Y0410620D02*
X0247519Y0410620D01*
X0247519Y0411012D02*
X0275543Y0411012D01*
X0275543Y0411404D02*
X0247519Y0411404D01*
X0247519Y0411796D02*
X0275543Y0411796D01*
X0275543Y0412189D02*
X0247519Y0412189D01*
X0247519Y0412581D02*
X0275543Y0412581D01*
X0275543Y0412973D02*
X0247519Y0412973D01*
X0247519Y0413365D02*
X0275543Y0413365D01*
X0275543Y0413757D02*
X0247519Y0413757D01*
X0247519Y0414150D02*
X0275543Y0414150D01*
X0275543Y0414542D02*
X0247519Y0414542D01*
X0247519Y0414934D02*
X0275543Y0414934D01*
X0275543Y0415326D02*
X0247519Y0415326D01*
X0247519Y0415718D02*
X0275543Y0415718D01*
X0275543Y0416111D02*
X0247519Y0416111D01*
X0247519Y0416503D02*
X0275543Y0416503D01*
X0275543Y0416895D02*
X0247519Y0416895D01*
X0247519Y0417287D02*
X0275543Y0417287D01*
X0275543Y0417679D02*
X0247519Y0417679D01*
X0247519Y0418072D02*
X0275543Y0418072D01*
X0275543Y0418464D02*
X0247519Y0418464D01*
X0247519Y0418856D02*
X0275543Y0418856D01*
X0275543Y0419248D02*
X0247519Y0419248D01*
X0247519Y0419641D02*
X0275543Y0419641D01*
X0275543Y0420033D02*
X0247519Y0420033D01*
X0247519Y0420425D02*
X0275543Y0420425D01*
X0275543Y0420817D02*
X0247519Y0420817D01*
X0247519Y0421209D02*
X0275543Y0421209D01*
X0275543Y0421602D02*
X0247519Y0421602D01*
X0247519Y0421994D02*
X0275543Y0421994D01*
X0275543Y0422386D02*
X0247519Y0422386D01*
X0247519Y0422778D02*
X0275543Y0422778D01*
X0275543Y0423170D02*
X0247519Y0423170D01*
X0247519Y0423563D02*
X0275543Y0423563D01*
X0275543Y0423955D02*
X0247519Y0423955D01*
X0247519Y0424347D02*
X0275543Y0424347D01*
X0275543Y0424739D02*
X0247519Y0424739D01*
X0247519Y0425132D02*
X0275543Y0425132D01*
X0275543Y0425524D02*
X0247519Y0425524D01*
X0247519Y0425916D02*
X0275543Y0425916D01*
X0275543Y0426308D02*
X0247519Y0426308D01*
X0247519Y0426700D02*
X0275543Y0426700D01*
X0275543Y0427093D02*
X0247519Y0427093D01*
X0247519Y0427485D02*
X0275543Y0427485D01*
X0275543Y0427877D02*
X0247519Y0427877D01*
X0247519Y0428269D02*
X0275543Y0428269D01*
X0275543Y0428661D02*
X0247519Y0428661D01*
X0247519Y0429054D02*
X0275543Y0429054D01*
X0275543Y0429446D02*
X0247519Y0429446D01*
X0247519Y0429838D02*
X0275543Y0429838D01*
X0275543Y0430230D02*
X0247519Y0430230D01*
X0247519Y0430622D02*
X0275543Y0430622D01*
X0275543Y0431015D02*
X0247519Y0431015D01*
X0247519Y0431407D02*
X0275543Y0431407D01*
X0275543Y0431799D02*
X0247519Y0431799D01*
X0247519Y0432191D02*
X0275543Y0432191D01*
X0275543Y0432584D02*
X0247519Y0432584D01*
X0247519Y0432267D02*
X0247519Y0432267D01*
X0247519Y0432976D02*
X0275543Y0432976D01*
X0275543Y0433368D02*
X0247519Y0433368D01*
X0247519Y0433760D02*
X0275543Y0433760D01*
X0275543Y0434152D02*
X0247462Y0434152D01*
X0247300Y0434545D02*
X0275543Y0434545D01*
X0275543Y0434937D02*
X0247137Y0434937D01*
X0246975Y0435329D02*
X0275543Y0435329D01*
X0275543Y0435721D02*
X0246760Y0435721D01*
X0246368Y0436113D02*
X0275543Y0436113D01*
X0275543Y0436506D02*
X0245976Y0436506D01*
X0245543Y0436898D02*
X0275543Y0436898D01*
X0275543Y0437290D02*
X0244596Y0437290D01*
X0238725Y0428745D02*
X0238725Y0282728D01*
X0044486Y0282728D01*
X0044486Y0428745D01*
X0238725Y0428745D01*
X0238725Y0428661D02*
X0044486Y0428661D01*
X0044486Y0428269D02*
X0238725Y0428269D01*
X0238725Y0427877D02*
X0044486Y0427877D01*
X0044486Y0427485D02*
X0238725Y0427485D01*
X0238725Y0427093D02*
X0044486Y0427093D01*
X0044486Y0426700D02*
X0238725Y0426700D01*
X0238725Y0426308D02*
X0044486Y0426308D01*
X0044486Y0425916D02*
X0238725Y0425916D01*
X0238725Y0425524D02*
X0044486Y0425524D01*
X0044486Y0425132D02*
X0238725Y0425132D01*
X0238725Y0424739D02*
X0044486Y0424739D01*
X0044486Y0424347D02*
X0238725Y0424347D01*
X0238725Y0423955D02*
X0044486Y0423955D01*
X0044486Y0423563D02*
X0238725Y0423563D01*
X0238725Y0423170D02*
X0044486Y0423170D01*
X0044486Y0422778D02*
X0238725Y0422778D01*
X0238725Y0422386D02*
X0044486Y0422386D01*
X0044486Y0421994D02*
X0238725Y0421994D01*
X0238725Y0421602D02*
X0044486Y0421602D01*
X0044486Y0421209D02*
X0238725Y0421209D01*
X0238725Y0420817D02*
X0044486Y0420817D01*
X0044486Y0420425D02*
X0238725Y0420425D01*
X0238725Y0420033D02*
X0044486Y0420033D01*
X0044486Y0419641D02*
X0238725Y0419641D01*
X0238725Y0419248D02*
X0044486Y0419248D01*
X0044486Y0418856D02*
X0238725Y0418856D01*
X0238725Y0418464D02*
X0044486Y0418464D01*
X0044486Y0418072D02*
X0238725Y0418072D01*
X0238725Y0417679D02*
X0044486Y0417679D01*
X0044486Y0417287D02*
X0238725Y0417287D01*
X0238725Y0416895D02*
X0044486Y0416895D01*
X0044486Y0416503D02*
X0238725Y0416503D01*
X0238725Y0416111D02*
X0044486Y0416111D01*
X0044486Y0415718D02*
X0238725Y0415718D01*
X0238725Y0415326D02*
X0044486Y0415326D01*
X0044486Y0414934D02*
X0238725Y0414934D01*
X0238725Y0414542D02*
X0044486Y0414542D01*
X0044486Y0414150D02*
X0238725Y0414150D01*
X0238725Y0413757D02*
X0044486Y0413757D01*
X0044486Y0413365D02*
X0238725Y0413365D01*
X0238725Y0412973D02*
X0044486Y0412973D01*
X0044486Y0412581D02*
X0238725Y0412581D01*
X0238725Y0412189D02*
X0044486Y0412189D01*
X0044486Y0411796D02*
X0238725Y0411796D01*
X0238725Y0411404D02*
X0044486Y0411404D01*
X0044486Y0411012D02*
X0238725Y0411012D01*
X0238725Y0410620D02*
X0044486Y0410620D01*
X0044486Y0410227D02*
X0238725Y0410227D01*
X0238725Y0409835D02*
X0044486Y0409835D01*
X0044486Y0409443D02*
X0238725Y0409443D01*
X0238725Y0409051D02*
X0044486Y0409051D01*
X0044486Y0408659D02*
X0238725Y0408659D01*
X0238725Y0408266D02*
X0044486Y0408266D01*
X0044486Y0407874D02*
X0238725Y0407874D01*
X0238725Y0407482D02*
X0044486Y0407482D01*
X0044486Y0407090D02*
X0238725Y0407090D01*
X0238725Y0406698D02*
X0044486Y0406698D01*
X0044486Y0406305D02*
X0238725Y0406305D01*
X0238725Y0405913D02*
X0044486Y0405913D01*
X0044486Y0405521D02*
X0238725Y0405521D01*
X0238725Y0405129D02*
X0044486Y0405129D01*
X0044486Y0404736D02*
X0238725Y0404736D01*
X0238725Y0404344D02*
X0044486Y0404344D01*
X0044486Y0403952D02*
X0238725Y0403952D01*
X0238725Y0403560D02*
X0044486Y0403560D01*
X0044486Y0403168D02*
X0238725Y0403168D01*
X0238725Y0402775D02*
X0044486Y0402775D01*
X0044486Y0402383D02*
X0238725Y0402383D01*
X0238725Y0401991D02*
X0044486Y0401991D01*
X0044486Y0401599D02*
X0238725Y0401599D01*
X0238725Y0401207D02*
X0044486Y0401207D01*
X0044486Y0400814D02*
X0238725Y0400814D01*
X0238725Y0400422D02*
X0044486Y0400422D01*
X0044486Y0400030D02*
X0238725Y0400030D01*
X0238725Y0399638D02*
X0044486Y0399638D01*
X0044486Y0399246D02*
X0238725Y0399246D01*
X0238725Y0398853D02*
X0044486Y0398853D01*
X0044486Y0398461D02*
X0238725Y0398461D01*
X0238725Y0398069D02*
X0044486Y0398069D01*
X0044486Y0397677D02*
X0238725Y0397677D01*
X0238725Y0397284D02*
X0044486Y0397284D01*
X0044486Y0396892D02*
X0238725Y0396892D01*
X0238725Y0396500D02*
X0044486Y0396500D01*
X0044486Y0396108D02*
X0238725Y0396108D01*
X0238725Y0395716D02*
X0044486Y0395716D01*
X0044486Y0395323D02*
X0238725Y0395323D01*
X0238725Y0394931D02*
X0044486Y0394931D01*
X0044486Y0394539D02*
X0238725Y0394539D01*
X0238725Y0394147D02*
X0044486Y0394147D01*
X0044486Y0393755D02*
X0238725Y0393755D01*
X0238725Y0393362D02*
X0044486Y0393362D01*
X0044486Y0392970D02*
X0238725Y0392970D01*
X0238725Y0392578D02*
X0044486Y0392578D01*
X0044486Y0392186D02*
X0238725Y0392186D01*
X0238725Y0391793D02*
X0044486Y0391793D01*
X0044486Y0391401D02*
X0238725Y0391401D01*
X0238725Y0391009D02*
X0044486Y0391009D01*
X0044486Y0390617D02*
X0238725Y0390617D01*
X0238725Y0390225D02*
X0044486Y0390225D01*
X0044486Y0389832D02*
X0238725Y0389832D01*
X0238725Y0389440D02*
X0044486Y0389440D01*
X0044486Y0389048D02*
X0238725Y0389048D01*
X0238725Y0388656D02*
X0044486Y0388656D01*
X0044486Y0388264D02*
X0238725Y0388264D01*
X0238725Y0387871D02*
X0044486Y0387871D01*
X0044486Y0387479D02*
X0238725Y0387479D01*
X0238725Y0387087D02*
X0044486Y0387087D01*
X0044486Y0386695D02*
X0238725Y0386695D01*
X0238725Y0386303D02*
X0044486Y0386303D01*
X0044486Y0385910D02*
X0238725Y0385910D01*
X0238725Y0385518D02*
X0044486Y0385518D01*
X0044486Y0385126D02*
X0238725Y0385126D01*
X0238725Y0384734D02*
X0044486Y0384734D01*
X0044486Y0384341D02*
X0238725Y0384341D01*
X0238725Y0383949D02*
X0044486Y0383949D01*
X0044486Y0383557D02*
X0238725Y0383557D01*
X0238725Y0383165D02*
X0044486Y0383165D01*
X0044486Y0382773D02*
X0238725Y0382773D01*
X0238725Y0382380D02*
X0044486Y0382380D01*
X0044486Y0381988D02*
X0238725Y0381988D01*
X0238725Y0381596D02*
X0044486Y0381596D01*
X0044486Y0381204D02*
X0238725Y0381204D01*
X0238725Y0380812D02*
X0044486Y0380812D01*
X0044486Y0380419D02*
X0238725Y0380419D01*
X0238725Y0380027D02*
X0044486Y0380027D01*
X0044486Y0379635D02*
X0238725Y0379635D01*
X0238725Y0379243D02*
X0044486Y0379243D01*
X0044486Y0378850D02*
X0238725Y0378850D01*
X0238725Y0378458D02*
X0044486Y0378458D01*
X0044486Y0378066D02*
X0238725Y0378066D01*
X0238725Y0377674D02*
X0044486Y0377674D01*
X0044486Y0377282D02*
X0238725Y0377282D01*
X0238725Y0376889D02*
X0044486Y0376889D01*
X0044486Y0376497D02*
X0238725Y0376497D01*
X0238725Y0376105D02*
X0044486Y0376105D01*
X0044486Y0375713D02*
X0238725Y0375713D01*
X0238725Y0375321D02*
X0044486Y0375321D01*
X0044486Y0374928D02*
X0238725Y0374928D01*
X0238725Y0374536D02*
X0044486Y0374536D01*
X0044486Y0374144D02*
X0238725Y0374144D01*
X0238725Y0373752D02*
X0044486Y0373752D01*
X0044486Y0373360D02*
X0238725Y0373360D01*
X0238725Y0372967D02*
X0044486Y0372967D01*
X0044486Y0372575D02*
X0238725Y0372575D01*
X0238725Y0372183D02*
X0044486Y0372183D01*
X0044486Y0371791D02*
X0238725Y0371791D01*
X0238725Y0371398D02*
X0044486Y0371398D01*
X0044486Y0371006D02*
X0238725Y0371006D01*
X0238725Y0370614D02*
X0044486Y0370614D01*
X0044486Y0370222D02*
X0238725Y0370222D01*
X0238725Y0369830D02*
X0044486Y0369830D01*
X0044486Y0369437D02*
X0238725Y0369437D01*
X0238725Y0369045D02*
X0044486Y0369045D01*
X0044486Y0368653D02*
X0238725Y0368653D01*
X0238725Y0368261D02*
X0044486Y0368261D01*
X0044486Y0367869D02*
X0238725Y0367869D01*
X0238725Y0367476D02*
X0044486Y0367476D01*
X0044486Y0367084D02*
X0238725Y0367084D01*
X0238725Y0366692D02*
X0044486Y0366692D01*
X0044486Y0366300D02*
X0238725Y0366300D01*
X0238725Y0365907D02*
X0044486Y0365907D01*
X0044486Y0365515D02*
X0238725Y0365515D01*
X0238725Y0365123D02*
X0044486Y0365123D01*
X0044486Y0364731D02*
X0238725Y0364731D01*
X0238725Y0364339D02*
X0044486Y0364339D01*
X0044486Y0363946D02*
X0238725Y0363946D01*
X0238725Y0363554D02*
X0044486Y0363554D01*
X0044486Y0363162D02*
X0238725Y0363162D01*
X0238725Y0362770D02*
X0044486Y0362770D01*
X0044486Y0362378D02*
X0238725Y0362378D01*
X0238725Y0361985D02*
X0044486Y0361985D01*
X0044486Y0361593D02*
X0238725Y0361593D01*
X0238725Y0361201D02*
X0044486Y0361201D01*
X0044486Y0360809D02*
X0238725Y0360809D01*
X0238725Y0360417D02*
X0044486Y0360417D01*
X0044486Y0360024D02*
X0238725Y0360024D01*
X0238725Y0359632D02*
X0044486Y0359632D01*
X0044486Y0359240D02*
X0238725Y0359240D01*
X0238725Y0358848D02*
X0044486Y0358848D01*
X0044486Y0358455D02*
X0238725Y0358455D01*
X0238725Y0358063D02*
X0044486Y0358063D01*
X0044486Y0357671D02*
X0238725Y0357671D01*
X0238725Y0357279D02*
X0044486Y0357279D01*
X0044486Y0356887D02*
X0238725Y0356887D01*
X0238725Y0356494D02*
X0044486Y0356494D01*
X0044486Y0356102D02*
X0238725Y0356102D01*
X0238725Y0355710D02*
X0044486Y0355710D01*
X0044486Y0355318D02*
X0238725Y0355318D01*
X0238725Y0354926D02*
X0044486Y0354926D01*
X0044486Y0354533D02*
X0238725Y0354533D01*
X0238725Y0354141D02*
X0044486Y0354141D01*
X0044486Y0353749D02*
X0238725Y0353749D01*
X0238725Y0353357D02*
X0044486Y0353357D01*
X0044486Y0352964D02*
X0238725Y0352964D01*
X0238725Y0352572D02*
X0044486Y0352572D01*
X0044486Y0352180D02*
X0238725Y0352180D01*
X0238725Y0351788D02*
X0044486Y0351788D01*
X0044486Y0351396D02*
X0238725Y0351396D01*
X0238725Y0351003D02*
X0044486Y0351003D01*
X0044486Y0350611D02*
X0238725Y0350611D01*
X0238725Y0350219D02*
X0044486Y0350219D01*
X0044486Y0349827D02*
X0238725Y0349827D01*
X0238725Y0349435D02*
X0044486Y0349435D01*
X0044486Y0349042D02*
X0238725Y0349042D01*
X0238725Y0348650D02*
X0044486Y0348650D01*
X0044486Y0348258D02*
X0238725Y0348258D01*
X0238725Y0347866D02*
X0044486Y0347866D01*
X0044486Y0347474D02*
X0238725Y0347474D01*
X0238725Y0347081D02*
X0044486Y0347081D01*
X0044486Y0346689D02*
X0238725Y0346689D01*
X0238725Y0346297D02*
X0044486Y0346297D01*
X0044486Y0345905D02*
X0238725Y0345905D01*
X0238725Y0345512D02*
X0044486Y0345512D01*
X0044486Y0345120D02*
X0238725Y0345120D01*
X0238725Y0344728D02*
X0044486Y0344728D01*
X0044486Y0344336D02*
X0238725Y0344336D01*
X0238725Y0343944D02*
X0044486Y0343944D01*
X0044486Y0343551D02*
X0238725Y0343551D01*
X0238725Y0343159D02*
X0044486Y0343159D01*
X0044486Y0342767D02*
X0238725Y0342767D01*
X0238725Y0342375D02*
X0044486Y0342375D01*
X0044486Y0341983D02*
X0238725Y0341983D01*
X0238725Y0341590D02*
X0044486Y0341590D01*
X0044486Y0341198D02*
X0238725Y0341198D01*
X0238725Y0340806D02*
X0044486Y0340806D01*
X0044486Y0340414D02*
X0238725Y0340414D01*
X0238725Y0340021D02*
X0044486Y0340021D01*
X0044486Y0339629D02*
X0238725Y0339629D01*
X0238725Y0339237D02*
X0044486Y0339237D01*
X0044486Y0338845D02*
X0238725Y0338845D01*
X0238725Y0338453D02*
X0044486Y0338453D01*
X0044486Y0338060D02*
X0238725Y0338060D01*
X0238725Y0337668D02*
X0044486Y0337668D01*
X0044486Y0337276D02*
X0238725Y0337276D01*
X0238725Y0336884D02*
X0044486Y0336884D01*
X0044486Y0336492D02*
X0238725Y0336492D01*
X0238725Y0336099D02*
X0044486Y0336099D01*
X0044486Y0335707D02*
X0238725Y0335707D01*
X0238725Y0335315D02*
X0044486Y0335315D01*
X0044486Y0334923D02*
X0238725Y0334923D01*
X0238725Y0334531D02*
X0044486Y0334531D01*
X0044486Y0334138D02*
X0238725Y0334138D01*
X0238725Y0333746D02*
X0044486Y0333746D01*
X0044486Y0333354D02*
X0238725Y0333354D01*
X0238725Y0332962D02*
X0044486Y0332962D01*
X0044486Y0332569D02*
X0238725Y0332569D01*
X0238725Y0332177D02*
X0044486Y0332177D01*
X0044486Y0331785D02*
X0238725Y0331785D01*
X0238725Y0331393D02*
X0044486Y0331393D01*
X0044486Y0331001D02*
X0238725Y0331001D01*
X0238725Y0330608D02*
X0044486Y0330608D01*
X0044486Y0330216D02*
X0238725Y0330216D01*
X0238725Y0329824D02*
X0044486Y0329824D01*
X0044486Y0329432D02*
X0238725Y0329432D01*
X0238725Y0329040D02*
X0044486Y0329040D01*
X0044486Y0328647D02*
X0238725Y0328647D01*
X0238725Y0328255D02*
X0044486Y0328255D01*
X0044486Y0327863D02*
X0238725Y0327863D01*
X0238725Y0327471D02*
X0044486Y0327471D01*
X0044486Y0327078D02*
X0238725Y0327078D01*
X0238725Y0326686D02*
X0044486Y0326686D01*
X0044486Y0326294D02*
X0238725Y0326294D01*
X0238725Y0325902D02*
X0044486Y0325902D01*
X0044486Y0325510D02*
X0238725Y0325510D01*
X0238725Y0325117D02*
X0044486Y0325117D01*
X0044486Y0324725D02*
X0238725Y0324725D01*
X0238725Y0324333D02*
X0044486Y0324333D01*
X0044486Y0323941D02*
X0238725Y0323941D01*
X0238725Y0323549D02*
X0044486Y0323549D01*
X0044486Y0323156D02*
X0238725Y0323156D01*
X0238725Y0322764D02*
X0044486Y0322764D01*
X0044486Y0322372D02*
X0238725Y0322372D01*
X0238725Y0321980D02*
X0044486Y0321980D01*
X0044486Y0321588D02*
X0238725Y0321588D01*
X0238725Y0321195D02*
X0044486Y0321195D01*
X0044486Y0320803D02*
X0238725Y0320803D01*
X0238725Y0320411D02*
X0044486Y0320411D01*
X0044486Y0320019D02*
X0238725Y0320019D01*
X0238725Y0319626D02*
X0044486Y0319626D01*
X0044486Y0319234D02*
X0238725Y0319234D01*
X0238725Y0318842D02*
X0044486Y0318842D01*
X0044486Y0318450D02*
X0238725Y0318450D01*
X0238725Y0318058D02*
X0044486Y0318058D01*
X0044486Y0317665D02*
X0238725Y0317665D01*
X0238725Y0317273D02*
X0044486Y0317273D01*
X0044486Y0316881D02*
X0238725Y0316881D01*
X0238725Y0316489D02*
X0044486Y0316489D01*
X0044486Y0316097D02*
X0238725Y0316097D01*
X0238725Y0315704D02*
X0044486Y0315704D01*
X0044486Y0315312D02*
X0238725Y0315312D01*
X0238725Y0314920D02*
X0044486Y0314920D01*
X0044486Y0314528D02*
X0238725Y0314528D01*
X0238725Y0314135D02*
X0044486Y0314135D01*
X0044486Y0313743D02*
X0238725Y0313743D01*
X0238725Y0313351D02*
X0044486Y0313351D01*
X0044486Y0312959D02*
X0238725Y0312959D01*
X0238725Y0312567D02*
X0044486Y0312567D01*
X0044486Y0312174D02*
X0238725Y0312174D01*
X0238725Y0311782D02*
X0044486Y0311782D01*
X0044486Y0311390D02*
X0238725Y0311390D01*
X0238725Y0310998D02*
X0044486Y0310998D01*
X0044486Y0310606D02*
X0238725Y0310606D01*
X0238725Y0310213D02*
X0044486Y0310213D01*
X0044486Y0309821D02*
X0238725Y0309821D01*
X0238725Y0309429D02*
X0044486Y0309429D01*
X0044486Y0309037D02*
X0238725Y0309037D01*
X0238725Y0308645D02*
X0044486Y0308645D01*
X0044486Y0308252D02*
X0238725Y0308252D01*
X0238725Y0307860D02*
X0044486Y0307860D01*
X0044486Y0307468D02*
X0238725Y0307468D01*
X0238725Y0307076D02*
X0044486Y0307076D01*
X0044486Y0306683D02*
X0238725Y0306683D01*
X0238725Y0306291D02*
X0044486Y0306291D01*
X0044486Y0305899D02*
X0238725Y0305899D01*
X0238725Y0305507D02*
X0044486Y0305507D01*
X0044486Y0305115D02*
X0238725Y0305115D01*
X0238725Y0304722D02*
X0044486Y0304722D01*
X0044486Y0304330D02*
X0238725Y0304330D01*
X0238725Y0303938D02*
X0044486Y0303938D01*
X0044486Y0303546D02*
X0238725Y0303546D01*
X0238725Y0303154D02*
X0044486Y0303154D01*
X0044486Y0302761D02*
X0238725Y0302761D01*
X0238725Y0302369D02*
X0044486Y0302369D01*
X0044486Y0301977D02*
X0238725Y0301977D01*
X0238725Y0301585D02*
X0044486Y0301585D01*
X0044486Y0301192D02*
X0238725Y0301192D01*
X0238725Y0300800D02*
X0044486Y0300800D01*
X0044486Y0300408D02*
X0238725Y0300408D01*
X0238725Y0300016D02*
X0044486Y0300016D01*
X0044486Y0299624D02*
X0238725Y0299624D01*
X0238725Y0299231D02*
X0044486Y0299231D01*
X0044486Y0298839D02*
X0238725Y0298839D01*
X0238725Y0298447D02*
X0044486Y0298447D01*
X0044486Y0298055D02*
X0238725Y0298055D01*
X0238725Y0297663D02*
X0044486Y0297663D01*
X0044486Y0297270D02*
X0238725Y0297270D01*
X0238725Y0296878D02*
X0044486Y0296878D01*
X0044486Y0296486D02*
X0238725Y0296486D01*
X0238725Y0296094D02*
X0044486Y0296094D01*
X0044486Y0295702D02*
X0238725Y0295702D01*
X0238725Y0295309D02*
X0044486Y0295309D01*
X0044486Y0294917D02*
X0238725Y0294917D01*
X0238725Y0294525D02*
X0044486Y0294525D01*
X0044486Y0294133D02*
X0238725Y0294133D01*
X0238725Y0293740D02*
X0044486Y0293740D01*
X0044486Y0293348D02*
X0238725Y0293348D01*
X0238725Y0292956D02*
X0044486Y0292956D01*
X0044486Y0292564D02*
X0238725Y0292564D01*
X0238725Y0292172D02*
X0044486Y0292172D01*
X0044486Y0291779D02*
X0238725Y0291779D01*
X0238725Y0291387D02*
X0044486Y0291387D01*
X0044486Y0290995D02*
X0238725Y0290995D01*
X0238725Y0290603D02*
X0044486Y0290603D01*
X0044486Y0290211D02*
X0238725Y0290211D01*
X0238725Y0289818D02*
X0044486Y0289818D01*
X0044486Y0289426D02*
X0238725Y0289426D01*
X0238725Y0289034D02*
X0044486Y0289034D01*
X0044486Y0288642D02*
X0238725Y0288642D01*
X0238725Y0288249D02*
X0044486Y0288249D01*
X0044486Y0287857D02*
X0238725Y0287857D01*
X0238725Y0287465D02*
X0044486Y0287465D01*
X0044486Y0287073D02*
X0238725Y0287073D01*
X0238725Y0286681D02*
X0044486Y0286681D01*
X0044486Y0286288D02*
X0238725Y0286288D01*
X0238725Y0285896D02*
X0044486Y0285896D01*
X0044486Y0285504D02*
X0238725Y0285504D01*
X0238725Y0285112D02*
X0044486Y0285112D01*
X0044486Y0284720D02*
X0238725Y0284720D01*
X0238725Y0284327D02*
X0044486Y0284327D01*
X0044486Y0283935D02*
X0238725Y0283935D01*
X0238725Y0283543D02*
X0044486Y0283543D01*
X0044486Y0283151D02*
X0238725Y0283151D01*
X0238725Y0282759D02*
X0044486Y0282759D01*
X0038741Y0274130D02*
X0005597Y0274130D01*
X0005597Y0274522D02*
X0037794Y0274522D01*
X0037287Y0274914D02*
X0005597Y0274914D01*
X0005597Y0275306D02*
X0036895Y0275306D01*
X0036503Y0275699D02*
X0005597Y0275699D01*
X0005597Y0276091D02*
X0036258Y0276091D01*
X0036095Y0276483D02*
X0005597Y0276483D01*
X0005597Y0276875D02*
X0035933Y0276875D01*
X0035770Y0277268D02*
X0005597Y0277268D01*
X0005597Y0277660D02*
X0035692Y0277660D01*
X0035692Y0278052D02*
X0005597Y0278052D01*
X0005597Y0278444D02*
X0035692Y0278444D01*
X0035692Y0278836D02*
X0005597Y0278836D01*
X0005597Y0279229D02*
X0035692Y0279229D01*
X0035692Y0279621D02*
X0005597Y0279621D01*
X0005597Y0280013D02*
X0035692Y0280013D01*
X0035692Y0280405D02*
X0005597Y0280405D01*
X0005597Y0280797D02*
X0035692Y0280797D01*
X0035692Y0281190D02*
X0005597Y0281190D01*
X0005597Y0281582D02*
X0035692Y0281582D01*
X0035692Y0281974D02*
X0005597Y0281974D01*
X0005597Y0282366D02*
X0035692Y0282366D01*
X0035692Y0282759D02*
X0005597Y0282759D01*
X0005597Y0283151D02*
X0035692Y0283151D01*
X0035692Y0283543D02*
X0005597Y0283543D01*
X0005597Y0283935D02*
X0035692Y0283935D01*
X0035692Y0284327D02*
X0005597Y0284327D01*
X0005597Y0284720D02*
X0035692Y0284720D01*
X0035692Y0285112D02*
X0005597Y0285112D01*
X0005597Y0285504D02*
X0035692Y0285504D01*
X0035692Y0285896D02*
X0005597Y0285896D01*
X0005597Y0286288D02*
X0035692Y0286288D01*
X0035692Y0286681D02*
X0005597Y0286681D01*
X0005597Y0287073D02*
X0035692Y0287073D01*
X0035692Y0287465D02*
X0005597Y0287465D01*
X0005597Y0287857D02*
X0035692Y0287857D01*
X0035692Y0288249D02*
X0005597Y0288249D01*
X0005597Y0288642D02*
X0035692Y0288642D01*
X0035692Y0289034D02*
X0005597Y0289034D01*
X0005597Y0289426D02*
X0035692Y0289426D01*
X0035692Y0289818D02*
X0005597Y0289818D01*
X0005597Y0290211D02*
X0035692Y0290211D01*
X0035692Y0290603D02*
X0005597Y0290603D01*
X0005597Y0290995D02*
X0035692Y0290995D01*
X0035692Y0291387D02*
X0005597Y0291387D01*
X0005597Y0291779D02*
X0035692Y0291779D01*
X0035692Y0292172D02*
X0005597Y0292172D01*
X0005597Y0292564D02*
X0035692Y0292564D01*
X0035692Y0292956D02*
X0005597Y0292956D01*
X0005597Y0293348D02*
X0035692Y0293348D01*
X0035692Y0293740D02*
X0005597Y0293740D01*
X0005597Y0294133D02*
X0035692Y0294133D01*
X0035692Y0294525D02*
X0005597Y0294525D01*
X0005597Y0294917D02*
X0035692Y0294917D01*
X0035692Y0295309D02*
X0005597Y0295309D01*
X0005597Y0295702D02*
X0035692Y0295702D01*
X0035692Y0296094D02*
X0005597Y0296094D01*
X0005597Y0296486D02*
X0035692Y0296486D01*
X0035692Y0296878D02*
X0005597Y0296878D01*
X0005597Y0297270D02*
X0035692Y0297270D01*
X0035692Y0297663D02*
X0005597Y0297663D01*
X0005597Y0298055D02*
X0035692Y0298055D01*
X0035692Y0298447D02*
X0005597Y0298447D01*
X0005597Y0298839D02*
X0035692Y0298839D01*
X0035692Y0299231D02*
X0005597Y0299231D01*
X0005597Y0299624D02*
X0035692Y0299624D01*
X0035692Y0300016D02*
X0005597Y0300016D01*
X0005597Y0300408D02*
X0035692Y0300408D01*
X0035692Y0300800D02*
X0005597Y0300800D01*
X0005597Y0301192D02*
X0035692Y0301192D01*
X0035692Y0301585D02*
X0005597Y0301585D01*
X0005597Y0301977D02*
X0035692Y0301977D01*
X0035692Y0302369D02*
X0005597Y0302369D01*
X0005597Y0302761D02*
X0035692Y0302761D01*
X0035692Y0303154D02*
X0005597Y0303154D01*
X0005597Y0303546D02*
X0035692Y0303546D01*
X0035692Y0303938D02*
X0005597Y0303938D01*
X0005597Y0304330D02*
X0035692Y0304330D01*
X0035692Y0304722D02*
X0005597Y0304722D01*
X0005597Y0305115D02*
X0035692Y0305115D01*
X0035692Y0305507D02*
X0005597Y0305507D01*
X0005597Y0305899D02*
X0035692Y0305899D01*
X0035692Y0306291D02*
X0005597Y0306291D01*
X0005597Y0306683D02*
X0035692Y0306683D01*
X0035692Y0307076D02*
X0005597Y0307076D01*
X0005597Y0307468D02*
X0035692Y0307468D01*
X0035692Y0307860D02*
X0005597Y0307860D01*
X0005597Y0308252D02*
X0035692Y0308252D01*
X0035692Y0308645D02*
X0005597Y0308645D01*
X0005597Y0309037D02*
X0035692Y0309037D01*
X0035692Y0309429D02*
X0005597Y0309429D01*
X0005597Y0309821D02*
X0035692Y0309821D01*
X0035692Y0310213D02*
X0005597Y0310213D01*
X0005597Y0310606D02*
X0035692Y0310606D01*
X0035692Y0310998D02*
X0005597Y0310998D01*
X0005597Y0311390D02*
X0035692Y0311390D01*
X0035692Y0311782D02*
X0005597Y0311782D01*
X0005597Y0312174D02*
X0035692Y0312174D01*
X0035692Y0312567D02*
X0005597Y0312567D01*
X0005597Y0312959D02*
X0035692Y0312959D01*
X0035692Y0313351D02*
X0005597Y0313351D01*
X0005597Y0313743D02*
X0035692Y0313743D01*
X0035692Y0314135D02*
X0005597Y0314135D01*
X0005597Y0314528D02*
X0035692Y0314528D01*
X0035692Y0314920D02*
X0005597Y0314920D01*
X0005597Y0315312D02*
X0035692Y0315312D01*
X0035692Y0315704D02*
X0005597Y0315704D01*
X0005597Y0316097D02*
X0035692Y0316097D01*
X0035692Y0316489D02*
X0005597Y0316489D01*
X0005597Y0316881D02*
X0035692Y0316881D01*
X0035692Y0317273D02*
X0005597Y0317273D01*
X0005597Y0317665D02*
X0035692Y0317665D01*
X0035692Y0318058D02*
X0005597Y0318058D01*
X0005597Y0318450D02*
X0035692Y0318450D01*
X0035692Y0318842D02*
X0005597Y0318842D01*
X0005597Y0319234D02*
X0035692Y0319234D01*
X0035692Y0319626D02*
X0005597Y0319626D01*
X0005597Y0320019D02*
X0035692Y0320019D01*
X0035692Y0320411D02*
X0005597Y0320411D01*
X0005597Y0320803D02*
X0035692Y0320803D01*
X0035692Y0321195D02*
X0005597Y0321195D01*
X0005597Y0321588D02*
X0035692Y0321588D01*
X0035692Y0321980D02*
X0005597Y0321980D01*
X0005597Y0322372D02*
X0035692Y0322372D01*
X0035692Y0322764D02*
X0005597Y0322764D01*
X0005597Y0323156D02*
X0035692Y0323156D01*
X0035692Y0323549D02*
X0005597Y0323549D01*
X0005597Y0323941D02*
X0035692Y0323941D01*
X0035692Y0324333D02*
X0005597Y0324333D01*
X0005597Y0324725D02*
X0035692Y0324725D01*
X0035692Y0325117D02*
X0005597Y0325117D01*
X0005597Y0325510D02*
X0035692Y0325510D01*
X0035692Y0325902D02*
X0005597Y0325902D01*
X0005597Y0326294D02*
X0035692Y0326294D01*
X0035692Y0326686D02*
X0005597Y0326686D01*
X0005597Y0327078D02*
X0035692Y0327078D01*
X0035692Y0327471D02*
X0005597Y0327471D01*
X0005597Y0327863D02*
X0035692Y0327863D01*
X0035692Y0328255D02*
X0005597Y0328255D01*
X0005597Y0328647D02*
X0035692Y0328647D01*
X0035692Y0329040D02*
X0005597Y0329040D01*
X0005597Y0329432D02*
X0035692Y0329432D01*
X0035692Y0329824D02*
X0005597Y0329824D01*
X0005597Y0330216D02*
X0035692Y0330216D01*
X0035692Y0330608D02*
X0005597Y0330608D01*
X0005597Y0331001D02*
X0035692Y0331001D01*
X0035692Y0331393D02*
X0005597Y0331393D01*
X0005597Y0331785D02*
X0035692Y0331785D01*
X0035692Y0332177D02*
X0005597Y0332177D01*
X0005597Y0332569D02*
X0035692Y0332569D01*
X0035692Y0332962D02*
X0005597Y0332962D01*
X0005597Y0333354D02*
X0035692Y0333354D01*
X0035692Y0333746D02*
X0005597Y0333746D01*
X0005597Y0334138D02*
X0035692Y0334138D01*
X0035692Y0334531D02*
X0005597Y0334531D01*
X0005597Y0334923D02*
X0035692Y0334923D01*
X0035692Y0335315D02*
X0005597Y0335315D01*
X0005597Y0335707D02*
X0035692Y0335707D01*
X0035692Y0336099D02*
X0005597Y0336099D01*
X0005597Y0336492D02*
X0035692Y0336492D01*
X0035692Y0336884D02*
X0005597Y0336884D01*
X0005597Y0337276D02*
X0035692Y0337276D01*
X0035692Y0337668D02*
X0005597Y0337668D01*
X0005597Y0338060D02*
X0035692Y0338060D01*
X0035692Y0338453D02*
X0005597Y0338453D01*
X0005597Y0338845D02*
X0035692Y0338845D01*
X0035692Y0339237D02*
X0005597Y0339237D01*
X0005597Y0339629D02*
X0035692Y0339629D01*
X0035692Y0340021D02*
X0005597Y0340021D01*
X0005597Y0340414D02*
X0035692Y0340414D01*
X0035692Y0340806D02*
X0005597Y0340806D01*
X0005597Y0341198D02*
X0035692Y0341198D01*
X0035692Y0341590D02*
X0005597Y0341590D01*
X0005597Y0341983D02*
X0035692Y0341983D01*
X0035692Y0342375D02*
X0005597Y0342375D01*
X0005597Y0342767D02*
X0035692Y0342767D01*
X0035692Y0343159D02*
X0005597Y0343159D01*
X0005597Y0343551D02*
X0035692Y0343551D01*
X0035692Y0343944D02*
X0005597Y0343944D01*
X0005597Y0344336D02*
X0035692Y0344336D01*
X0035692Y0344728D02*
X0005597Y0344728D01*
X0005597Y0345120D02*
X0035692Y0345120D01*
X0035692Y0345512D02*
X0005597Y0345512D01*
X0005597Y0345905D02*
X0035692Y0345905D01*
X0035692Y0346297D02*
X0005597Y0346297D01*
X0005597Y0346689D02*
X0035692Y0346689D01*
X0035692Y0347081D02*
X0005597Y0347081D01*
X0005597Y0347474D02*
X0035692Y0347474D01*
X0035692Y0347866D02*
X0005597Y0347866D01*
X0005597Y0348258D02*
X0035692Y0348258D01*
X0035692Y0348650D02*
X0005597Y0348650D01*
X0005597Y0349042D02*
X0035692Y0349042D01*
X0035692Y0349435D02*
X0005597Y0349435D01*
X0005597Y0349827D02*
X0035692Y0349827D01*
X0035692Y0350219D02*
X0005597Y0350219D01*
X0005597Y0350611D02*
X0035692Y0350611D01*
X0035692Y0351003D02*
X0005597Y0351003D01*
X0005597Y0351396D02*
X0035692Y0351396D01*
X0035692Y0351788D02*
X0005597Y0351788D01*
X0005597Y0352180D02*
X0035692Y0352180D01*
X0035692Y0352572D02*
X0005597Y0352572D01*
X0005597Y0352964D02*
X0035692Y0352964D01*
X0035692Y0353357D02*
X0005597Y0353357D01*
X0005597Y0353749D02*
X0035692Y0353749D01*
X0035692Y0354141D02*
X0005597Y0354141D01*
X0005597Y0354533D02*
X0035692Y0354533D01*
X0035692Y0354926D02*
X0005597Y0354926D01*
X0005597Y0355318D02*
X0035692Y0355318D01*
X0035692Y0355710D02*
X0005597Y0355710D01*
X0005597Y0356102D02*
X0035692Y0356102D01*
X0035692Y0356494D02*
X0005597Y0356494D01*
X0005597Y0356887D02*
X0035692Y0356887D01*
X0035692Y0357279D02*
X0005597Y0357279D01*
X0005597Y0357671D02*
X0035692Y0357671D01*
X0035692Y0358063D02*
X0005597Y0358063D01*
X0005597Y0358455D02*
X0035692Y0358455D01*
X0035692Y0358848D02*
X0005597Y0358848D01*
X0005597Y0359240D02*
X0035692Y0359240D01*
X0035692Y0359632D02*
X0005597Y0359632D01*
X0005597Y0360024D02*
X0035692Y0360024D01*
X0035692Y0360417D02*
X0005597Y0360417D01*
X0005597Y0360809D02*
X0035692Y0360809D01*
X0035692Y0361201D02*
X0005597Y0361201D01*
X0005597Y0361593D02*
X0035692Y0361593D01*
X0035692Y0361985D02*
X0005597Y0361985D01*
X0005597Y0362378D02*
X0035692Y0362378D01*
X0035692Y0362770D02*
X0005597Y0362770D01*
X0005597Y0363162D02*
X0035692Y0363162D01*
X0035692Y0363554D02*
X0005597Y0363554D01*
X0005597Y0363946D02*
X0035692Y0363946D01*
X0035692Y0364339D02*
X0005597Y0364339D01*
X0005597Y0364731D02*
X0035692Y0364731D01*
X0035692Y0365123D02*
X0005597Y0365123D01*
X0005597Y0365515D02*
X0035692Y0365515D01*
X0035692Y0365907D02*
X0005597Y0365907D01*
X0005597Y0366300D02*
X0035692Y0366300D01*
X0035692Y0366692D02*
X0005597Y0366692D01*
X0005597Y0367084D02*
X0035692Y0367084D01*
X0035692Y0367476D02*
X0005597Y0367476D01*
X0005597Y0367869D02*
X0035692Y0367869D01*
X0035692Y0368261D02*
X0005597Y0368261D01*
X0005597Y0368653D02*
X0035692Y0368653D01*
X0035692Y0369045D02*
X0005597Y0369045D01*
X0005597Y0369437D02*
X0035692Y0369437D01*
X0035692Y0369830D02*
X0005597Y0369830D01*
X0005597Y0370222D02*
X0035692Y0370222D01*
X0035692Y0370614D02*
X0005597Y0370614D01*
X0005597Y0371006D02*
X0035692Y0371006D01*
X0035692Y0371398D02*
X0005597Y0371398D01*
X0005597Y0371791D02*
X0035692Y0371791D01*
X0035692Y0372183D02*
X0005597Y0372183D01*
X0005597Y0372575D02*
X0035692Y0372575D01*
X0035692Y0372967D02*
X0005597Y0372967D01*
X0005597Y0373360D02*
X0035692Y0373360D01*
X0035692Y0373752D02*
X0005597Y0373752D01*
X0005597Y0374144D02*
X0035692Y0374144D01*
X0035692Y0374536D02*
X0005597Y0374536D01*
X0005597Y0374928D02*
X0035692Y0374928D01*
X0035692Y0375321D02*
X0005597Y0375321D01*
X0005597Y0375713D02*
X0035692Y0375713D01*
X0035692Y0376105D02*
X0005597Y0376105D01*
X0005597Y0376497D02*
X0035692Y0376497D01*
X0035692Y0376889D02*
X0005597Y0376889D01*
X0005597Y0377282D02*
X0035692Y0377282D01*
X0035692Y0377674D02*
X0005597Y0377674D01*
X0005597Y0378066D02*
X0035692Y0378066D01*
X0035692Y0378458D02*
X0005597Y0378458D01*
X0005597Y0378850D02*
X0035692Y0378850D01*
X0035692Y0379243D02*
X0005597Y0379243D01*
X0005597Y0379635D02*
X0035692Y0379635D01*
X0035692Y0380027D02*
X0005597Y0380027D01*
X0005597Y0380419D02*
X0035692Y0380419D01*
X0035692Y0380812D02*
X0005597Y0380812D01*
X0005597Y0381204D02*
X0035692Y0381204D01*
X0035692Y0381596D02*
X0005597Y0381596D01*
X0005597Y0381988D02*
X0035692Y0381988D01*
X0035692Y0382380D02*
X0005597Y0382380D01*
X0005597Y0382773D02*
X0035692Y0382773D01*
X0035692Y0383165D02*
X0005597Y0383165D01*
X0005597Y0383557D02*
X0035692Y0383557D01*
X0035692Y0383949D02*
X0005597Y0383949D01*
X0005597Y0384341D02*
X0035692Y0384341D01*
X0035692Y0384734D02*
X0005597Y0384734D01*
X0005597Y0385126D02*
X0035692Y0385126D01*
X0035692Y0385518D02*
X0005597Y0385518D01*
X0005597Y0385910D02*
X0035692Y0385910D01*
X0035692Y0386303D02*
X0005597Y0386303D01*
X0005597Y0386695D02*
X0035692Y0386695D01*
X0035692Y0387087D02*
X0005597Y0387087D01*
X0005597Y0387479D02*
X0035692Y0387479D01*
X0035692Y0387871D02*
X0005597Y0387871D01*
X0005597Y0388264D02*
X0035692Y0388264D01*
X0035692Y0388656D02*
X0005597Y0388656D01*
X0005597Y0389048D02*
X0035692Y0389048D01*
X0035692Y0389440D02*
X0005597Y0389440D01*
X0005597Y0389832D02*
X0035692Y0389832D01*
X0035692Y0390225D02*
X0005597Y0390225D01*
X0005597Y0390617D02*
X0035692Y0390617D01*
X0035692Y0391009D02*
X0005597Y0391009D01*
X0005597Y0391401D02*
X0035692Y0391401D01*
X0035692Y0391793D02*
X0005597Y0391793D01*
X0005597Y0392186D02*
X0035692Y0392186D01*
X0035692Y0392578D02*
X0005597Y0392578D01*
X0005597Y0392970D02*
X0035692Y0392970D01*
X0035692Y0393362D02*
X0005597Y0393362D01*
X0005597Y0393755D02*
X0035692Y0393755D01*
X0035692Y0394147D02*
X0005597Y0394147D01*
X0005597Y0394539D02*
X0035692Y0394539D01*
X0035692Y0394931D02*
X0005597Y0394931D01*
X0005597Y0395323D02*
X0035692Y0395323D01*
X0035692Y0395716D02*
X0005597Y0395716D01*
X0005597Y0396108D02*
X0035692Y0396108D01*
X0035692Y0396500D02*
X0005597Y0396500D01*
X0005597Y0396892D02*
X0035692Y0396892D01*
X0035692Y0397284D02*
X0005597Y0397284D01*
X0005597Y0397677D02*
X0035692Y0397677D01*
X0035692Y0398069D02*
X0005597Y0398069D01*
X0005597Y0398461D02*
X0035692Y0398461D01*
X0035692Y0398853D02*
X0005597Y0398853D01*
X0005597Y0399246D02*
X0035692Y0399246D01*
X0035692Y0399638D02*
X0005597Y0399638D01*
X0005597Y0400030D02*
X0035692Y0400030D01*
X0035692Y0400422D02*
X0005597Y0400422D01*
X0005597Y0400814D02*
X0035692Y0400814D01*
X0035692Y0401207D02*
X0005597Y0401207D01*
X0005597Y0401599D02*
X0035692Y0401599D01*
X0035692Y0401991D02*
X0005597Y0401991D01*
X0005597Y0402383D02*
X0035692Y0402383D01*
X0035692Y0402775D02*
X0005597Y0402775D01*
X0005597Y0403168D02*
X0035692Y0403168D01*
X0035692Y0403560D02*
X0005597Y0403560D01*
X0005597Y0403952D02*
X0035692Y0403952D01*
X0035692Y0404344D02*
X0005597Y0404344D01*
X0005597Y0404736D02*
X0035692Y0404736D01*
X0035692Y0405129D02*
X0005597Y0405129D01*
X0005597Y0405521D02*
X0035692Y0405521D01*
X0035692Y0405913D02*
X0005597Y0405913D01*
X0005597Y0406305D02*
X0035692Y0406305D01*
X0035692Y0406698D02*
X0005597Y0406698D01*
X0005597Y0407090D02*
X0035692Y0407090D01*
X0035692Y0407482D02*
X0005597Y0407482D01*
X0005597Y0407874D02*
X0035692Y0407874D01*
X0035692Y0408266D02*
X0005597Y0408266D01*
X0005597Y0408659D02*
X0035692Y0408659D01*
X0035692Y0409051D02*
X0005597Y0409051D01*
X0005597Y0409443D02*
X0035692Y0409443D01*
X0035692Y0409835D02*
X0005597Y0409835D01*
X0005597Y0410227D02*
X0035692Y0410227D01*
X0035692Y0410620D02*
X0005597Y0410620D01*
X0005597Y0411012D02*
X0035692Y0411012D01*
X0035692Y0411404D02*
X0005597Y0411404D01*
X0005597Y0411796D02*
X0035692Y0411796D01*
X0035692Y0412189D02*
X0005597Y0412189D01*
X0005597Y0412581D02*
X0035692Y0412581D01*
X0035692Y0412973D02*
X0005597Y0412973D01*
X0005597Y0413365D02*
X0035692Y0413365D01*
X0035692Y0413757D02*
X0005597Y0413757D01*
X0005597Y0414150D02*
X0035692Y0414150D01*
X0035692Y0414542D02*
X0005597Y0414542D01*
X0005597Y0414934D02*
X0035692Y0414934D01*
X0035692Y0415326D02*
X0005597Y0415326D01*
X0005597Y0415718D02*
X0035692Y0415718D01*
X0035692Y0416111D02*
X0005597Y0416111D01*
X0005597Y0416503D02*
X0035692Y0416503D01*
X0035692Y0416895D02*
X0005597Y0416895D01*
X0005597Y0417287D02*
X0035692Y0417287D01*
X0035692Y0417679D02*
X0005597Y0417679D01*
X0005597Y0418072D02*
X0035692Y0418072D01*
X0035692Y0418464D02*
X0005597Y0418464D01*
X0005597Y0418856D02*
X0035692Y0418856D01*
X0035692Y0419248D02*
X0005597Y0419248D01*
X0005597Y0419641D02*
X0035692Y0419641D01*
X0035692Y0420033D02*
X0005597Y0420033D01*
X0005597Y0420425D02*
X0035692Y0420425D01*
X0035692Y0420817D02*
X0005597Y0420817D01*
X0005597Y0421209D02*
X0035692Y0421209D01*
X0035692Y0421602D02*
X0005597Y0421602D01*
X0005597Y0421994D02*
X0035692Y0421994D01*
X0035692Y0422386D02*
X0005597Y0422386D01*
X0005597Y0422778D02*
X0035692Y0422778D01*
X0035692Y0423170D02*
X0005597Y0423170D01*
X0005597Y0423563D02*
X0035692Y0423563D01*
X0035692Y0423955D02*
X0005597Y0423955D01*
X0005597Y0424347D02*
X0035692Y0424347D01*
X0035692Y0424739D02*
X0005597Y0424739D01*
X0005597Y0425132D02*
X0035692Y0425132D01*
X0035692Y0425524D02*
X0005597Y0425524D01*
X0005597Y0425916D02*
X0035692Y0425916D01*
X0035692Y0426308D02*
X0005597Y0426308D01*
X0005597Y0426700D02*
X0035692Y0426700D01*
X0035692Y0427093D02*
X0005597Y0427093D01*
X0005597Y0427485D02*
X0035692Y0427485D01*
X0035692Y0427877D02*
X0005597Y0427877D01*
X0005597Y0428269D02*
X0035692Y0428269D01*
X0035692Y0428661D02*
X0005597Y0428661D01*
X0005597Y0429054D02*
X0035692Y0429054D01*
X0035692Y0429446D02*
X0005597Y0429446D01*
X0005597Y0429838D02*
X0035692Y0429838D01*
X0035692Y0430230D02*
X0005597Y0430230D01*
X0005597Y0430622D02*
X0035692Y0430622D01*
X0035692Y0431015D02*
X0005597Y0431015D01*
X0005597Y0431407D02*
X0035692Y0431407D01*
X0035692Y0431799D02*
X0005597Y0431799D01*
X0005597Y0432191D02*
X0035692Y0432191D01*
X0035692Y0432584D02*
X0005597Y0432584D01*
X0005597Y0432976D02*
X0035692Y0432976D01*
X0035692Y0433368D02*
X0005597Y0433368D01*
X0005597Y0433760D02*
X0035692Y0433760D01*
X0035748Y0434152D02*
X0005597Y0434152D01*
X0005597Y0434545D02*
X0035911Y0434545D01*
X0036073Y0434937D02*
X0005597Y0434937D01*
X0005597Y0435329D02*
X0036236Y0435329D01*
X0036450Y0435721D02*
X0005597Y0435721D01*
X0005597Y0436113D02*
X0036843Y0436113D01*
X0037235Y0436506D02*
X0005597Y0436506D01*
X0005597Y0436898D02*
X0037668Y0436898D01*
X0038614Y0437290D02*
X0005597Y0437290D01*
X0005597Y0437682D02*
X0275543Y0437682D01*
X0275543Y0438075D02*
X0005597Y0438075D01*
X0005597Y0438467D02*
X0275543Y0438467D01*
X0275543Y0438859D02*
X0005597Y0438859D01*
X0005597Y0439251D02*
X0275543Y0439251D01*
X0275543Y0439643D02*
X0005597Y0439643D01*
X0005597Y0440036D02*
X0275543Y0440036D01*
X0275543Y0440428D02*
X0005597Y0440428D01*
X0005597Y0440820D02*
X0275543Y0440820D01*
X0275543Y0441212D02*
X0005597Y0441212D01*
X0005597Y0441604D02*
X0275543Y0441604D01*
X0275543Y0441997D02*
X0005597Y0441997D01*
X0005597Y0442389D02*
X0275543Y0442389D01*
X0275543Y0442781D02*
X0054757Y0442781D01*
X0053546Y0442457D02*
X0056216Y0443172D01*
X0058609Y0444554D01*
X0060563Y0446508D01*
X0061945Y0448901D01*
X0062661Y0451571D01*
X0062661Y0454335D01*
X0061945Y0457004D01*
X0060563Y0459397D01*
X0058609Y0461352D01*
X0056216Y0462734D01*
X0053546Y0463449D01*
X0050783Y0463449D01*
X0048113Y0462734D01*
X0045720Y0461352D01*
X0043766Y0459397D01*
X0042384Y0457004D01*
X0041669Y0454335D01*
X0041669Y0451571D01*
X0042384Y0448901D01*
X0043766Y0446508D01*
X0045720Y0444554D01*
X0048113Y0443172D01*
X0050783Y0442457D01*
X0053546Y0442457D01*
X0056218Y0443173D02*
X0275543Y0443173D01*
X0275543Y0443565D02*
X0056897Y0443565D01*
X0057577Y0443958D02*
X0275543Y0443958D01*
X0275543Y0444350D02*
X0058256Y0444350D01*
X0058798Y0444742D02*
X0275543Y0444742D01*
X0275543Y0445134D02*
X0059190Y0445134D01*
X0059582Y0445527D02*
X0275543Y0445527D01*
X0275543Y0445919D02*
X0059974Y0445919D01*
X0060366Y0446311D02*
X0275543Y0446311D01*
X0275543Y0446703D02*
X0060676Y0446703D01*
X0060903Y0447095D02*
X0275543Y0447095D01*
X0275543Y0447488D02*
X0061129Y0447488D01*
X0061355Y0447880D02*
X0275543Y0447880D01*
X0275543Y0448272D02*
X0061582Y0448272D01*
X0061808Y0448664D02*
X0275543Y0448664D01*
X0275543Y0449056D02*
X0061987Y0449056D01*
X0062092Y0449449D02*
X0275543Y0449449D01*
X0275543Y0449841D02*
X0062197Y0449841D01*
X0062302Y0450233D02*
X0275543Y0450233D01*
X0275543Y0450625D02*
X0062407Y0450625D01*
X0062512Y0451018D02*
X0275543Y0451018D01*
X0275543Y0451410D02*
X0062617Y0451410D01*
X0062661Y0451802D02*
X0275543Y0451802D01*
X0275543Y0452194D02*
X0062661Y0452194D01*
X0062661Y0452586D02*
X0275543Y0452586D01*
X0275543Y0452979D02*
X0062661Y0452979D01*
X0062661Y0453371D02*
X0275543Y0453371D01*
X0275543Y0453763D02*
X0062661Y0453763D01*
X0062661Y0454155D02*
X0275543Y0454155D01*
X0275543Y0454547D02*
X0062604Y0454547D01*
X0062498Y0454940D02*
X0275543Y0454940D01*
X0275543Y0455332D02*
X0062393Y0455332D01*
X0062288Y0455724D02*
X0275543Y0455724D01*
X0275543Y0456116D02*
X0062183Y0456116D01*
X0062078Y0456508D02*
X0275543Y0456508D01*
X0275543Y0456901D02*
X0061973Y0456901D01*
X0061779Y0457293D02*
X0275543Y0457293D01*
X0275543Y0457685D02*
X0061552Y0457685D01*
X0061326Y0458077D02*
X0275543Y0458077D01*
X0275543Y0458470D02*
X0061099Y0458470D01*
X0060873Y0458862D02*
X0275543Y0458862D01*
X0275543Y0459254D02*
X0060646Y0459254D01*
X0060315Y0459646D02*
X0275543Y0459646D01*
X0275543Y0460038D02*
X0059923Y0460038D01*
X0059530Y0460431D02*
X0275543Y0460431D01*
X0275543Y0460823D02*
X0059138Y0460823D01*
X0058746Y0461215D02*
X0275543Y0461215D01*
X0275543Y0461607D02*
X0058167Y0461607D01*
X0057487Y0461999D02*
X0275543Y0461999D01*
X0275543Y0462392D02*
X0056808Y0462392D01*
X0056028Y0462784D02*
X0275543Y0462784D01*
X0275543Y0463176D02*
X0054564Y0463176D01*
X0049765Y0463176D02*
X0005597Y0463176D01*
X0005597Y0462784D02*
X0048301Y0462784D01*
X0047521Y0462392D02*
X0005597Y0462392D01*
X0005597Y0461999D02*
X0046842Y0461999D01*
X0046162Y0461607D02*
X0005597Y0461607D01*
X0005597Y0461215D02*
X0045583Y0461215D01*
X0045191Y0460823D02*
X0005597Y0460823D01*
X0005597Y0460431D02*
X0044799Y0460431D01*
X0044407Y0460038D02*
X0005597Y0460038D01*
X0005597Y0459646D02*
X0044014Y0459646D01*
X0043683Y0459254D02*
X0005597Y0459254D01*
X0005597Y0458862D02*
X0043456Y0458862D01*
X0043230Y0458470D02*
X0005597Y0458470D01*
X0005597Y0458077D02*
X0043003Y0458077D01*
X0042777Y0457685D02*
X0005597Y0457685D01*
X0005597Y0457293D02*
X0042551Y0457293D01*
X0042356Y0456901D02*
X0005597Y0456901D01*
X0005597Y0456508D02*
X0042251Y0456508D01*
X0042146Y0456116D02*
X0005597Y0456116D01*
X0005597Y0455724D02*
X0042041Y0455724D01*
X0041936Y0455332D02*
X0005597Y0455332D01*
X0005597Y0454940D02*
X0041831Y0454940D01*
X0041726Y0454547D02*
X0005597Y0454547D01*
X0005597Y0454155D02*
X0041669Y0454155D01*
X0041669Y0453763D02*
X0005597Y0453763D01*
X0005597Y0453371D02*
X0041669Y0453371D01*
X0041669Y0452979D02*
X0005597Y0452979D01*
X0005597Y0452586D02*
X0041669Y0452586D01*
X0041669Y0452194D02*
X0005597Y0452194D01*
X0005597Y0451802D02*
X0041669Y0451802D01*
X0041712Y0451410D02*
X0005597Y0451410D01*
X0005597Y0451018D02*
X0041817Y0451018D01*
X0041922Y0450625D02*
X0005597Y0450625D01*
X0005597Y0450233D02*
X0042027Y0450233D01*
X0042132Y0449841D02*
X0005597Y0449841D01*
X0005597Y0449449D02*
X0042237Y0449449D01*
X0042342Y0449056D02*
X0005597Y0449056D01*
X0005597Y0448664D02*
X0042521Y0448664D01*
X0042747Y0448272D02*
X0005597Y0448272D01*
X0005597Y0447880D02*
X0042974Y0447880D01*
X0043200Y0447488D02*
X0005597Y0447488D01*
X0005597Y0447095D02*
X0043427Y0447095D01*
X0043653Y0446703D02*
X0005597Y0446703D01*
X0005597Y0446311D02*
X0043963Y0446311D01*
X0044355Y0445919D02*
X0005597Y0445919D01*
X0005597Y0445527D02*
X0044747Y0445527D01*
X0045139Y0445134D02*
X0005597Y0445134D01*
X0005597Y0444742D02*
X0045532Y0444742D01*
X0046073Y0444350D02*
X0005597Y0444350D01*
X0005597Y0443958D02*
X0046752Y0443958D01*
X0047432Y0443565D02*
X0005597Y0443565D01*
X0005597Y0443173D02*
X0048111Y0443173D01*
X0049572Y0442781D02*
X0005597Y0442781D01*
X0005597Y0463568D02*
X0275543Y0463568D01*
X0275543Y0463961D02*
X0005597Y0463961D01*
X0005597Y0464353D02*
X0275543Y0464353D01*
X0275543Y0464745D02*
X0005597Y0464745D01*
X0005597Y0465137D02*
X0275543Y0465137D01*
X0275543Y0465529D02*
X0005597Y0465529D01*
X0005597Y0465922D02*
X0275543Y0465922D01*
X0275543Y0466314D02*
X0005597Y0466314D01*
X0005597Y0466706D02*
X0275543Y0466706D01*
X0275543Y0467098D02*
X0005597Y0467098D01*
X0005597Y0467490D02*
X0275543Y0467490D01*
X0275543Y0467883D02*
X0005597Y0467883D01*
X0005597Y0468275D02*
X0275543Y0468275D01*
X0275543Y0468667D02*
X0005597Y0468667D01*
X0005597Y0469059D02*
X0275543Y0469059D01*
X0275543Y0469451D02*
X0005597Y0469451D01*
X0005597Y0469844D02*
X0275543Y0469844D01*
X0275543Y0470236D02*
X0005597Y0470236D01*
X0005597Y0470628D02*
X0275543Y0470628D01*
X0275543Y0471020D02*
X0005597Y0471020D01*
X0005597Y0471413D02*
X0275543Y0471413D01*
X0275543Y0471805D02*
X0005597Y0471805D01*
X0005597Y0472197D02*
X0275543Y0472197D01*
X0275543Y0472589D02*
X0005597Y0472589D01*
X0005597Y0472981D02*
X0275543Y0472981D01*
X0275543Y0473374D02*
X0005597Y0473374D01*
X0005597Y0473766D02*
X0275543Y0473766D01*
X0275543Y0474158D02*
X0005597Y0474158D01*
X0005597Y0474550D02*
X0275543Y0474550D01*
X0275543Y0474942D02*
X0005597Y0474942D01*
X0005597Y0475335D02*
X0275543Y0475335D01*
X0275543Y0475727D02*
X0005597Y0475727D01*
X0005597Y0476119D02*
X0275543Y0476119D01*
X0275543Y0476511D02*
X0005597Y0476511D01*
X0005597Y0476904D02*
X0275543Y0476904D01*
X0275543Y0477296D02*
X0005597Y0477296D01*
X0005597Y0477688D02*
X0275543Y0477688D01*
X0275543Y0478080D02*
X0005597Y0478080D01*
X0005597Y0478472D02*
X0275543Y0478472D01*
X0275543Y0478865D02*
X0005597Y0478865D01*
X0005597Y0479257D02*
X0275543Y0479257D01*
X0275543Y0479649D02*
X0005597Y0479649D01*
X0005597Y0480041D02*
X0275543Y0480041D01*
X0275543Y0480433D02*
X0005597Y0480433D01*
X0005597Y0480826D02*
X0275543Y0480826D01*
X0275543Y0481218D02*
X0005597Y0481218D01*
X0005597Y0481610D02*
X0275543Y0481610D01*
X0275543Y0482002D02*
X0005597Y0482002D01*
X0005597Y0482394D02*
X0275543Y0482394D01*
X0275543Y0482787D02*
X0005597Y0482787D01*
X0005597Y0483179D02*
X0275543Y0483179D01*
X0275543Y0483571D02*
X0005597Y0483571D01*
X0005597Y0483963D02*
X0275543Y0483963D01*
X0275543Y0484356D02*
X0005597Y0484356D01*
X0005597Y0484748D02*
X0275543Y0484748D01*
X0275543Y0485140D02*
X0005597Y0485140D01*
X0005597Y0485532D02*
X0028947Y0485532D01*
X0027484Y0485924D02*
X0005597Y0485924D01*
X0005597Y0486317D02*
X0026360Y0486317D01*
X0025680Y0486709D02*
X0005597Y0486709D01*
X0005597Y0487101D02*
X0025001Y0487101D01*
X0024322Y0487493D02*
X0005597Y0487493D01*
X0005597Y0487885D02*
X0023922Y0487885D01*
X0023530Y0488278D02*
X0005597Y0488278D01*
X0005597Y0488670D02*
X0023138Y0488670D01*
X0022746Y0489062D02*
X0005597Y0489062D01*
X0005597Y0489454D02*
X0022368Y0489454D01*
X0022142Y0489847D02*
X0005597Y0489847D01*
X0005597Y0490239D02*
X0021915Y0490239D01*
X0021689Y0490631D02*
X0005597Y0490631D01*
X0005597Y0491023D02*
X0021462Y0491023D01*
X0021236Y0491415D02*
X0005597Y0491415D01*
X0005597Y0491808D02*
X0021021Y0491808D01*
X0020916Y0492200D02*
X0005597Y0492200D01*
X0005597Y0492592D02*
X0020811Y0492592D01*
X0020706Y0492984D02*
X0005597Y0492984D01*
X0005597Y0493376D02*
X0020601Y0493376D01*
X0020496Y0493769D02*
X0005597Y0493769D01*
X0005597Y0494161D02*
X0020391Y0494161D01*
X0020330Y0494553D02*
X0005597Y0494553D01*
X0005597Y0494945D02*
X0020330Y0494945D01*
X0020330Y0495337D02*
X0005597Y0495337D01*
X0005597Y0495730D02*
X0020330Y0495730D01*
X0020330Y0496122D02*
X0005597Y0496122D01*
X0005597Y0496514D02*
X0020330Y0496514D01*
X0020330Y0496906D02*
X0005597Y0496906D01*
X0005597Y0497299D02*
X0020383Y0497299D01*
X0020488Y0497691D02*
X0005597Y0497691D01*
X0005597Y0498083D02*
X0020593Y0498083D01*
X0020698Y0498475D02*
X0005597Y0498475D01*
X0005597Y0498867D02*
X0020803Y0498867D01*
X0020909Y0499260D02*
X0005597Y0499260D01*
X0005597Y0499652D02*
X0021014Y0499652D01*
X0021219Y0500044D02*
X0005597Y0500044D01*
X0005597Y0500436D02*
X0021446Y0500436D01*
X0021672Y0500828D02*
X0005597Y0500828D01*
X0005597Y0501221D02*
X0021899Y0501221D01*
X0022125Y0501613D02*
X0005597Y0501613D01*
X0005597Y0502005D02*
X0022351Y0502005D01*
X0022717Y0502397D02*
X0005597Y0502397D01*
X0005597Y0502790D02*
X0023109Y0502790D01*
X0032311Y0485532D02*
X0249939Y0485532D01*
X0248475Y0485924D02*
X0033775Y0485924D01*
X0034899Y0486317D02*
X0247718Y0486317D01*
X0247039Y0486709D02*
X0035578Y0486709D01*
X0036257Y0487101D02*
X0246359Y0487101D01*
X0245788Y0487493D02*
X0036937Y0487493D01*
X0037336Y0487885D02*
X0245396Y0487885D01*
X0245004Y0488278D02*
X0037728Y0488278D01*
X0038120Y0488670D02*
X0244612Y0488670D01*
X0244219Y0489062D02*
X0038512Y0489062D01*
X0038890Y0489454D02*
X0243893Y0489454D01*
X0243666Y0489847D02*
X0039117Y0489847D01*
X0039343Y0490239D02*
X0243440Y0490239D01*
X0243213Y0490631D02*
X0039570Y0490631D01*
X0039796Y0491023D02*
X0242987Y0491023D01*
X0242760Y0491415D02*
X0040022Y0491415D01*
X0040237Y0491808D02*
X0242570Y0491808D01*
X0242464Y0492200D02*
X0040342Y0492200D01*
X0040447Y0492592D02*
X0242359Y0492592D01*
X0242254Y0492984D02*
X0040552Y0492984D01*
X0040657Y0493376D02*
X0242149Y0493376D01*
X0242044Y0493769D02*
X0040762Y0493769D01*
X0040867Y0494161D02*
X0241939Y0494161D01*
X0241885Y0494553D02*
X0040928Y0494553D01*
X0040928Y0494945D02*
X0241885Y0494945D01*
X0241885Y0495337D02*
X0040928Y0495337D01*
X0040928Y0495730D02*
X0241885Y0495730D01*
X0241885Y0496122D02*
X0040928Y0496122D01*
X0040928Y0496514D02*
X0241885Y0496514D01*
X0241885Y0496906D02*
X0040928Y0496906D01*
X0040875Y0497299D02*
X0241931Y0497299D01*
X0242036Y0497691D02*
X0040770Y0497691D01*
X0040665Y0498083D02*
X0242141Y0498083D01*
X0242247Y0498475D02*
X0040560Y0498475D01*
X0040455Y0498867D02*
X0242352Y0498867D01*
X0242457Y0499260D02*
X0040350Y0499260D01*
X0040245Y0499652D02*
X0242562Y0499652D01*
X0242744Y0500044D02*
X0040039Y0500044D01*
X0039813Y0500436D02*
X0242970Y0500436D01*
X0243197Y0500828D02*
X0039586Y0500828D01*
X0039360Y0501221D02*
X0243423Y0501221D01*
X0243650Y0501613D02*
X0039133Y0501613D01*
X0038907Y0502005D02*
X0243876Y0502005D01*
X0244191Y0502397D02*
X0038541Y0502397D01*
X0038149Y0502790D02*
X0244583Y0502790D01*
X0254823Y0485532D02*
X0275543Y0485532D01*
X0275543Y0485924D02*
X0256287Y0485924D01*
X0257044Y0486317D02*
X0275543Y0486317D01*
X0275543Y0486709D02*
X0257724Y0486709D01*
X0258403Y0487101D02*
X0275543Y0487101D01*
X0275543Y0487493D02*
X0258974Y0487493D01*
X0259366Y0487885D02*
X0275543Y0487885D01*
X0275543Y0488278D02*
X0259758Y0488278D01*
X0260151Y0488670D02*
X0275543Y0488670D01*
X0275543Y0489062D02*
X0260543Y0489062D01*
X0260869Y0489454D02*
X0275543Y0489454D01*
X0275543Y0489847D02*
X0261096Y0489847D01*
X0261322Y0490239D02*
X0275543Y0490239D01*
X0275543Y0490631D02*
X0261549Y0490631D01*
X0261775Y0491023D02*
X0275543Y0491023D01*
X0275543Y0491415D02*
X0262002Y0491415D01*
X0262193Y0491808D02*
X0275543Y0491808D01*
X0275543Y0492200D02*
X0262298Y0492200D01*
X0262403Y0492592D02*
X0275543Y0492592D01*
X0275543Y0492984D02*
X0262508Y0492984D01*
X0262613Y0493376D02*
X0275543Y0493376D01*
X0275543Y0493769D02*
X0262718Y0493769D01*
X0262823Y0494161D02*
X0275543Y0494161D01*
X0275543Y0494553D02*
X0262877Y0494553D01*
X0262877Y0494945D02*
X0275543Y0494945D01*
X0275543Y0495337D02*
X0262877Y0495337D01*
X0262877Y0495730D02*
X0275543Y0495730D01*
X0275543Y0496122D02*
X0262877Y0496122D01*
X0262877Y0496514D02*
X0275543Y0496514D01*
X0275543Y0496906D02*
X0262877Y0496906D01*
X0262831Y0497299D02*
X0275543Y0497299D01*
X0275543Y0497691D02*
X0262726Y0497691D01*
X0262621Y0498083D02*
X0275543Y0498083D01*
X0275543Y0498475D02*
X0262516Y0498475D01*
X0262411Y0498867D02*
X0275543Y0498867D01*
X0275543Y0499260D02*
X0262305Y0499260D01*
X0262200Y0499652D02*
X0275543Y0499652D01*
X0275543Y0500044D02*
X0262018Y0500044D01*
X0261792Y0500436D02*
X0275543Y0500436D01*
X0275543Y0500828D02*
X0261565Y0500828D01*
X0261339Y0501221D02*
X0275543Y0501221D01*
X0275543Y0501613D02*
X0261113Y0501613D01*
X0260886Y0502005D02*
X0275543Y0502005D01*
X0275543Y0502397D02*
X0260572Y0502397D01*
X0260179Y0502790D02*
X0275543Y0502790D01*
X0257914Y0341983D02*
X0247519Y0341983D01*
X0247519Y0341590D02*
X0257131Y0341590D01*
X0256451Y0341198D02*
X0247519Y0341198D01*
X0247519Y0340806D02*
X0255772Y0340806D01*
X0255191Y0340414D02*
X0247519Y0340414D01*
X0247519Y0340021D02*
X0254799Y0340021D01*
X0254407Y0339629D02*
X0247519Y0339629D01*
X0247519Y0339237D02*
X0254015Y0339237D01*
X0253622Y0338845D02*
X0247519Y0338845D01*
X0247519Y0338453D02*
X0253290Y0338453D01*
X0253064Y0338060D02*
X0247519Y0338060D01*
X0247519Y0337668D02*
X0252837Y0337668D01*
X0252611Y0337276D02*
X0247519Y0337276D01*
X0247519Y0336884D02*
X0252384Y0336884D01*
X0252158Y0336492D02*
X0247519Y0336492D01*
X0247519Y0336099D02*
X0251963Y0336099D01*
X0251858Y0335707D02*
X0247519Y0335707D01*
X0247519Y0335315D02*
X0251753Y0335315D01*
X0251648Y0334923D02*
X0247519Y0334923D01*
X0247519Y0334531D02*
X0251543Y0334531D01*
X0251437Y0334138D02*
X0247519Y0334138D01*
X0247519Y0333746D02*
X0251332Y0333746D01*
X0251275Y0333354D02*
X0247519Y0333354D01*
X0247519Y0332962D02*
X0251275Y0332962D01*
X0251275Y0332569D02*
X0247519Y0332569D01*
X0247519Y0332177D02*
X0251275Y0332177D01*
X0251275Y0331785D02*
X0247519Y0331785D01*
X0247519Y0331393D02*
X0251275Y0331393D01*
X0251275Y0331001D02*
X0247519Y0331001D01*
X0247519Y0330608D02*
X0251317Y0330608D01*
X0251423Y0330216D02*
X0247519Y0330216D01*
X0247519Y0329824D02*
X0251528Y0329824D01*
X0251633Y0329432D02*
X0247519Y0329432D01*
X0247519Y0329040D02*
X0251738Y0329040D01*
X0251843Y0328647D02*
X0247519Y0328647D01*
X0247519Y0328255D02*
X0251948Y0328255D01*
X0252126Y0327863D02*
X0247519Y0327863D01*
X0247519Y0327471D02*
X0252352Y0327471D01*
X0252579Y0327078D02*
X0247519Y0327078D01*
X0247519Y0326686D02*
X0252805Y0326686D01*
X0253032Y0326294D02*
X0247519Y0326294D01*
X0247519Y0325902D02*
X0253258Y0325902D01*
X0253567Y0325510D02*
X0247519Y0325510D01*
X0247519Y0325117D02*
X0253959Y0325117D01*
X0254352Y0324725D02*
X0247519Y0324725D01*
X0247519Y0324333D02*
X0254744Y0324333D01*
X0255136Y0323941D02*
X0247519Y0323941D01*
X0247519Y0323549D02*
X0255676Y0323549D01*
X0256355Y0323156D02*
X0247519Y0323156D01*
X0247519Y0322764D02*
X0257035Y0322764D01*
X0257714Y0322372D02*
X0247519Y0322372D01*
X0247519Y0321980D02*
X0259172Y0321980D01*
M02*
